 <svg version="1.0" xmlns="http://www.w3.org/2000/svg" width="700.000000pt" height="961.000000pt" viewBox="0 0 700.000000 961.000000" preserveAspectRatio="xMidYMid meet">
<metadata>
Created by potrace 1.12, written by Peter Selinger 2001-2015
</metadata>
<g transform="translate(0.000000,961.000000) scale(0.100000,-0.100000)" fill="#000000" stroke="none">
<path d="M4462 9211 c-8 -4 -19 -19 -26 -32 -8 -16 -24 -27 -51 -32 -22 -5
-59 -17 -83 -28 -29 -13 -65 -19 -117 -19 -71 0 -105 -13 -105 -40 0 -5 -13
-24 -29 -43 -48 -54 -94 -255 -95 -417 -1 -114 -4 -130 -29 -186 -18 -39 -50
-82 -88 -120 -40 -39 -64 -73 -74 -104 -21 -64 -61 -105 -120 -125 -133 -46
-159 -56 -169 -64 -6 -4 -31 -11 -57 -14 -106 -14 -213 -85 -260 -173 -18 -35
-143 -104 -195 -109 -73 -7 -295 -110 -373 -173 -25 -21 -95 -62 -156 -92
-135 -67 -199 -125 -209 -187 -4 -31 -14 -47 -36 -63 -16 -12 -33 -32 -36 -44
-8 -33 13 -104 35 -116 29 -15 40 -89 34 -225 -4 -103 -2 -129 16 -184 12 -37
21 -90 21 -128 0 -38 8 -86 20 -120 13 -36 20 -83 20 -126 0 -38 7 -97 16
-130 13 -52 14 -73 4 -139 -11 -66 -10 -83 4 -124 12 -37 16 -87 16 -218 0
-191 6 -222 49 -272 17 -19 31 -41 31 -48 0 -17 26 -39 80 -68 104 -55 121
-77 140 -178 7 -39 19 -64 41 -87 53 -54 75 -58 209 -41 35 4 40 -35 9 -68
-33 -35 -38 -126 -11 -202 11 -31 23 -70 26 -86 11 -44 66 -124 144 -205 86
-90 80 -55 86 -491 4 -236 9 -330 20 -375 9 -33 16 -82 16 -109 0 -26 6 -74
14 -105 8 -31 17 -97 21 -146 6 -79 4 -93 -12 -115 -28 -36 -60 -102 -72 -148
-9 -32 -18 -42 -51 -57 -50 -23 -141 -115 -313 -319 -37 -43 -67 -86 -67 -95
0 -17 -153 -326 -174 -351 -13 -15 -39 -60 -96 -165 -131 -242 -173 -302 -230
-332 -66 -34 -90 -68 -90 -128 0 -74 -16 -118 -63 -177 -43 -55 -74 -84 -130
-123 -18 -12 -71 -61 -120 -109 -62 -63 -87 -94 -87 -112 0 -35 -26 -81 -50
-89 -30 -10 -70 -95 -70 -150 0 -50 10 -76 45 -115 12 -14 29 -38 36 -54 10
-19 40 -42 97 -72 85 -45 122 -52 166 -33 20 10 37 7 98 -16 40 -15 91 -32
113 -37 51 -13 213 -89 228 -106 6 -7 29 -23 51 -34 39 -20 55 -21 376 -19
218 2 339 6 347 13 8 6 13 35 13 75 0 60 -2 66 -38 104 -37 40 -39 41 -77 30
-43 -12 -172 -6 -240 11 -46 11 -95 53 -95 81 0 25 -16 54 -60 107 -50 60 -60
82 -60 126 0 20 -4 53 -9 73 -28 105 -42 185 -37 205 7 29 128 167 186 212 84
65 180 167 204 215 50 102 129 174 263 243 59 30 153 126 223 226 29 41 59 80
67 87 25 19 50 -1 83 -67 28 -55 120 -160 141 -160 27 0 102 -46 114 -71 20
-37 65 -48 179 -44 98 4 114 11 96 45 -6 12 -16 52 -21 88 -11 73 -28 107 -64
124 -28 13 -96 153 -102 213 -3 22 2 65 11 95 9 29 16 88 16 129 1 49 8 96 20
131 11 30 19 69 20 85 0 25 13 42 68 91 98 88 117 100 227 144 55 22 118 48
140 59 70 33 151 62 191 67 44 6 154 37 229 65 28 11 67 19 87 19 33 0 159 43
263 90 22 10 57 23 77 30 21 6 40 16 43 21 4 5 13 9 22 9 25 0 185 96 238 142
32 28 57 63 76 105 16 35 41 80 56 100 l28 36 -2 221 c-1 212 -2 223 -24 261
-39 68 -94 138 -157 202 -34 35 -70 80 -81 102 -12 22 -46 59 -78 84 -32 25
-67 55 -78 67 -21 24 -86 60 -107 60 -46 0 -97 27 -159 86 -53 50 -75 64 -99
64 -22 0 -44 12 -78 43 -26 24 -63 54 -82 67 -19 13 -55 40 -80 60 -44 36
-186 118 -345 198 -44 23 -93 52 -109 65 -28 23 -29 24 -17 73 40 173 73 283
97 325 l20 34 105 -3 c73 -3 125 1 174 13 39 9 142 21 230 25 88 5 176 13 195
19 19 6 82 11 140 11 83 0 113 4 140 18 19 11 59 22 89 25 30 4 63 14 74 24
39 34 77 106 77 143 0 20 9 63 20 95 15 42 20 84 20 154 0 86 -3 103 -30 159
-17 35 -30 70 -30 77 0 8 -17 16 -41 20 -28 5 -55 20 -84 46 -75 69 -137 84
-211 50 -50 -23 -75 -56 -115 -157 -37 -93 -68 -144 -105 -173 -44 -35 -195
-26 -334 19 -30 10 -94 30 -142 45 -49 15 -89 33 -92 41 -9 24 -7 189 4 330
11 126 24 192 58 284 14 37 17 83 16 250 0 177 -3 215 -21 280 -35 126 -62
199 -104 282 -45 90 -47 122 -7 151 27 20 29 20 81 4 65 -21 106 -21 131 -2
11 8 28 15 38 15 33 0 97 71 159 178 54 91 63 115 69 172 3 36 12 76 19 89 7
12 17 50 21 83 7 47 16 68 39 92 26 27 31 41 37 107 3 42 3 107 -1 143 -5 55
-12 72 -36 97 -16 16 -29 34 -29 39 0 26 -106 183 -160 238 -54 55 -66 62
-100 62 -54 0 -87 17 -112 59 -31 50 -42 58 -66 42z m43 -239 c17 -8 41 -23
55 -32 14 -10 45 -23 69 -30 77 -20 191 -167 191 -245 0 -15 -16 -63 -35 -106
-19 -44 -35 -94 -35 -112 0 -56 -74 -267 -112 -323 -34 -50 -111 -88 -175 -87
-28 1 -60 6 -72 12 -41 23 -65 13 -133 -56 -73 -75 -118 -137 -118 -163 0 -9
-11 -34 -25 -54 -24 -36 -34 -86 -17 -86 12 0 81 -102 107 -158 12 -26 25 -76
29 -112 5 -46 14 -72 32 -93 13 -16 24 -40 24 -54 0 -14 11 -38 25 -55 27 -32
32 -82 26 -258 -3 -71 -5 -77 -36 -105 -48 -45 -72 -142 -55 -228 10 -50 10
-94 1 -213 -16 -202 -35 -356 -46 -373 -4 -8 -12 -58 -16 -110 -8 -90 -37
-198 -72 -268 -8 -15 -17 -49 -21 -74 -5 -35 -19 -62 -54 -106 -34 -42 -52
-76 -62 -117 -9 -38 -22 -64 -38 -77 -46 -35 -68 -26 -152 63 -73 77 -80 83
-119 83 -55 0 -88 -34 -97 -96 l-6 -46 87 -42 c48 -24 104 -58 125 -77 47 -42
204 -129 262 -145 52 -14 118 -47 206 -103 37 -23 87 -52 112 -65 25 -13 74
-42 110 -66 36 -23 112 -72 170 -108 58 -36 119 -80 135 -97 43 -46 125 -96
186 -114 46 -14 111 -41 159 -65 8 -4 26 -27 38 -50 13 -23 40 -52 59 -66 32
-21 191 -167 309 -283 40 -39 44 -47 44 -92 0 -32 10 -74 26 -113 43 -102 26
-162 -81 -290 -42 -50 -86 -71 -146 -69 -38 2 -89 -28 -89 -52 0 -40 -162
-135 -232 -136 -9 0 -29 -11 -45 -24 -15 -13 -39 -27 -53 -31 -14 -4 -39 -19
-57 -32 -25 -19 -51 -26 -115 -33 -46 -4 -105 -15 -133 -23 -27 -8 -68 -18
-90 -21 -22 -4 -58 -16 -80 -26 -105 -50 -161 -70 -199 -70 -22 0 -61 -9 -85
-20 -24 -11 -52 -20 -62 -20 -11 0 -37 -9 -59 -20 -22 -11 -48 -20 -59 -20
-41 0 -68 -23 -102 -87 -81 -155 -92 -180 -100 -243 -4 -36 -12 -77 -17 -90
-5 -14 -13 -59 -17 -100 -3 -41 -13 -100 -22 -131 -10 -39 -14 -89 -11 -162 3
-98 5 -108 29 -134 37 -39 43 -62 23 -84 -23 -26 -41 -24 -96 11 -30 19 -61
52 -86 89 -38 59 -39 63 -46 176 -3 66 -13 132 -21 152 -21 49 -45 157 -45
198 0 48 -14 79 -65 141 -47 59 -61 101 -52 166 4 33 17 52 63 99 60 60 91 75
227 108 26 6 61 20 78 31 74 50 86 58 114 72 17 9 77 32 135 53 58 20 125 49
150 65 25 15 94 52 154 81 65 32 116 63 128 80 12 15 49 42 85 59 48 24 73 44
104 87 30 40 54 61 88 75 25 11 77 35 115 54 50 25 81 34 117 34 27 0 83 9
124 20 42 11 86 18 99 14 37 -9 68 12 64 43 -7 60 -88 81 -323 86 -114 2 -136
5 -178 26 -34 16 -76 26 -140 31 -150 12 -300 67 -434 156 -50 34 -106 65
-125 69 -18 4 -69 27 -114 51 -44 24 -99 50 -121 58 -23 8 -83 35 -135 59 -51
24 -106 47 -123 50 -44 8 -173 70 -222 106 -45 33 -102 113 -139 198 -20 45
-24 71 -26 190 l-3 138 43 90 c24 50 54 106 66 125 13 19 27 51 30 71 4 23 27
60 66 107 33 39 60 75 60 80 0 5 11 19 25 32 35 33 47 84 33 135 -14 49 -12
83 5 103 19 24 17 560 -3 627 -11 37 -14 95 -13 225 2 244 7 353 16 368 16 24
63 39 143 45 103 6 124 17 124 62 0 63 -71 109 -162 107 -54 -2 -125 -22 -273
-77 -118 -45 -174 -56 -275 -54 -115 2 -153 -13 -264 -101 -92 -74 -112 -111
-97 -180 6 -28 10 -177 10 -354 0 -273 2 -313 20 -391 12 -48 21 -104 21 -125
0 -21 5 -51 11 -67 6 -15 15 -71 19 -123 12 -136 37 -187 153 -308 99 -104
123 -150 93 -181 -13 -12 -20 -12 -42 -2 -18 8 -46 10 -81 5 -61 -7 -74 0
-103 57 -19 37 -43 55 -154 119 -69 40 -73 48 -75 175 -1 50 -9 101 -21 135
-17 48 -19 84 -20 280 0 156 -5 245 -15 290 -8 36 -14 99 -15 141 0 46 -7 100
-19 135 -14 47 -19 106 -25 301 -3 136 -2 251 3 265 13 35 61 79 94 85 17 3
33 16 40 30 9 21 47 49 146 110 19 12 54 25 76 28 22 4 60 13 85 20 158 48
189 55 220 55 60 0 151 58 278 177 111 104 164 143 194 143 7 0 37 16 66 35
28 20 67 38 84 42 46 8 65 19 128 73 39 33 67 70 94 123 28 54 52 84 82 105
25 18 44 41 48 58 4 16 18 45 31 65 12 19 37 63 54 97 27 54 30 69 25 114 -4
33 0 86 10 137 9 46 16 102 16 125 1 49 62 170 100 198 32 22 129 48 155 41
11 -3 34 -12 50 -21z m-1252 -2151 c31 -62 34 -102 11 -156 -21 -51 -21 -268
0 -345 11 -39 16 -105 17 -225 0 -171 12 -367 24 -416 6 -22 -1 -35 -40 -79
-25 -29 -54 -67 -62 -86 -9 -18 -23 -36 -31 -39 -19 -7 -52 22 -52 46 0 10
-12 26 -26 36 -15 10 -36 29 -48 42 -11 14 -43 46 -69 73 -53 54 -97 140 -97
192 0 18 -7 53 -16 77 -23 65 -26 775 -4 833 21 56 66 76 191 86 55 4 103 11
107 14 3 4 20 6 37 4 25 -3 34 -12 58 -57z m2143 -657 c33 -12 43 -22 48 -45
11 -55 -32 -204 -72 -251 -19 -23 -75 -23 -97 -1 -14 13 -16 27 -10 72 4 31
14 69 22 85 10 19 14 46 11 77 -8 80 15 95 98 63z m-856 -203 c36 -6 89 -11
118 -11 29 0 69 -8 90 -17 27 -12 73 -17 176 -20 83 -2 144 -7 152 -14 8 -6
14 -24 14 -39 0 -22 -11 -35 -54 -65 l-55 -38 -208 -3 c-114 -3 -250 -5 -301
-7 -73 -2 -95 1 -102 13 -5 8 -10 49 -10 91 0 63 4 81 22 104 18 23 26 26 57
22 20 -4 65 -11 101 -16z m-1168 -1738 c11 -9 42 -20 71 -24 29 -4 66 -11 82
-17 17 -5 53 -18 80 -27 28 -9 70 -23 95 -30 57 -16 170 -69 204 -96 25 -19
26 -25 26 -113 0 -67 -6 -109 -20 -151 -11 -32 -20 -72 -20 -89 0 -31 -4 -49
-49 -201 -11 -38 -21 -91 -21 -116 0 -31 -7 -55 -20 -71 -21 -27 -150 -82
-213 -91 -21 -4 -57 -15 -80 -26 -23 -11 -67 -23 -99 -26 -74 -9 -85 7 -67 95
19 98 -3 337 -37 400 -23 43 -30 194 -19 417 5 114 11 157 22 168 19 20 42 19
65 -2z m943 -352 c44 -13 100 -29 125 -37 25 -8 64 -14 88 -14 43 0 82 -25 82
-54 0 -11 -103 -104 -172 -154 -17 -12 -42 -18 -91 -21 -10 0 -43 -26 -72 -56
-51 -54 -54 -55 -108 -55 -49 0 -59 3 -72 24 -18 27 -13 91 11 156 19 52 44
158 44 189 0 58 25 61 165 22z m-979 -1362 c8 -6 18 -30 24 -53 6 -22 17 -63
25 -90 41 -134 -1 -244 -152 -393 -72 -72 -102 -95 -135 -103 -36 -10 -72 -40
-221 -188 -112 -111 -187 -194 -202 -223 -13 -25 -38 -61 -56 -80 -35 -37
-120 -156 -158 -222 -14 -23 -60 -78 -103 -121 -43 -43 -78 -84 -78 -91 0 -6
11 -22 24 -34 17 -16 27 -39 31 -74 10 -73 60 -188 111 -256 24 -33 44 -63 44
-69 0 -35 89 -102 156 -116 16 -4 59 -25 95 -46 35 -22 70 -40 77 -40 6 0 12
-7 12 -16 0 -14 -9 -15 -62 -10 -180 17 -263 43 -413 128 -62 35 -85 55 -103
87 -35 61 -60 75 -113 61 -32 -9 -53 -9 -84 0 -31 9 -52 9 -81 1 -68 -19 -97
-14 -130 21 -70 78 -79 98 -79 180 0 71 2 79 29 107 20 21 45 34 84 42 45 9
64 20 103 60 27 26 49 53 49 59 0 7 13 30 29 53 15 23 40 63 55 89 14 26 39
56 55 67 45 32 110 124 142 201 17 39 43 92 59 118 16 26 52 88 81 137 29 50
64 104 79 120 15 17 37 48 50 70 13 22 73 93 132 159 60 65 118 137 130 160
11 22 41 67 65 99 24 32 53 83 64 113 23 60 67 111 102 116 43 6 250 -12 263
-23z"></path>
<path d="M3623 2900 c-24 -10 -53 -58 -53 -89 0 -77 96 -128 160 -85 39 26 50
45 50 85 0 42 -18 65 -67 85 -37 16 -58 17 -90 4z"></path>
</g>
</svg>