 <svg version="1.0" xmlns="http://www.w3.org/2000/svg" width="700.000000pt" height="961.000000pt" viewBox="0 0 700.000000 961.000000" preserveAspectRatio="xMidYMid meet">
<metadata>
Created by potrace 1.12, written by Peter Selinger 2001-2015
</metadata>
<g transform="translate(0.000000,961.000000) scale(0.100000,-0.100000)" fill="#000000" stroke="none">
<path d="M4101 9309 c-19 -6 -46 -19 -59 -30 -14 -10 -29 -19 -34 -19 -15 0
-67 -43 -85 -69 -9 -14 -20 -39 -24 -55 -4 -17 -20 -62 -34 -101 -35 -94 -45
-152 -55 -335 -18 -306 -23 -343 -48 -374 -30 -39 -82 -76 -105 -76 -26 0
-120 -45 -137 -65 -7 -8 -21 -15 -31 -15 -10 0 -26 -8 -36 -18 -10 -10 -29
-23 -43 -29 -53 -22 -190 -168 -190 -201 0 -4 -9 -15 -20 -25 -11 -9 -20 -27
-20 -40 0 -13 -5 -28 -11 -34 -6 -6 -15 -33 -20 -59 -12 -66 -96 -167 -165
-200 -73 -35 -260 -235 -360 -388 -12 -18 -54 -64 -93 -102 -88 -85 -103 -123
-76 -186 10 -24 24 -50 31 -58 7 -8 16 -28 20 -45 3 -16 13 -38 22 -47 10 -12
13 -29 9 -55 -8 -45 5 -86 55 -173 37 -66 117 -152 366 -394 83 -81 134 -138
138 -155 3 -14 8 -37 10 -51 3 -14 14 -33 25 -43 24 -23 24 -57 0 -88 -10 -13
-21 -34 -25 -46 -4 -11 -13 -24 -21 -27 -8 -3 -15 -18 -15 -33 0 -16 -9 -36
-20 -46 -11 -9 -20 -28 -20 -43 0 -14 -6 -35 -12 -47 -7 -12 -18 -42 -24 -67
-13 -48 -26 -87 -56 -163 -17 -42 -18 -55 -8 -104 7 -30 18 -70 26 -89 8 -18
14 -47 14 -63 0 -20 7 -34 20 -41 19 -10 53 -64 75 -120 12 -30 66 -106 117
-164 26 -29 39 -56 44 -87 4 -24 12 -51 19 -59 27 -35 55 -93 55 -116 0 -14 6
-35 14 -47 8 -12 17 -65 21 -117 4 -54 13 -103 21 -114 8 -11 14 -33 14 -49 0
-15 7 -39 16 -52 24 -38 13 -57 -26 -43 -18 6 -34 17 -37 24 -3 8 -16 14 -28
14 -13 0 -31 7 -39 16 -9 9 -37 27 -63 41 -51 27 -182 154 -226 219 -15 22
-43 55 -62 74 -19 19 -35 39 -35 44 0 6 -15 26 -34 44 -25 24 -42 32 -69 32
-35 0 -37 2 -52 52 -16 56 -39 88 -63 88 -9 0 -23 7 -32 15 -11 10 -39 15 -81
16 -53 1 -72 -3 -111 -25 -69 -40 -148 -114 -148 -139 0 -12 -7 -35 -16 -52
-8 -16 -19 -68 -24 -115 -5 -47 -12 -98 -15 -115 -8 -34 -52 -85 -72 -85 -47
0 -223 -149 -223 -189 0 -10 -7 -24 -15 -31 -8 -7 -15 -22 -15 -35 0 -12 -9
-30 -20 -40 -16 -14 -20 -31 -20 -77 0 -34 -7 -72 -16 -90 -14 -28 -14 -34 0
-72 18 -47 21 -134 6 -186 -14 -47 -5 -78 35 -124 33 -39 33 -40 81 -30 26 5
50 16 54 24 4 8 16 34 28 57 12 23 22 49 22 58 0 9 9 28 20 42 11 14 20 31 20
38 0 26 106 134 140 142 14 3 32 12 40 19 29 24 111 64 133 64 12 0 43 -8 69
-17 45 -16 48 -16 67 1 25 22 70 16 108 -14 14 -11 31 -20 37 -20 6 0 19 -9
29 -20 9 -11 26 -20 36 -20 11 0 24 -6 28 -12 8 -13 15 -18 92 -66 25 -15 63
-43 85 -63 23 -20 60 -48 83 -63 24 -14 73 -54 110 -89 38 -34 93 -81 123
-103 30 -23 103 -88 161 -145 265 -258 416 -376 529 -411 111 -35 261 -15 350
47 25 17 57 35 72 38 34 9 98 86 98 119 0 14 7 31 16 38 12 10 14 25 9 64 -12
92 31 144 55 70 15 -44 7 -139 -13 -163 -20 -23 -90 -165 -102 -208 -3 -11
-12 -27 -20 -33 -8 -7 -15 -22 -15 -33 0 -11 -7 -29 -16 -39 -10 -10 -19 -40
-22 -68 -2 -27 -11 -55 -18 -61 -23 -19 -19 -213 6 -268 11 -24 20 -52 20 -63
0 -10 7 -33 16 -50 14 -27 16 -93 17 -517 1 -441 0 -489 -16 -518 -9 -18 -17
-49 -17 -70 0 -21 -9 -51 -20 -68 -11 -16 -20 -44 -20 -60 0 -17 -9 -47 -20
-68 -11 -20 -20 -46 -20 -57 0 -10 -6 -34 -14 -52 -54 -123 -55 -196 -3 -274
48 -72 61 -75 377 -84 151 -4 307 -5 345 -3 41 3 111 -2 167 -11 62 -10 159
-16 266 -16 143 0 178 3 227 20 32 11 72 20 90 20 41 0 70 30 61 63 -3 13 -25
37 -48 52 -24 16 -54 36 -68 45 -14 10 -35 20 -48 24 -12 4 -22 11 -22 16 0
12 -131 106 -160 115 -14 4 -37 17 -52 29 -14 11 -69 48 -122 81 -61 39 -98
69 -104 85 -5 14 -33 50 -61 80 -37 40 -51 63 -51 85 -1 17 -7 41 -15 55 -19
32 -18 90 0 114 8 11 15 35 15 53 0 19 7 45 16 58 12 19 17 66 23 207 4 101
12 192 18 203 6 12 15 93 19 180 4 94 13 176 21 200 8 23 16 93 18 167 2 70 9
136 14 147 6 10 15 90 21 177 7 109 14 164 25 180 8 13 15 32 15 43 0 11 5 23
10 26 18 11 57 98 66 145 4 25 7 99 5 165 -2 96 -6 128 -22 158 -10 21 -19 55
-19 76 0 25 -7 44 -20 56 -11 10 -20 27 -20 38 0 11 -7 29 -17 39 -20 22 -25
32 -87 155 -26 54 -52 105 -56 113 -5 8 -29 58 -55 110 -26 52 -65 130 -86
174 -21 43 -39 87 -39 97 0 10 -9 33 -20 51 -11 18 -20 47 -20 65 0 17 -4 34
-9 38 -5 3 -15 22 -22 43 -6 20 -20 48 -30 61 -11 13 -19 31 -19 39 0 8 -11
38 -24 66 -50 108 -66 142 -75 156 -5 8 -25 49 -46 92 -20 42 -48 86 -61 99
-13 12 -24 30 -24 40 0 9 -7 22 -15 29 -8 7 -30 37 -47 67 -18 30 -42 69 -53
88 -22 36 -109 192 -135 240 -26 49 -54 89 -67 98 -8 5 -13 29 -13 61 0 49 3
56 33 79 18 13 52 28 77 32 24 4 57 17 73 29 53 37 117 110 117 132 0 12 7 27
15 34 9 7 15 29 15 55 0 33 -8 54 -37 94 -22 29 -49 54 -63 58 -14 3 -36 17
-49 30 -13 12 -28 23 -32 23 -5 0 -9 14 -9 30 0 23 -7 35 -32 50 -18 11 -45
20 -61 20 -37 0 -47 29 -47 144 0 85 3 98 34 162 19 38 37 89 41 114 4 25 13
60 21 79 8 18 14 55 14 81 0 26 7 67 15 90 8 23 15 55 15 71 0 16 11 72 25
125 29 112 31 191 9 319 -9 50 -20 126 -25 170 -5 44 -15 107 -24 140 -8 33
-15 83 -15 112 0 28 -4 55 -10 58 -15 10 -11 38 9 65 17 22 27 24 92 25 l72 1
44 48 c24 27 71 70 104 97 54 43 109 107 109 128 0 4 9 16 20 26 11 10 20 27
20 37 0 10 6 31 14 46 27 53 46 240 31 309 -5 22 -2 46 9 73 11 28 16 72 16
146 0 91 -3 109 -20 131 -11 14 -20 36 -20 48 0 12 -7 28 -15 35 -8 7 -15 17
-15 23 0 17 -52 89 -87 120 -63 56 -117 87 -153 87 -19 0 -51 5 -70 11 -19 5
-100 14 -180 20 -80 5 -161 11 -180 14 -19 2 -50 -1 -69 -6z m375 -136 c64
-29 66 -31 122 -113 20 -30 45 -64 55 -75 11 -11 33 -40 49 -64 27 -38 31 -53
33 -120 1 -42 6 -115 10 -163 14 -152 -24 -296 -112 -427 -13 -19 -28 -52 -34
-74 -16 -61 -48 -87 -107 -87 -27 0 -62 7 -79 15 -21 11 -38 12 -61 5 -32 -9
-80 5 -154 46 -33 18 -68 4 -68 -27 0 -11 -6 -32 -14 -47 -11 -23 -18 -85 -19
-192 0 -31 27 -90 70 -152 18 -26 35 -59 39 -75 4 -15 12 -35 19 -43 13 -16
29 -142 29 -220 -1 -103 -16 -258 -29 -295 -7 -22 -15 -69 -18 -105 -3 -36
-12 -78 -21 -95 -9 -16 -16 -50 -16 -75 0 -25 -9 -78 -20 -119 -11 -41 -20
-94 -20 -118 0 -23 -9 -66 -20 -95 -11 -29 -20 -67 -20 -83 0 -17 -6 -39 -14
-50 -7 -11 -16 -57 -19 -103 -5 -61 -12 -91 -27 -113 -28 -38 -43 -37 -76 9
-21 29 -44 45 -89 62 -33 13 -71 30 -84 38 -17 10 -43 13 -92 10 -72 -6 -188
12 -210 31 -55 46 -70 65 -93 113 -14 30 -26 60 -26 66 0 6 -11 28 -25 48 -31
45 -31 63 -3 117 14 27 25 71 30 122 17 183 30 219 97 281 27 25 52 56 55 70
7 28 41 44 94 44 39 0 108 27 139 54 10 9 35 30 56 48 21 17 46 48 57 70 48
100 -56 158 -159 88 -24 -17 -53 -30 -64 -30 -12 0 -39 -8 -61 -19 -23 -10
-56 -24 -75 -31 -22 -9 -43 -30 -62 -60 -16 -26 -39 -52 -51 -59 -78 -40 -106
-60 -133 -97 -29 -39 -140 -134 -193 -165 -17 -10 -30 -29 -37 -55 -5 -21 -16
-49 -22 -61 -18 -30 -16 -88 2 -103 8 -7 15 -24 15 -37 0 -28 23 -61 95 -136
28 -29 65 -74 83 -102 29 -44 97 -127 142 -175 8 -8 38 -42 65 -74 71 -84 126
-102 211 -72 75 26 163 -16 178 -84 5 -24 13 -34 79 -94 15 -14 27 -31 27 -39
0 -23 -110 -126 -162 -152 -60 -30 -81 -31 -150 -4 -66 25 -93 48 -141 121
-20 31 -43 63 -51 70 -54 52 -130 121 -181 162 -33 27 -64 54 -70 61 -5 6 -31
24 -57 41 -65 43 -111 81 -170 139 -46 46 -139 158 -163 196 -5 9 -23 35 -39
59 -49 75 -77 134 -73 155 3 11 12 36 20 56 15 34 15 38 -3 73 -26 47 -25 73
3 135 31 66 153 217 219 272 29 24 55 47 58 51 3 3 24 21 46 40 36 29 194 161
234 196 8 7 25 21 38 30 15 12 24 32 28 67 5 36 16 62 40 92 19 23 34 47 34
53 0 17 175 190 192 190 9 0 21 7 28 15 7 8 27 17 46 21 19 3 37 10 40 15 3 5
18 9 33 9 23 0 41 17 110 105 45 58 96 115 112 128 32 23 79 105 79 138 0 22
-11 24 -28 7 -8 -8 -15 -8 -27 2 -21 17 -19 63 5 102 12 20 20 51 20 78 1 25
7 56 15 70 8 14 14 44 15 68 0 23 9 60 20 82 11 22 20 50 20 63 0 13 9 36 20
50 11 14 20 31 20 38 0 17 50 69 66 69 18 0 44 46 44 77 0 16 7 39 16 51 14
20 23 22 113 22 86 0 106 -4 157 -27z m-838 -3026 c2 -12 -3 -17 -17 -17 -12
0 -21 6 -21 13 0 31 32 34 38 4z m733 -154 c45 -24 56 -35 68 -70 18 -51 3
-108 -40 -149 -27 -26 -35 -28 -109 -27 -45 0 -84 4 -88 8 -4 3 -7 58 -7 122
0 102 2 116 19 129 31 23 96 17 157 -13z m-1064 -217 c20 -17 28 -34 28 -57 0
-28 6 -35 44 -56 24 -13 54 -23 66 -23 12 0 38 -14 57 -31 32 -29 81 -53 134
-66 12 -3 40 7 70 24 27 17 62 33 77 37 16 4 51 24 78 46 60 47 79 44 79 -14
0 -70 26 -146 61 -180 17 -17 43 -46 57 -64 22 -29 24 -37 13 -54 -16 -25 -5
-75 19 -88 10 -6 30 -10 44 -10 15 0 33 -11 48 -30 13 -17 38 -47 56 -68 18
-20 44 -57 59 -82 14 -25 41 -61 60 -80 18 -19 33 -42 33 -52 0 -9 9 -25 19
-35 11 -10 22 -30 26 -45 4 -16 11 -28 16 -28 4 0 47 -80 94 -177 48 -98 93
-190 101 -205 8 -14 14 -33 14 -41 0 -8 9 -26 20 -40 11 -14 20 -39 20 -55 0
-16 7 -35 15 -42 8 -7 18 -28 21 -48 4 -20 15 -55 25 -77 10 -22 19 -51 19
-63 0 -13 7 -36 14 -50 8 -15 22 -43 30 -62 38 -89 48 -109 85 -175 63 -111
90 -169 98 -206 4 -23 29 -59 75 -108 44 -48 68 -83 68 -98 0 -13 9 -41 20
-63 37 -72 21 -216 -36 -333 -8 -16 -19 -69 -25 -119 -6 -51 -15 -102 -20
-116 -5 -13 -9 -39 -9 -58 0 -20 -8 -56 -19 -82 -31 -78 -39 -114 -46 -187 -3
-38 -12 -106 -20 -150 -22 -126 -35 -235 -35 -293 0 -30 -6 -66 -14 -80 -23
-42 -64 -413 -66 -582 0 -41 -7 -107 -15 -145 -8 -39 -15 -106 -15 -150 0 -94
20 -144 66 -160 16 -6 72 -53 125 -105 67 -67 111 -102 150 -119 126 -56 224
-109 224 -121 0 -23 -64 -32 -185 -27 -95 4 -126 9 -176 30 -57 25 -66 26
-143 17 -45 -5 -95 -7 -112 -3 -30 6 -89 -13 -89 -29 0 -5 -11 -20 -25 -33
-28 -28 -61 -31 -120 -11 -35 13 -40 18 -37 43 1 15 5 75 8 133 4 58 10 110
15 116 14 18 51 133 64 204 10 48 11 107 4 230 -5 91 -12 179 -15 195 -4 17
-8 109 -9 205 0 96 -6 209 -13 250 -6 41 -14 138 -16 215 -3 77 -10 160 -15
185 -14 65 -13 131 4 160 8 14 14 39 15 55 0 17 9 47 20 68 11 20 20 47 20 59
0 13 9 37 20 53 11 17 20 38 20 48 0 10 16 46 35 78 19 33 35 64 35 68 0 4 8
16 19 25 10 10 21 37 25 64 3 26 13 60 21 76 23 44 19 60 -34 128 -26 35 -55
77 -64 93 -8 17 -34 48 -57 70 -23 22 -56 60 -72 85 -17 25 -45 61 -63 80 -38
41 -97 141 -114 192 -7 20 -19 42 -28 49 -51 43 -176 235 -192 297 -6 22 -18
45 -26 52 -8 7 -15 17 -15 23 0 6 -7 17 -15 26 -9 9 -36 43 -60 76 -25 33 -51
67 -58 75 -7 8 -51 62 -97 119 -45 58 -97 118 -115 135 -48 47 -67 84 -67 130
1 33 -5 47 -31 74 -17 17 -41 32 -52 32 -12 0 -30 9 -40 20 -10 11 -28 20 -40
20 -13 0 -28 6 -34 14 -6 8 -31 19 -55 25 -24 6 -49 17 -56 26 -7 8 -23 15
-35 15 -24 0 -85 60 -85 84 0 8 -7 19 -15 26 -8 7 -15 26 -15 43 0 21 -10 39
-35 63 -19 18 -35 36 -35 41 0 4 -7 22 -16 38 -24 44 -30 172 -11 253 9 37 19
83 23 102 7 37 35 95 71 150 27 41 29 71 7 105 -13 20 -14 28 -4 40 17 20 24
19 57 -9z m873 -146 c0 -5 -4 -10 -10 -10 -5 0 -10 5 -10 10 0 6 5 10 10 10 6
0 10 -4 10 -10z m-596 -1166 c58 -60 84 -97 92 -130 18 -78 119 -224 243 -352
28 -29 51 -57 51 -62 0 -5 27 -39 60 -77 33 -37 60 -72 60 -77 0 -5 7 -17 16
-27 8 -9 22 -41 29 -70 8 -29 18 -55 23 -58 5 -3 12 -23 15 -45 3 -21 13 -46
20 -55 8 -9 18 -27 22 -41 4 -14 20 -44 36 -68 16 -24 29 -45 29 -47 0 -2 11
-21 25 -41 14 -20 25 -45 25 -54 0 -10 7 -23 15 -30 8 -7 15 -23 15 -35 0 -12
9 -34 20 -48 12 -15 20 -40 20 -64 0 -48 -34 -85 -100 -108 -25 -9 -64 -34
-86 -56 -37 -36 -48 -41 -102 -46 -68 -6 -111 10 -187 73 -23 19 -51 34 -63
34 -40 0 -272 203 -342 300 -61 84 -193 217 -260 262 -30 20 -66 48 -79 62
-14 14 -28 26 -33 26 -9 0 -59 33 -93 61 -11 10 -38 27 -60 39 -99 53 -279
178 -359 249 -73 65 -83 70 -92 46 -3 -8 -21 -24 -39 -35 -19 -12 -43 -36 -55
-55 -11 -18 -33 -38 -49 -43 -15 -6 -48 -23 -72 -38 -80 -51 -111 -63 -180
-70 -59 -6 -73 -4 -89 11 -11 10 -20 25 -20 34 0 30 81 111 153 153 40 23 79
49 89 57 9 9 41 36 71 61 43 36 57 55 70 97 12 38 14 60 7 78 -19 51 -12 111
19 157 47 69 63 81 95 67 15 -7 52 -44 82 -83 89 -116 140 -173 196 -222 29
-25 67 -57 83 -72 17 -15 50 -40 75 -57 25 -16 47 -33 50 -36 3 -4 26 -18 51
-31 25 -14 57 -33 70 -42 60 -43 133 -87 154 -92 13 -3 26 -12 28 -18 3 -7 18
-16 34 -19 15 -3 44 -22 63 -41 19 -19 40 -36 46 -36 6 0 35 -18 64 -40 29
-22 58 -40 64 -40 19 0 76 -60 76 -79 0 -10 15 -33 33 -52 18 -19 45 -54 60
-79 15 -25 42 -62 62 -83 19 -21 35 -44 35 -52 0 -23 81 -105 104 -105 41 0
47 12 36 68 -5 28 -14 59 -20 69 -5 10 -23 59 -39 108 -44 133 -65 187 -83
215 -9 14 -20 37 -23 53 -4 15 -27 45 -51 66 -24 21 -44 43 -44 48 0 6 -10 23
-22 39 -26 33 -138 252 -138 270 0 6 -9 23 -20 37 -11 14 -20 36 -20 50 0 13
-7 30 -15 37 -8 6 -17 38 -21 71 -4 32 -13 64 -20 70 -18 14 -18 86 -1 92 24
8 51 -7 91 -49z"></path>
</g>
</svg>