 <svg version="1.0" xmlns="http://www.w3.org/2000/svg" width="700.000000pt" height="961.000000pt" viewBox="0 0 700.000000 961.000000" preserveAspectRatio="xMidYMid meet">
<metadata>
Created by potrace 1.12, written by Peter Selinger 2001-2015
</metadata>
<g transform="translate(0.000000,961.000000) scale(0.100000,-0.100000)" fill="#000000" stroke="none">
<path d="M4085 9380 c-60 -15 -120 -56 -142 -96 -12 -21 -50 -70 -85 -108 -34
-37 -75 -86 -91 -107 -16 -22 -32 -39 -36 -39 -4 0 -17 -17 -28 -38 -19 -33
-21 -45 -13 -107 5 -39 9 -108 9 -155 1 -115 -10 -139 -141 -310 -21 -27 -38
-53 -38 -57 0 -4 -16 -25 -36 -45 l-35 -38 -86 0 c-70 0 -89 -4 -110 -20 -14
-11 -34 -20 -44 -20 -32 0 -137 -61 -202 -118 -81 -70 -97 -76 -175 -62 -41 7
-75 7 -100 1 -20 -5 -59 -12 -87 -16 -27 -4 -58 -13 -69 -21 -11 -8 -33 -14
-49 -14 -16 0 -37 -5 -48 -11 -49 -26 -128 -38 -211 -32 -69 5 -90 2 -118 -12
-41 -21 -156 -129 -175 -165 -8 -14 -27 -40 -44 -58 -38 -41 -39 -69 -3 -103
15 -15 45 -60 66 -100 22 -41 61 -107 88 -148 26 -41 48 -79 48 -85 0 -5 17
-30 38 -55 21 -25 57 -73 79 -106 23 -33 99 -117 170 -187 131 -129 163 -165
163 -181 0 -32 228 -258 313 -310 31 -19 92 -19 174 -2 29 7 34 4 43 -21 6
-16 24 -40 41 -54 29 -25 30 -28 30 -114 1 -66 -3 -92 -15 -105 -9 -10 -16
-24 -16 -33 0 -8 -9 -27 -20 -41 -11 -14 -20 -34 -20 -44 0 -11 -7 -28 -15
-39 -8 -10 -15 -31 -15 -45 0 -34 -29 -71 -90 -111 -107 -72 -260 -222 -260
-255 0 -12 -5 -25 -11 -29 -6 -3 -22 -30 -35 -58 -21 -46 -24 -65 -24 -186 0
-96 4 -141 13 -155 30 -45 57 -152 57 -228 0 -68 -3 -81 -30 -120 -16 -24 -34
-55 -40 -68 -5 -13 -14 -31 -18 -39 -22 -39 -52 -108 -58 -135 -4 -16 -13 -39
-20 -50 -8 -11 -14 -29 -14 -40 0 -11 -8 -33 -17 -50 -20 -37 -31 -99 -43
-235 -10 -126 -21 -179 -43 -211 -10 -13 -17 -33 -17 -44 0 -11 -9 -33 -20
-50 -11 -16 -20 -40 -20 -53 0 -14 -9 -27 -25 -34 -13 -6 -27 -20 -31 -32 -3
-12 -15 -30 -25 -42 -10 -11 -23 -41 -27 -66 -5 -25 -16 -56 -25 -69 -10 -13
-17 -36 -17 -52 0 -15 -7 -30 -15 -33 -8 -4 -15 -15 -15 -27 0 -38 -97 -167
-126 -167 -9 0 -27 -9 -41 -20 -14 -11 -34 -20 -43 -20 -10 0 -23 -7 -30 -15
-7 -8 -21 -15 -32 -15 -11 0 -31 -9 -45 -20 -14 -11 -32 -20 -39 -20 -17 0
-96 -41 -109 -56 -5 -7 -41 -27 -78 -45 -113 -56 -121 -61 -162 -93 -22 -18
-53 -40 -70 -51 -38 -23 -105 -96 -105 -113 0 -7 -8 -16 -17 -19 -27 -10 -125
-101 -148 -137 -11 -18 -37 -53 -57 -78 -21 -25 -38 -49 -38 -54 -1 -16 -93
-107 -170 -169 -41 -33 -94 -75 -116 -95 -23 -19 -60 -46 -84 -60 -23 -14 -67
-49 -98 -77 -31 -29 -63 -53 -72 -53 -8 0 -34 -17 -57 -38 -23 -20 -63 -53
-89 -72 -97 -71 -184 -149 -184 -164 0 -6 -14 -27 -30 -46 -16 -19 -33 -49
-36 -67 -12 -62 4 -93 93 -182 47 -46 95 -103 106 -125 12 -23 27 -45 34 -49
7 -4 13 -16 13 -26 0 -10 9 -30 20 -44 11 -14 20 -32 20 -40 0 -8 9 -26 20
-40 11 -14 20 -34 20 -45 0 -10 9 -27 20 -37 11 -10 20 -31 20 -46 0 -15 5
-31 10 -34 6 -3 15 -26 21 -50 6 -25 17 -50 25 -56 8 -6 14 -17 14 -23 0 -21
49 -116 72 -140 27 -27 124 -96 136 -96 5 0 17 -9 27 -20 10 -11 24 -20 31
-20 7 0 34 -14 59 -31 93 -63 135 -79 207 -79 57 0 71 4 97 26 41 34 42 76 4
101 -33 22 -76 69 -123 136 -19 27 -52 68 -72 91 l-38 41 0 90 c2 286 23 458
68 555 20 42 95 135 137 170 17 14 74 67 128 118 53 51 121 108 150 126 28 19
70 50 92 71 22 20 63 52 92 71 28 19 57 41 63 49 7 8 17 15 22 15 6 0 42 25
82 56 103 80 206 157 225 169 9 6 27 18 40 27 13 10 32 18 41 18 10 0 23 6 29
14 7 8 27 18 44 21 18 4 39 13 47 20 8 7 31 16 50 20 19 4 45 13 57 21 12 8
29 14 36 14 8 0 26 9 40 20 14 11 33 20 44 20 10 0 41 21 68 47 28 25 64 52
82 59 17 7 33 18 35 25 2 6 26 19 53 29 28 9 66 23 85 30 53 19 63 25 70 41 4
8 13 25 20 39 8 14 20 39 28 55 8 17 20 37 27 45 7 8 16 26 20 40 4 14 29 52
54 85 26 33 60 87 76 120 17 33 52 95 80 137 99 154 110 171 125 197 8 15 32
49 53 76 117 155 150 206 183 287 21 50 54 108 76 132 24 28 38 54 38 71 0 16
12 38 29 56 32 31 67 37 131 19 50 -13 203 -28 364 -36 103 -5 149 -11 180
-25 22 -10 53 -19 67 -19 15 0 32 -7 39 -15 7 -9 29 -15 54 -15 24 0 53 -8 71
-20 18 -12 47 -20 71 -20 26 0 51 -7 67 -20 17 -13 40 -20 72 -20 25 0 59 -7
75 -15 16 -8 60 -17 98 -18 38 -2 74 -7 80 -11 17 -10 15 -36 -4 -57 -9 -10
-18 -36 -21 -58 -3 -22 -12 -46 -19 -52 -8 -6 -14 -19 -14 -28 0 -9 -9 -33
-20 -54 -11 -20 -20 -42 -20 -49 0 -6 -8 -30 -19 -52 -10 -23 -24 -75 -31
-116 -7 -41 -21 -109 -32 -150 -12 -49 -24 -150 -33 -290 -12 -197 -21 -260
-60 -405 -8 -27 -17 -72 -21 -100 -8 -57 -18 -87 -81 -235 -61 -144 -72 -168
-109 -225 -50 -78 -73 -143 -84 -235 -6 -47 -13 -102 -17 -122 -4 -29 0 -44
17 -65 30 -38 145 -93 195 -93 22 0 50 -7 61 -15 14 -9 58 -16 135 -19 127 -5
212 -27 279 -73 169 -114 229 -137 400 -152 160 -15 189 -7 280 80 14 14 47
42 74 63 63 51 79 87 59 135 -8 20 -21 43 -29 52 -8 8 -14 23 -14 32 0 22 -18
31 -35 17 -10 -8 -53 -12 -121 -12 -92 0 -110 3 -135 21 -15 12 -32 21 -36 21
-12 0 -193 189 -228 238 -16 23 -42 59 -57 79 -35 49 -35 75 2 148 16 33 30
69 30 80 0 11 9 34 20 50 13 20 20 47 20 81 0 37 6 59 21 78 12 15 18 34 15
44 -3 10 3 36 15 57 13 26 22 68 26 120 3 47 11 87 20 96 7 9 17 34 20 55 3
22 14 50 25 63 10 13 18 31 18 40 0 17 34 110 56 153 8 14 14 35 14 46 0 10 9
31 20 45 11 14 20 34 20 45 0 10 9 27 20 37 11 10 20 28 20 39 0 12 7 31 15
43 8 11 17 40 21 64 4 24 16 55 26 69 11 14 17 33 14 45 -3 12 1 30 9 41 8 10
15 25 15 32 0 7 20 54 44 105 24 50 47 108 51 127 4 19 14 47 21 62 8 15 14
40 14 56 0 16 6 35 14 41 9 8 17 42 21 89 3 42 12 95 20 117 9 27 11 58 6 95
-8 59 -35 130 -49 130 -5 0 -26 17 -48 38 -21 20 -64 57 -94 82 -30 25 -88 75
-129 113 -41 37 -113 89 -160 115 -47 27 -95 54 -106 60 -11 7 -31 17 -45 22
-14 6 -38 19 -55 30 -16 11 -42 26 -57 35 -15 8 -44 30 -65 50 -20 19 -53 42
-73 52 -19 10 -44 25 -55 34 -11 9 -33 19 -50 21 -96 15 -277 78 -385 133 -14
7 -41 16 -60 20 -19 4 -44 14 -55 21 -11 8 -26 14 -35 14 -24 0 -113 49 -137
76 -13 14 -23 34 -23 45 0 11 -8 22 -17 25 -62 19 -66 23 -50 47 8 12 17 36
20 52 3 17 15 62 27 100 12 39 24 86 27 105 3 19 14 47 24 62 11 14 19 41 19
60 0 18 10 51 23 72 21 37 27 41 110 62 74 20 98 32 155 78 87 70 291 280 322
331 26 44 74 104 120 150 16 17 36 47 44 67 9 20 20 39 26 43 5 3 10 15 10 26
0 10 9 27 20 36 11 10 20 26 20 36 0 10 8 35 19 55 10 20 26 53 34 72 65 147
70 175 37 217 -11 14 -20 40 -20 57 0 18 -5 37 -12 44 -7 7 -17 31 -24 55 -15
54 -34 108 -45 127 -5 8 -15 26 -21 40 -19 38 -78 123 -96 138 -25 20 -56 14
-98 -18 -21 -16 -44 -30 -50 -30 -6 0 -28 -18 -50 -40 -21 -23 -56 -57 -76
-78 -21 -21 -38 -46 -38 -57 0 -11 -9 -40 -20 -64 -17 -36 -20 -65 -20 -170
l0 -127 -43 -59 c-42 -58 -121 -119 -162 -127 -13 -2 -23 6 -33 27 -8 17 -23
40 -34 52 -28 30 -37 134 -29 321 4 106 2 162 -6 185 -6 17 -12 61 -12 97 -1
45 -7 77 -21 103 -11 20 -20 51 -20 68 0 17 -9 42 -20 56 -11 14 -20 39 -20
55 0 16 -10 42 -22 59 -23 30 -23 31 -3 45 14 11 33 13 63 9 34 -5 50 -2 77
15 19 12 35 27 35 34 0 16 36 49 75 69 26 13 70 68 110 136 5 9 17 28 27 43
10 15 18 34 18 43 0 8 9 24 20 35 11 11 20 28 20 38 0 10 8 29 17 42 18 26 46
121 57 200 4 25 14 73 22 107 10 44 13 95 10 173 -4 104 -7 114 -45 191 -53
105 -125 196 -176 220 -22 11 -51 26 -65 34 -15 9 -37 12 -55 9 -22 -4 -38 1
-57 15 -16 13 -41 21 -66 21 -24 0 -49 8 -65 20 -14 11 -38 20 -53 20 -15 0
-37 9 -48 19 -26 23 -71 32 -111 21z m242 -160 c14 -11 33 -20 42 -20 10 0 32
-16 51 -35 19 -19 42 -35 51 -35 9 0 31 -17 48 -37 58 -69 111 -142 111 -155
0 -6 9 -22 21 -34 15 -16 21 -36 21 -71 1 -26 7 -60 14 -75 8 -15 14 -51 14
-81 0 -85 -27 -136 -170 -319 -12 -16 -16 -29 -10 -33 31 -19 0 -92 -64 -153
-52 -50 -91 -61 -137 -38 -18 9 -36 16 -42 16 -5 0 -23 6 -40 14 -66 28 -84
33 -149 46 -59 12 -69 12 -92 -4 -14 -9 -26 -25 -26 -36 0 -28 -15 -32 -60
-19 -22 7 -42 10 -44 8 -2 -2 -6 -19 -8 -38 -3 -31 0 -35 27 -44 17 -6 42 -19
56 -31 14 -12 47 -33 73 -48 28 -17 50 -39 56 -55 6 -16 17 -41 24 -58 29 -64
56 -141 56 -162 0 -12 9 -46 21 -75 11 -29 27 -93 36 -143 14 -88 14 -91 -8
-132 l-23 -42 27 -25 c19 -18 27 -35 27 -59 0 -77 32 -450 40 -472 5 -13 23
-31 40 -40 19 -10 30 -22 26 -30 -17 -46 -17 -81 3 -104 11 -12 21 -27 23 -32
2 -6 23 -14 46 -20 70 -15 114 4 198 88 40 40 78 73 85 73 6 0 31 12 54 28 33
21 45 35 50 62 4 19 15 49 26 66 15 25 19 53 20 170 2 118 5 143 21 163 10 13
18 36 18 52 0 34 45 89 73 89 11 0 31 10 44 21 l22 22 11 -27 c5 -15 10 -31
10 -35 0 -5 7 -14 15 -21 8 -7 17 -28 21 -49 3 -20 12 -54 19 -76 8 -22 16
-64 20 -94 6 -51 4 -57 -34 -113 -23 -32 -41 -66 -41 -75 0 -21 -43 -129 -72
-180 -13 -22 -44 -64 -71 -94 -26 -30 -70 -90 -99 -134 -62 -96 -156 -191
-224 -225 -49 -25 -78 -43 -135 -81 -24 -16 -47 -21 -102 -22 -40 0 -83 5 -97
12 -63 31 -80 43 -80 59 0 9 -18 44 -40 77 -22 33 -40 65 -40 71 0 6 -6 17
-14 23 -8 7 -18 25 -21 41 -3 16 -12 34 -20 40 -7 6 -16 26 -19 44 -4 19 -13
39 -21 46 -8 7 -15 24 -15 39 0 14 -9 40 -20 56 -11 17 -20 39 -20 50 0 11 -9
34 -20 50 -11 17 -20 41 -20 55 0 14 -9 39 -20 55 -11 17 -20 45 -20 64 0 19
-7 42 -15 51 -9 10 -20 39 -24 66 -11 62 -45 129 -75 149 -13 9 -30 30 -37 48
-22 56 -55 92 -107 116 -44 21 -54 22 -68 10 -22 -18 -12 -103 15 -140 11 -15
23 -40 27 -55 4 -16 13 -38 20 -49 8 -11 14 -30 14 -43 0 -13 9 -35 20 -49 11
-14 20 -40 20 -57 0 -17 9 -51 20 -75 11 -24 20 -55 20 -70 0 -14 9 -39 20
-56 11 -16 20 -43 20 -58 0 -15 8 -42 17 -60 9 -18 20 -50 24 -72 8 -42 32
-118 55 -170 7 -16 16 -41 20 -54 3 -13 27 -45 53 -71 25 -26 64 -68 86 -94
21 -26 48 -58 60 -70 11 -13 35 -40 54 -61 18 -20 37 -54 42 -74 10 -42 2
-260 -10 -311 -5 -19 -14 -64 -21 -99 -6 -36 -24 -87 -38 -114 -15 -27 -35
-65 -46 -85 -10 -20 -33 -62 -51 -92 -23 -39 -32 -63 -28 -82 4 -19 -6 -46
-36 -96 -23 -39 -41 -75 -41 -81 0 -5 -6 -14 -12 -18 -7 -4 -21 -24 -31 -44
-10 -20 -45 -59 -77 -88 -47 -40 -60 -59 -65 -89 -12 -75 -78 -240 -166 -417
-27 -55 -49 -108 -49 -117 0 -10 -9 -22 -19 -28 -11 -5 -23 -20 -27 -32 -3
-13 -13 -31 -22 -41 -8 -9 -20 -26 -26 -36 -11 -19 -186 -318 -209 -356 -24
-42 -127 -193 -185 -275 -34 -47 -65 -94 -70 -105 -52 -112 -146 -295 -152
-295 -6 0 -60 -76 -86 -121 -12 -21 -71 -64 -103 -74 -12 -3 -21 -10 -21 -15
0 -12 -88 -40 -124 -40 -25 0 -40 -10 -70 -45 -22 -25 -44 -45 -50 -45 -6 0
-26 -15 -46 -34 -19 -19 -61 -48 -93 -64 -32 -17 -74 -43 -95 -59 -41 -31 -50
-37 -137 -87 -33 -19 -91 -57 -130 -85 -38 -28 -74 -51 -78 -51 -5 0 -22 -10
-37 -22 -15 -13 -37 -30 -50 -38 -12 -8 -33 -23 -45 -32 -13 -10 -27 -18 -32
-18 -4 0 -37 -27 -73 -60 -36 -33 -69 -60 -74 -60 -4 0 -38 -14 -75 -31 -49
-24 -87 -53 -151 -118 -79 -80 -223 -212 -277 -254 -19 -15 -23 -28 -23 -75 0
-38 -7 -70 -20 -94 -21 -40 -38 -200 -41 -398 -2 -122 11 -202 43 -263 11 -20
18 -49 16 -65 -3 -25 -6 -27 -42 -25 -58 4 -154 71 -156 110 0 6 -18 34 -39
61 -56 70 -72 114 -78 212 -4 60 -12 100 -28 135 -21 43 -38 72 -107 179 -7
11 -24 30 -38 43 -103 96 -114 123 -82 196 16 36 27 47 58 57 22 7 66 25 99
40 33 15 73 32 89 39 15 6 54 31 85 54 31 24 96 69 145 102 49 32 103 70 120
85 17 15 49 39 71 53 79 51 195 177 195 213 0 6 34 49 75 95 41 46 75 88 75
93 0 5 6 16 14 25 53 58 107 123 141 169 22 28 42 52 46 52 3 0 33 27 67 60
33 33 69 60 80 60 11 0 22 7 25 14 3 8 23 18 44 22 21 4 50 13 65 20 15 8 35
14 45 14 9 0 57 12 106 27 74 23 99 37 152 83 34 30 92 80 127 110 59 50 107
115 135 180 37 87 48 107 78 144 19 23 39 53 45 66 6 14 17 36 25 50 8 14 15
36 15 50 0 14 9 39 20 55 11 17 20 39 20 50 0 11 6 29 14 40 7 11 16 42 19 68
4 27 14 58 22 70 8 12 15 36 15 55 0 18 7 46 15 63 9 16 19 59 24 97 5 37 14
80 20 95 6 16 11 39 11 53 0 13 9 41 20 61 11 21 20 47 20 58 0 11 17 54 38
96 34 69 55 101 135 206 34 44 34 70 2 114 -42 55 -54 119 -56 289 l-2 155 41
80 c23 44 42 85 42 91 0 6 9 19 20 29 11 10 20 22 20 27 0 17 81 113 117 138
19 14 51 41 72 62 38 38 139 175 161 218 7 14 26 40 42 58 24 28 27 38 22 75
-3 23 -12 59 -20 80 -8 20 -14 57 -14 80 0 23 -9 59 -20 80 -12 22 -24 72 -29
115 -5 42 -15 106 -24 142 -8 36 -21 92 -27 125 -6 33 -19 87 -27 120 -8 33
-22 94 -31 135 -10 41 -23 85 -30 97 -6 12 -12 31 -12 42 0 11 -6 24 -12 28
-25 15 -56 70 -72 124 -14 44 -15 81 -10 206 5 117 4 156 -6 168 -13 15 -55
20 -84 9 -17 -7 -51 -74 -61 -121 -8 -38 -15 -44 -81 -67 -43 -14 -76 -16
-195 -13 -79 3 -153 7 -164 9 -28 4 -23 -31 12 -83 16 -23 42 -62 58 -88 17
-25 45 -66 63 -90 17 -24 32 -49 32 -56 0 -7 9 -24 20 -38 11 -14 20 -32 20
-41 0 -9 6 -19 14 -22 8 -3 32 -31 54 -62 58 -83 175 -198 209 -205 15 -3 45
-22 66 -41 32 -30 37 -41 37 -78 0 -24 7 -54 16 -66 19 -27 15 -76 -7 -80 -14
-3 -70 20 -130 53 -38 21 -463 456 -558 571 -13 16 -47 55 -75 86 -65 72 -86
100 -86 111 0 5 -31 43 -69 83 -70 73 -91 114 -91 178 0 21 13 42 49 77 41 42
54 49 88 49 27 0 46 6 58 20 13 15 31 20 67 20 27 0 65 7 86 16 27 12 77 17
193 19 100 2 176 9 210 19 30 8 97 18 149 22 102 7 140 22 192 76 27 27 133
78 162 78 9 0 38 20 66 45 28 25 67 53 88 64 48 25 162 124 201 176 17 22 38
49 46 60 8 10 15 25 15 32 0 23 41 96 76 136 29 32 34 44 34 90 1 28 11 122
24 207 21 146 24 157 54 190 18 19 32 40 32 47 0 7 7 13 15 13 8 0 19 9 25 20
6 11 23 23 37 26 15 4 38 13 52 20 14 8 31 14 36 14 6 0 42 16 80 35 82 41 89
41 122 15z m-1382 -1951 c5 -6 11 -50 12 -98 3 -117 -9 -129 -65 -69 -47 50
-86 106 -94 133 -3 11 -9 27 -12 35 -5 13 5 15 71 12 43 -2 82 -8 88 -13z
m1263 -2005 c28 -20 28 -28 -4 -42 -37 -17 -74 -5 -74 23 0 36 40 46 78 19z
m245 -94 c21 -11 46 -20 56 -20 15 0 158 -64 201 -91 8 -5 26 -14 40 -19 14
-6 32 -14 40 -20 8 -5 41 -23 72 -39 31 -17 80 -46 108 -66 27 -19 72 -51 100
-70 27 -19 54 -35 58 -35 5 0 17 -9 27 -20 10 -11 28 -20 40 -20 13 0 28 -7
35 -15 7 -8 18 -15 24 -15 6 0 37 -18 69 -40 31 -22 61 -40 66 -40 4 0 16 -9
26 -20 10 -11 23 -20 30 -20 6 0 36 -17 67 -37 85 -59 91 -62 125 -78 39 -18
97 -75 118 -115 9 -17 20 -30 24 -30 5 0 19 -15 30 -34 25 -39 28 -115 7 -154
-8 -15 -24 -49 -37 -75 -12 -27 -38 -68 -58 -92 -92 -110 -111 -154 -111 -250
0 -51 -4 -76 -14 -84 -8 -7 -18 -27 -21 -44 -4 -18 -13 -39 -20 -47 -7 -8 -15
-31 -19 -51 -4 -21 -13 -42 -21 -49 -8 -7 -15 -24 -15 -39 0 -14 -9 -39 -20
-56 -11 -16 -20 -39 -20 -50 0 -12 -9 -38 -20 -60 -11 -22 -20 -49 -20 -61 0
-11 -9 -29 -20 -39 -11 -10 -20 -30 -20 -44 0 -14 -9 -39 -20 -56 -11 -16 -20
-39 -20 -51 0 -11 -7 -29 -15 -40 -8 -10 -15 -26 -15 -35 0 -9 -9 -28 -20 -42
-11 -14 -20 -33 -20 -42 0 -9 -8 -37 -18 -63 -37 -93 -53 -154 -61 -227 -5
-42 -15 -82 -21 -91 -8 -8 -17 -62 -21 -122 -8 -115 -22 -189 -40 -223 -16
-31 -2 -146 24 -188 11 -19 38 -50 59 -70 21 -20 38 -43 38 -52 0 -9 8 -25 18
-37 20 -25 45 -57 74 -95 25 -34 114 -77 159 -77 31 0 95 -34 102 -55 7 -19
-14 -76 -30 -82 -8 -3 -28 1 -43 11 -16 9 -35 16 -43 16 -27 0 -188 69 -262
112 -101 59 -275 90 -386 70 -72 -14 -123 -1 -167 41 -66 63 -67 164 -2 219
21 18 48 53 60 78 12 25 26 53 32 64 5 10 16 39 23 65 7 25 27 84 44 131 17
47 31 95 31 108 0 13 6 35 14 50 7 15 16 47 20 72 4 25 18 77 32 115 14 39 32
88 40 110 8 22 21 54 29 72 8 17 15 49 15 71 0 22 9 93 20 157 11 64 20 136
20 160 0 62 37 208 71 284 16 35 29 71 29 80 0 9 18 42 40 74 22 31 40 64 40
72 0 17 98 115 115 115 7 0 33 18 59 41 65 58 62 99 -7 103 -16 1 -22 7 -22
26 0 15 -9 29 -23 36 -12 6 -30 18 -40 27 -11 10 -35 17 -58 17 -22 0 -52 9
-69 20 -16 11 -45 20 -63 20 -19 0 -45 9 -59 20 -14 11 -40 20 -58 20 -18 0
-38 7 -45 15 -7 8 -28 17 -49 20 -20 4 -48 13 -63 21 -14 8 -32 14 -40 14 -7
0 -30 9 -51 20 -20 11 -49 20 -64 20 -16 1 -46 8 -68 16 -83 32 -149 44 -176
33 -20 -8 -41 -7 -85 5 -33 8 -94 17 -137 20 -43 2 -84 9 -91 15 -6 5 -43 13
-81 16 -39 4 -96 14 -127 22 -51 14 -119 14 -168 2 -9 -3 -16 5 -18 20 -2 14
-15 41 -28 60 -35 53 -32 102 9 141 17 16 41 33 51 36 32 10 66 55 66 85 0 16
4 29 8 29 9 0 62 77 62 89 0 5 9 16 20 26 11 10 20 26 20 35 0 9 8 24 18 34
11 9 31 41 46 70 15 30 36 56 46 59 10 3 29 22 43 43 36 58 46 63 127 67 117
6 201 -2 243 -23z"></path>
</g>
</svg>