 <svg version="1.0" xmlns="http://www.w3.org/2000/svg" width="700.000000pt" height="961.000000pt" viewBox="0 0 700.000000 961.000000" preserveAspectRatio="xMidYMid meet">
<metadata>
Created by potrace 1.12, written by Peter Selinger 2001-2015
</metadata>
<g transform="translate(0.000000,961.000000) scale(0.100000,-0.100000)" fill="#000000" stroke="none">
<path d="M4134 9181 c-77 -5 -105 -10 -118 -23 -10 -10 -24 -18 -32 -18 -42 0
-114 -87 -114 -138 0 -15 -9 -53 -20 -85 -11 -31 -20 -76 -20 -100 0 -29 -7
-53 -20 -70 -13 -16 -20 -40 -20 -69 0 -26 -8 -55 -20 -73 -22 -34 -25 -71 -9
-112 26 -62 27 -112 5 -196 -31 -117 -91 -202 -282 -399 -57 -59 -110 -122
-118 -140 -9 -18 -33 -64 -55 -103 -22 -38 -52 -95 -67 -125 -15 -30 -38 -78
-52 -106 -22 -44 -24 -54 -14 -84 7 -18 12 -41 12 -51 0 -20 -74 -111 -99
-120 -20 -8 -135 -132 -167 -179 -58 -85 -124 -174 -167 -223 -53 -61 -137
-183 -137 -199 0 -7 -7 -19 -16 -29 -14 -16 -14 -23 2 -86 9 -37 25 -79 35
-92 11 -13 19 -32 19 -41 0 -10 6 -23 14 -29 8 -7 24 -31 36 -53 11 -22 34
-57 51 -78 17 -20 38 -51 47 -69 41 -75 81 -138 96 -150 9 -7 16 -24 16 -37 0
-13 6 -27 13 -31 7 -4 29 -33 49 -63 20 -30 48 -66 62 -79 27 -25 36 -83 16
-96 -6 -4 -24 -36 -40 -73 -17 -37 -35 -74 -40 -82 -5 -8 -16 -29 -24 -46 -8
-17 -19 -35 -25 -38 -6 -4 -11 -24 -11 -45 0 -23 -8 -48 -20 -64 -11 -14 -20
-32 -20 -40 0 -8 -7 -20 -15 -27 -8 -7 -24 -27 -35 -46 l-21 -33 30 -59 c26
-51 31 -76 37 -168 5 -76 13 -120 25 -144 11 -19 19 -53 19 -76 0 -25 6 -47
15 -54 8 -7 15 -18 15 -24 0 -18 55 -92 109 -148 28 -29 51 -59 51 -66 0 -16
39 -73 63 -90 9 -7 17 -21 17 -31 0 -10 9 -26 20 -36 11 -10 20 -28 20 -41 0
-13 4 -25 9 -28 16 -10 53 -95 49 -113 -5 -27 -45 -28 -77 -1 -15 13 -50 37
-77 53 -26 17 -59 38 -73 47 -89 58 -161 73 -217 43 -16 -8 -39 -15 -50 -15
-31 0 -74 -38 -91 -79 -12 -28 -15 -77 -15 -215 1 -142 -2 -183 -13 -200 -8
-11 -15 -33 -15 -49 0 -16 -9 -40 -20 -54 -11 -14 -20 -36 -20 -48 0 -24 -48
-136 -62 -146 -15 -10 -48 -82 -48 -105 0 -12 -9 -33 -20 -47 -51 -64 -10
-163 131 -315 21 -23 39 -48 39 -55 1 -14 33 -52 78 -89 31 -26 38 -27 95 -21
37 3 70 13 82 23 11 9 28 20 38 23 38 14 49 95 17 127 -11 11 -20 28 -20 38 0
9 -9 35 -21 56 -25 46 -22 96 6 111 46 23 85 58 85 75 0 10 7 26 16 35 9 8 26
35 38 58 30 55 87 89 141 83 66 -7 123 -22 149 -40 14 -9 34 -16 45 -16 37 0
86 -55 113 -127 44 -117 61 -193 54 -249 -4 -35 -1 -63 9 -88 22 -51 19 -95
-7 -121 -13 -12 -41 -51 -62 -86 -22 -35 -53 -82 -70 -104 -39 -51 -53 -72
-71 -112 -8 -17 -19 -34 -25 -38 -5 -3 -10 -14 -10 -23 0 -10 -8 -29 -17 -42
-25 -35 -63 -131 -63 -158 0 -12 -9 -39 -20 -59 -14 -26 -20 -57 -20 -99 0
-33 -9 -103 -20 -154 -11 -51 -20 -113 -20 -136 0 -23 -7 -55 -15 -70 -8 -16
-15 -39 -15 -52 0 -13 -7 -36 -15 -51 -8 -16 -19 -56 -24 -90 -5 -33 -17 -71
-25 -83 -9 -12 -16 -34 -16 -48 0 -14 -6 -37 -14 -52 -8 -15 -17 -42 -21 -60
-4 -18 -13 -44 -20 -58 -33 -66 -55 -122 -55 -140 0 -10 -4 -21 -9 -25 -5 -3
-15 -30 -22 -60 -7 -31 -18 -60 -26 -66 -7 -6 -13 -18 -13 -27 0 -9 -9 -34
-19 -56 -33 -69 -61 -189 -61 -258 0 -65 0 -66 43 -100 23 -19 56 -42 72 -50
46 -24 424 -36 870 -28 225 4 424 3 488 -3 121 -11 205 1 238 34 22 22 25 77
7 101 -7 9 -57 26 -113 38 -55 13 -109 31 -120 41 -28 24 -97 59 -116 59 -9 0
-22 7 -29 15 -7 8 -20 15 -30 15 -9 0 -29 9 -43 20 -14 11 -32 20 -40 20 -8 0
-26 9 -40 20 -14 11 -30 20 -36 20 -17 0 -163 81 -201 111 -19 15 -55 32 -78
38 -84 18 -113 74 -72 136 11 17 20 43 20 58 0 16 9 40 20 54 11 14 20 34 20
43 0 10 6 23 14 29 7 6 16 30 19 53 3 23 13 45 21 50 9 5 16 22 16 37 0 15 9
36 20 46 11 10 20 27 20 37 0 11 9 31 20 45 11 14 20 34 20 43 0 10 31 51 70
92 38 40 70 79 70 87 0 7 9 28 19 45 10 17 22 47 26 66 4 19 14 44 21 55 8 11
14 32 14 48 0 16 9 40 20 54 11 14 20 41 20 60 0 18 9 51 20 73 11 22 20 49
20 60 0 11 9 38 20 60 11 22 20 48 20 59 0 26 35 76 93 136 25 26 48 59 52 73
3 14 20 40 38 58 32 33 87 124 108 177 12 30 39 36 59 12 7 -8 23 -15 36 -15
12 0 29 -8 36 -17 22 -30 104 -64 155 -65 76 -2 196 14 225 28 15 8 40 14 55
14 15 0 42 9 58 20 17 11 42 20 56 20 14 0 34 9 44 20 10 11 26 20 36 20 10 0
38 20 63 45 44 46 56 82 56 170 0 18 7 38 15 45 19 16 19 47 0 80 -8 14 -14
44 -15 66 0 26 -8 51 -20 67 -11 14 -20 37 -20 51 0 23 -61 150 -96 200 -8 11
-14 32 -14 46 0 14 -9 43 -19 65 -44 93 -61 133 -61 146 0 8 -6 23 -14 34 -7
11 -16 34 -20 50 -4 17 -13 37 -20 45 -8 8 -16 28 -20 44 -4 15 -14 35 -21 43
-8 8 -15 26 -15 41 0 15 -9 41 -20 57 -11 17 -20 36 -20 43 0 8 -15 40 -34 72
-19 31 -37 71 -41 89 -3 17 -10 33 -14 36 -5 2 -21 31 -36 62 -15 32 -31 65
-36 73 -37 61 -67 105 -84 124 -11 12 -55 73 -98 136 -43 63 -93 135 -112 160
-70 94 -115 164 -115 181 0 25 -38 97 -72 137 -15 18 -30 42 -32 55 -9 48 -28
268 -23 273 7 7 86 -16 112 -32 11 -7 43 -16 70 -19 29 -4 71 -20 100 -39 66
-41 170 -49 231 -17 21 12 50 21 63 21 13 0 43 16 67 35 23 19 50 35 59 35 20
0 89 38 120 65 81 72 85 76 109 123 30 59 15 120 -48 197 -46 56 -80 87 -140
128 -33 23 -47 27 -78 22 -25 -5 -38 -3 -38 4 0 21 -64 51 -108 51 -38 0 -59
-8 -142 -51 -61 -33 -121 -59 -132 -59 -7 0 -26 7 -43 16 -16 9 -46 20 -65 23
-27 5 -36 12 -38 29 -2 13 3 31 12 41 9 10 19 45 22 82 4 35 12 75 19 89 7 14
15 62 18 107 4 46 13 96 22 112 8 17 15 50 15 74 0 25 7 64 15 87 9 26 15 78
15 132 0 63 6 105 20 145 35 100 17 310 -35 409 -8 16 -15 37 -15 46 0 22 -46
112 -65 128 -8 7 -15 19 -15 26 0 16 -52 113 -81 153 -17 23 -18 33 -9 79 9
50 25 92 35 92 3 0 34 -16 69 -35 81 -44 165 -49 211 -13 29 23 67 99 79 157
3 19 19 55 35 82 17 26 33 63 36 83 4 19 13 40 21 47 8 6 14 27 14 46 0 18 7
45 16 59 14 20 18 60 22 194 4 157 3 171 -16 204 -11 19 -28 63 -37 97 -39
155 -176 333 -305 398 -69 34 -93 35 -336 22z m257 -160 c57 -26 139 -111 178
-185 17 -33 35 -64 40 -70 5 -6 13 -25 17 -41 4 -17 14 -40 22 -53 10 -16 16
-63 20 -155 4 -121 3 -138 -17 -181 -11 -27 -21 -58 -21 -70 0 -11 -9 -39 -19
-61 -29 -60 -61 -148 -61 -166 0 -9 -9 -24 -20 -34 -11 -10 -20 -24 -20 -32 0
-27 -30 -25 -69 6 -21 17 -48 31 -59 31 -11 0 -25 7 -32 16 -17 19 -88 54
-111 54 -26 0 -69 -57 -69 -91 0 -33 -39 -108 -75 -143 -26 -26 -41 -118 -27
-157 13 -33 57 -79 76 -79 9 0 22 -15 31 -32 8 -18 18 -40 23 -48 26 -46 82
-159 111 -225 13 -27 27 -58 32 -68 40 -75 60 -156 60 -243 0 -99 -14 -150
-55 -194 -29 -31 -56 -83 -56 -108 0 -11 -9 -39 -19 -63 -12 -28 -21 -79 -25
-137 -3 -54 -12 -102 -20 -115 -8 -12 -18 -60 -22 -105 -4 -55 -11 -85 -20
-89 -16 -6 -104 26 -104 39 0 4 -11 13 -24 18 -13 5 -32 21 -43 35 -10 14 -33
44 -50 66 -39 48 -43 91 -13 146 11 21 20 50 20 64 0 15 6 44 13 65 8 22 17
65 21 98 3 32 13 68 21 79 9 12 15 44 15 72 0 27 4 65 10 83 9 34 72 136 90
147 11 7 2 64 -13 83 -17 22 -49 2 -132 -82 -70 -72 -83 -91 -103 -151 -13
-41 -24 -102 -26 -148 -2 -54 -8 -83 -20 -95 -9 -11 -16 -36 -16 -59 0 -23 -9
-60 -20 -84 -11 -24 -20 -52 -20 -62 0 -11 -7 -35 -16 -54 -15 -30 -15 -39 -3
-75 7 -23 23 -53 35 -67 12 -14 35 -53 52 -86 17 -33 48 -73 68 -90 20 -16 44
-37 53 -46 9 -8 34 -26 56 -39 22 -13 54 -38 70 -54 39 -39 84 -71 113 -80 12
-4 22 -11 22 -16 0 -4 48 -32 107 -61 73 -36 119 -53 143 -52 85 2 180 20 198
36 29 27 104 22 158 -9 24 -14 44 -28 44 -31 0 -3 -18 -25 -40 -49 -22 -24
-40 -50 -40 -58 0 -7 -15 -25 -34 -39 -33 -26 -33 -26 -219 -23 -114 1 -191 7
-199 13 -7 6 -42 23 -78 37 -36 15 -78 33 -95 40 -16 8 -55 24 -85 36 -30 12
-73 31 -96 41 -23 11 -45 19 -50 19 -8 0 -123 54 -174 81 -8 4 -46 24 -85 44
-38 20 -77 40 -85 45 -8 5 -58 30 -112 56 -82 40 -99 52 -113 83 -16 36 -15
38 16 106 29 62 33 84 40 195 6 105 11 135 34 185 19 41 27 76 27 109 -1 28 6
93 14 145 9 53 20 134 25 181 6 47 15 89 20 94 5 6 9 26 8 45 0 20 -3 29 -6
21 -6 -15 -23 -30 -35 -30 -3 0 -19 11 -35 24 -16 14 -42 28 -56 32 -33 8 -47
31 -47 79 0 19 -7 52 -15 72 -8 19 -15 54 -15 77 0 34 8 49 40 84 22 24 40 50
40 58 0 8 23 39 52 69 28 30 57 67 63 82 7 16 44 61 84 102 40 41 88 98 106
126 18 29 48 68 67 87 83 85 99 139 67 221 -18 45 -19 59 -11 102 6 28 14 70
18 95 3 25 15 56 25 69 11 13 19 36 19 51 0 15 9 47 20 71 11 24 20 54 20 65
0 12 7 27 15 34 8 7 15 21 15 31 0 10 10 29 23 43 12 14 34 43 49 65 16 22 39
42 55 46 16 3 35 13 44 21 9 8 34 18 55 21 22 3 54 19 72 35 39 33 38 33 93 9z
m-1137 -1917 c3 -9 6 -71 6 -138 l0 -123 -33 -44 c-43 -57 -70 -131 -64 -172
7 -46 -11 -143 -34 -189 -21 -42 -20 -75 7 -126 8 -15 14 -32 14 -38 0 -5 16
-27 35 -48 36 -40 43 -72 24 -108 -8 -16 -8 -31 2 -60 11 -35 11 -40 -11 -63
-28 -30 -64 -32 -103 -7 -27 19 -77 79 -77 94 0 5 -15 30 -33 56 -18 26 -36
54 -39 63 -4 9 -36 55 -72 102 -36 47 -66 92 -66 100 0 9 -18 37 -40 62 -79
91 -51 165 128 340 88 86 186 165 204 165 13 0 78 50 78 60 0 12 53 90 61 90
4 0 10 -7 13 -16z m217 -1227 c20 -7 43 -18 51 -25 8 -6 29 -15 46 -18 17 -4
37 -13 43 -20 6 -8 26 -14 43 -14 17 0 42 -7 55 -17 13 -9 44 -20 69 -24 24
-5 96 -34 159 -64 63 -30 118 -55 122 -55 15 0 90 -86 96 -110 10 -41 -143
-332 -192 -366 -13 -8 -23 -23 -23 -32 0 -9 -8 -30 -18 -47 -24 -42 -23 -262
2 -299 9 -14 16 -40 16 -58 0 -19 7 -43 15 -55 22 -31 54 -139 61 -203 6 -65
39 -210 60 -263 8 -20 14 -49 14 -63 0 -13 9 -42 20 -64 11 -22 20 -51 20 -65
0 -14 9 -51 20 -82 11 -32 20 -70 20 -86 0 -15 6 -40 14 -55 7 -15 16 -53 19
-84 3 -32 13 -68 21 -80 10 -13 16 -43 16 -75 0 -29 9 -75 21 -105 22 -57 21
-107 -6 -159 -21 -39 -18 -86 6 -139 18 -39 21 -65 22 -187 1 -132 -1 -145
-21 -173 -12 -16 -22 -32 -22 -36 0 -3 -18 -24 -40 -45 -22 -22 -40 -46 -40
-55 0 -14 -15 -49 -42 -94 -4 -8 -17 -33 -28 -55 -31 -60 -47 -87 -57 -94 -5
-3 -19 -28 -32 -56 -12 -27 -31 -67 -41 -87 -11 -20 -20 -46 -20 -57 0 -11 -4
-22 -9 -26 -5 -3 -17 -30 -25 -60 -9 -30 -21 -57 -26 -60 -6 -3 -10 -18 -10
-33 0 -15 -9 -42 -20 -60 -11 -18 -20 -42 -20 -55 0 -12 -9 -42 -20 -66 -11
-24 -20 -51 -20 -60 -1 -9 -9 -34 -20 -56 -11 -22 -19 -48 -20 -59 0 -10 -16
-49 -36 -87 -34 -64 -75 -106 -117 -122 -10 -4 -25 -24 -34 -44 -8 -21 -21
-42 -29 -46 -8 -4 -14 -23 -14 -41 0 -19 -6 -39 -14 -45 -8 -7 -17 -27 -20
-45 -4 -19 -13 -37 -21 -40 -9 -3 -15 -18 -15 -35 0 -16 -9 -48 -20 -72 -11
-24 -20 -58 -20 -76 0 -17 -5 -44 -11 -59 -23 -61 39 -144 118 -160 18 -3 40
-15 49 -25 9 -11 24 -19 31 -19 8 0 34 -16 57 -35 24 -19 51 -35 60 -35 9 0
24 -9 33 -20 10 -11 26 -20 37 -20 11 0 27 -7 37 -16 10 -9 33 -19 51 -23 24
-5 33 -12 33 -26 0 -19 -7 -20 -90 -18 -49 2 -218 4 -375 6 -157 2 -292 6
-300 9 -8 4 -27 9 -42 12 -32 7 -61 54 -47 77 5 8 9 26 9 40 0 14 15 46 33 70
19 24 37 58 41 74 4 17 22 59 41 95 18 36 36 88 40 115 4 28 12 58 17 68 5 9
13 86 18 170 6 117 16 182 39 275 17 67 31 132 31 143 0 12 8 40 19 63 39 85
61 153 61 185 0 19 6 57 14 85 8 28 20 87 25 131 8 54 22 103 46 152 19 39 35
76 35 80 0 5 47 57 104 115 57 58 107 116 111 129 4 13 14 32 22 41 23 26 35
169 21 253 -7 39 -13 97 -14 130 0 33 -6 73 -13 88 -6 16 -11 54 -11 86 0 37
-5 63 -14 70 -7 6 -25 39 -40 74 -15 34 -33 73 -40 87 -8 14 -17 40 -21 58 -4
18 -20 62 -36 97 -16 36 -38 95 -50 132 -11 38 -28 88 -36 113 -8 25 -18 66
-23 92 -5 25 -16 60 -24 77 -9 17 -16 55 -16 88 0 32 -9 95 -20 141 -11 46
-20 92 -20 102 0 19 -96 110 -116 110 -7 0 -27 24 -45 53 -18 28 -39 55 -45
60 -7 4 -15 20 -19 35 -3 16 -19 40 -36 53 -83 66 -100 83 -122 123 -50 90
-58 128 -41 209 11 51 23 81 43 102 15 17 40 50 56 74 16 24 51 66 77 94 26
28 50 63 53 78 3 15 15 35 26 45 10 9 19 25 19 34 0 10 7 23 15 30 8 7 15 18
15 24 0 6 9 28 20 49 11 20 20 48 20 62 0 13 9 41 19 62 11 21 23 60 27 87 7
53 39 116 57 116 7 0 28 -6 48 -13z m654 -638 c14 -84 -21 -233 -53 -227 -24
5 -38 74 -23 113 6 17 11 44 11 60 0 28 35 95 50 95 5 0 11 -18 15 -41z m242
-539 c68 -80 134 -161 148 -180 14 -19 41 -55 60 -80 19 -25 50 -72 70 -105
19 -33 49 -78 65 -100 16 -22 52 -85 80 -140 27 -55 54 -107 58 -115 51 -93
82 -192 82 -264 0 -55 44 -146 109 -226 32 -40 37 -53 44 -125 4 -44 8 -94 8
-111 -1 -38 21 -95 43 -114 24 -19 21 -96 -4 -127 -11 -14 -20 -33 -20 -42 -1
-15 -44 -46 -159 -113 -39 -23 -58 -27 -124 -28 -89 0 -110 8 -132 50 -14 26
-21 30 -60 30 -24 0 -47 5 -51 11 -4 6 -35 24 -69 40 -73 33 -80 40 -90 99
-13 77 -10 117 10 139 27 31 66 26 118 -14 53 -41 85 -44 151 -15 66 30 63 53
-18 138 -85 89 -105 111 -209 230 -117 134 -137 188 -137 364 0 72 -6 144 -14
177 -18 69 -53 266 -61 344 -4 32 -13 74 -21 92 -8 19 -14 45 -14 57 -1 13 -9
41 -20 63 -11 22 -19 53 -20 68 0 15 -7 41 -15 57 -14 27 -13 30 11 60 15 17
34 30 43 28 8 -2 71 -68 138 -148z m-1401 -676 c21 -9 77 -46 124 -83 47 -36
96 -74 110 -82 40 -26 100 -89 100 -104 0 -8 15 -21 33 -28 44 -19 67 -48 88
-109 25 -75 12 -85 -61 -48 -51 26 -111 25 -163 -2 -23 -12 -50 -25 -59 -30
-35 -16 -64 -33 -98 -59 -49 -37 -131 -79 -153 -79 -28 0 -77 -54 -77 -86 0
-15 -11 -51 -25 -81 -15 -30 -27 -75 -29 -100 -3 -50 -20 -68 -31 -34 -3 12
-10 21 -15 21 -13 0 -70 82 -70 101 0 9 40 59 90 110 49 52 90 99 90 105 0 6
11 32 25 58 19 37 25 63 26 119 1 77 -8 144 -21 152 -5 3 -16 30 -25 60 -17
51 -17 57 1 115 14 46 25 65 48 80 38 24 44 24 92 4z"></path>
<path d="M3576 7284 c-3 -9 -6 -28 -6 -42 l1 -27 14 25 c16 28 19 60 6 60 -5
0 -12 -7 -15 -16z"></path>
<path d="M3792 2686 c1 -10 8 -17 13 -17 15 1 12 24 -3 29 -9 3 -13 -2 -10
-12z"></path>
</g>
</svg>