 <svg version="1.0" xmlns="http://www.w3.org/2000/svg" width="700.000000pt" height="961.000000pt" viewBox="0 0 700.000000 961.000000" preserveAspectRatio="xMidYMid meet">
<metadata>
Created by potrace 1.12, written by Peter Selinger 2001-2015
</metadata>
<g transform="translate(0.000000,961.000000) scale(0.100000,-0.100000)" fill="#000000" stroke="none">
<path d="M4555 9271 c-64 -5 -75 -10 -127 -51 -31 -25 -60 -53 -63 -63 -11
-29 -56 -77 -89 -93 -72 -34 -84 -46 -113 -106 -27 -55 -31 -77 -36 -171 -3
-59 -9 -113 -15 -120 -5 -6 -15 -28 -21 -47 -32 -108 -51 -145 -99 -193 -28
-29 -54 -63 -57 -77 -3 -14 -12 -32 -18 -40 -18 -23 -74 -60 -90 -60 -8 0 -26
-9 -40 -20 -14 -11 -31 -20 -37 -20 -7 0 -27 -8 -44 -19 -17 -10 -51 -22 -76
-25 -58 -9 -86 -28 -99 -68 -8 -24 -29 -44 -73 -73 -79 -52 -75 -49 -133 -73
-65 -26 -97 -40 -115 -51 -8 -5 -26 -14 -40 -20 -14 -6 -32 -15 -40 -20 -8 -5
-26 -14 -40 -20 -14 -6 -32 -15 -40 -20 -8 -5 -44 -21 -80 -36 -36 -14 -72
-30 -80 -36 -8 -5 -26 -14 -40 -19 -14 -6 -32 -15 -40 -20 -8 -6 -26 -16 -40
-23 -75 -37 -180 -140 -180 -177 0 -5 -24 -30 -54 -57 -48 -43 -54 -53 -60
-101 -5 -41 -3 -59 11 -82 15 -26 15 -36 4 -95 -12 -58 -11 -69 4 -103 10 -20
23 -44 30 -52 7 -8 16 -26 20 -39 4 -13 22 -50 41 -82 19 -31 34 -65 34 -73 0
-14 31 -79 99 -206 41 -77 51 -102 51 -123 0 -14 7 -30 15 -37 8 -7 15 -18 15
-25 0 -6 8 -20 19 -29 10 -9 21 -29 24 -44 4 -15 22 -45 42 -66 19 -22 35 -45
35 -51 0 -7 9 -20 20 -30 11 -10 20 -22 20 -27 0 -4 16 -30 35 -57 40 -56 45
-96 15 -134 -11 -14 -20 -28 -20 -32 0 -16 -118 -154 -201 -235 -99 -97 -156
-174 -176 -239 -7 -24 -18 -50 -23 -57 -7 -8 -10 -98 -8 -264 l3 -252 27 -19
c14 -11 39 -40 53 -66 l27 -46 -12 -136 c-8 -75 -14 -163 -14 -196 0 -77 28
-291 44 -330 12 -29 32 -209 32 -290 0 -22 -4 -77 -9 -122 -10 -95 -31 -126
-97 -144 -55 -15 -150 -7 -174 14 -29 27 -149 67 -198 67 -30 0 -67 -10 -108
-29 -33 -16 -74 -33 -91 -37 -16 -4 -50 -16 -74 -27 -41 -18 -68 -20 -327 -19
-261 0 -286 1 -326 20 -76 35 -121 50 -218 72 -52 12 -126 30 -165 41 -38 10
-116 21 -173 24 -93 5 -106 4 -136 -15 -60 -36 -69 -61 -70 -185 -1 -87 -5
-116 -19 -135 -9 -13 -17 -32 -17 -41 0 -9 -9 -24 -20 -34 -11 -10 -20 -26
-20 -35 0 -10 -9 -29 -20 -43 -11 -14 -20 -32 -20 -40 0 -7 -9 -22 -20 -32
-11 -10 -20 -30 -20 -45 0 -15 -7 -33 -15 -40 -8 -7 -15 -19 -15 -28 0 -8 -8
-29 -19 -46 -10 -17 -22 -42 -26 -56 -4 -14 -23 -51 -43 -84 l-35 -58 6 -102
c3 -56 15 -132 26 -171 12 -38 21 -84 21 -101 0 -19 8 -38 23 -51 12 -11 35
-37 51 -58 33 -42 85 -68 121 -59 34 8 72 62 84 120 24 120 38 143 160 267 64
65 140 134 169 154 28 19 52 38 52 43 0 4 26 21 57 36 55 28 61 29 187 26 74
-1 157 -9 191 -18 33 -8 119 -17 190 -20 77 -3 147 -12 172 -21 24 -8 76 -18
115 -23 40 -4 87 -12 103 -18 17 -6 57 -17 90 -24 33 -6 71 -18 85 -25 14 -7
44 -13 68 -13 23 0 59 -7 80 -16 38 -16 178 -37 242 -37 19 1 64 4 100 8 48 5
79 3 117 -8 32 -10 117 -19 210 -23 151 -6 161 -6 238 19 149 47 245 117 245
179 0 17 13 42 33 65 60 69 77 113 84 231 4 75 12 117 25 142 10 19 18 42 18
50 0 8 6 27 14 41 7 14 17 48 21 75 4 27 13 61 21 76 8 15 14 49 14 75 0 29 8
63 20 86 11 20 20 50 20 66 0 16 7 34 15 41 17 14 19 12 88 -47 32 -29 44 -33
92 -33 50 0 59 -4 98 -39 23 -21 52 -42 65 -45 12 -4 22 -11 22 -16 0 -5 19
-19 42 -31 23 -12 90 -69 148 -127 58 -57 123 -113 145 -123 83 -38 145 -134
160 -249 4 -34 21 -82 45 -126 21 -39 41 -91 45 -115 4 -24 16 -61 26 -81 11
-21 19 -57 19 -80 0 -24 5 -59 10 -78 6 -19 12 -80 14 -135 3 -59 11 -115 20
-137 9 -21 16 -66 16 -102 0 -36 9 -92 20 -128 11 -34 20 -88 20 -118 0 -34 6
-64 16 -78 8 -12 18 -48 21 -80 3 -31 14 -74 24 -94 11 -21 19 -49 19 -63 0
-14 9 -42 20 -62 12 -23 20 -57 20 -88 0 -27 5 -68 11 -90 6 -22 15 -70 20
-108 6 -46 19 -83 40 -118 29 -47 32 -58 40 -187 4 -75 5 -167 2 -204 -5 -55
-2 -76 16 -117 11 -27 21 -56 21 -64 0 -9 16 -39 35 -68 19 -30 35 -61 35 -70
0 -10 22 -36 49 -58 43 -37 54 -41 101 -41 66 0 194 60 289 134 96 76 203 101
477 115 186 9 226 23 278 101 17 25 63 77 102 115 69 67 81 87 87 145 2 23 -1
25 -33 22 -90 -7 -103 -6 -118 16 -17 26 -55 28 -126 7 -77 -23 -163 -19 -211
10 -22 14 -54 25 -70 25 -17 0 -48 9 -70 20 -22 11 -45 20 -52 20 -8 0 -25 7
-39 17 -14 9 -38 23 -53 32 -126 71 -169 126 -176 220 -3 31 -4 129 -4 219 0
103 -5 192 -15 245 -24 129 -47 346 -57 530 -7 144 -12 173 -29 197 -35 49
-51 168 -44 321 6 124 5 139 -15 183 -15 35 -21 69 -21 122 0 44 -8 104 -20
146 -30 109 -27 178 11 244 l30 53 -19 43 c-11 24 -51 75 -89 114 -37 40 -88
98 -113 129 -25 32 -137 146 -249 254 -112 108 -212 209 -221 224 -65 105
-574 644 -637 674 -49 23 -61 58 -34 105 12 20 21 50 21 66 0 16 6 35 14 41 8
6 17 31 20 56 4 24 14 49 21 55 9 8 15 30 15 57 0 24 7 58 16 75 9 17 18 62
20 99 2 38 10 81 18 97 13 26 13 32 1 48 -19 25 -19 78 0 94 8 7 15 20 15 29
0 9 6 26 13 37 43 76 67 129 67 149 0 30 15 44 95 91 97 57 125 74 191 119
117 80 146 94 204 95 32 0 72 9 95 20 22 11 59 19 81 20 24 0 47 6 54 15 7 8
18 15 25 15 7 0 29 13 50 30 20 16 44 32 53 35 24 7 62 78 62 113 0 16 9 41
20 55 11 14 20 34 20 46 0 11 9 38 21 60 29 55 19 86 -46 155 -55 57 -55 57
-55 122 l0 64 -41 26 c-35 22 -45 24 -71 15 -17 -6 -54 -11 -83 -11 -105 0
-143 -10 -189 -52 -28 -24 -47 -50 -51 -71 -11 -47 -52 -124 -70 -131 -9 -3
-37 -6 -62 -6 -25 0 -83 -8 -128 -17 -100 -21 -135 -12 -135 35 0 15 4 32 9
38 5 5 16 54 25 109 9 55 20 120 25 145 6 25 10 82 11 128 0 54 6 96 16 120 9
20 20 62 25 92 6 45 4 62 -13 102 -25 59 -16 106 24 125 30 15 43 43 62 136
17 83 28 97 59 77 13 -8 58 -16 109 -18 84 -4 88 -4 112 23 22 24 30 26 66 20
39 -7 40 -6 40 23 0 16 9 37 20 47 11 10 20 27 20 37 0 21 30 90 96 220 l45
88 -1 132 c-1 112 2 141 20 186 18 48 19 55 5 75 -8 12 -15 29 -15 39 0 25
-43 102 -79 140 -17 18 -34 41 -37 51 -3 9 -9 17 -14 17 -5 0 -12 9 -15 20
-10 33 -55 80 -76 80 -11 0 -27 9 -36 20 -10 11 -26 20 -37 20 -11 0 -29 8
-40 19 -25 22 -138 32 -251 22z m207 -203 c52 -36 112 -100 136 -146 17 -33
22 -60 22 -120 0 -59 5 -84 20 -107 10 -16 22 -53 26 -82 5 -43 2 -60 -15 -93
-11 -22 -21 -50 -21 -61 0 -12 -9 -32 -20 -46 -11 -14 -20 -38 -20 -52 0 -15
-6 -36 -14 -46 -8 -11 -18 -41 -23 -65 -8 -44 -9 -45 -51 -48 -31 -2 -53 3
-80 20 -32 20 -49 23 -123 22 -74 -1 -92 -5 -133 -29 -26 -15 -55 -39 -64 -53
-48 -73 -85 -91 -96 -46 -10 39 -53 91 -80 96 -27 5 -54 -6 -73 -30 -18 -22
-16 -97 2 -112 8 -7 15 -20 15 -30 0 -9 9 -29 20 -43 11 -14 20 -33 20 -42 0
-9 15 -35 34 -58 27 -34 36 -56 45 -117 7 -41 12 -86 12 -100 -5 -204 -9 -259
-26 -302 l-17 -48 -57 0 c-52 0 -59 -3 -79 -29 -16 -22 -20 -37 -15 -66 7 -43
38 -60 90 -50 29 5 34 3 43 -20 6 -17 6 -41 -2 -74 -8 -35 -8 -64 -1 -101 7
-34 7 -64 1 -88 -19 -72 -20 -109 -4 -141 46 -89 196 -105 314 -34 54 33 62
35 152 37 110 1 157 21 172 71 16 51 56 130 75 146 11 10 46 19 89 23 61 6 72
4 88 -12 28 -32 31 -83 7 -130 -12 -23 -21 -47 -21 -54 0 -8 -9 -31 -20 -53
-11 -22 -20 -47 -20 -57 0 -10 -11 -25 -25 -34 -14 -9 -40 -31 -58 -49 -31
-31 -35 -32 -146 -39 -66 -4 -126 -13 -142 -22 -16 -8 -39 -14 -52 -14 -14 0
-41 -15 -63 -36 -46 -42 -76 -59 -124 -69 -19 -4 -49 -16 -66 -26 -17 -10 -39
-19 -49 -19 -9 0 -28 -9 -42 -20 -14 -11 -40 -20 -57 -21 -17 0 -40 -4 -51 -8
-11 -5 -42 -2 -70 5 -27 8 -89 14 -137 14 -72 0 -89 3 -97 17 -13 25 -1 242
16 276 7 15 17 27 22 27 11 0 31 71 31 111 0 19 -7 66 -15 104 -21 96 -31 364
-16 435 7 30 15 67 18 82 9 45 -16 94 -81 161 -103 107 -162 123 -222 63 -32
-32 -34 -38 -34 -102 0 -40 -7 -89 -17 -117 -24 -68 -13 -83 60 -79 53 4 56 2
71 -27 18 -34 20 -110 6 -216 -5 -38 -10 -182 -11 -320 -1 -187 -5 -257 -15
-277 -23 -44 -17 -90 16 -135 17 -23 34 -63 40 -94 13 -69 37 -107 89 -144 38
-27 51 -30 118 -31 98 -1 109 -16 77 -110 -18 -54 -14 -83 21 -158 38 -81 35
-170 -9 -257 -18 -36 -37 -76 -41 -89 -4 -14 -15 -36 -25 -50 -56 -85 -93
-145 -133 -222 -26 -47 -56 -103 -68 -125 -12 -21 -31 -55 -41 -76 -17 -33
-67 -89 -128 -141 -21 -17 -22 -24 -15 -100 8 -101 8 -165 -2 -391 -6 -141
-12 -187 -26 -212 -9 -18 -17 -53 -17 -78 0 -25 -7 -59 -15 -75 -9 -16 -18
-51 -22 -77 -3 -27 -12 -57 -18 -68 -7 -11 -16 -42 -20 -70 -4 -27 -13 -58
-21 -69 -9 -14 -14 -49 -14 -111 0 -63 -5 -99 -16 -120 -9 -16 -18 -57 -21
-90 -4 -36 -13 -70 -24 -84 -11 -14 -19 -40 -19 -63 0 -21 -7 -52 -15 -68 -8
-15 -18 -55 -21 -87 -4 -32 -14 -67 -23 -78 -10 -11 -29 -39 -44 -63 -24 -36
-31 -41 -53 -36 -16 4 -31 1 -42 -9 -26 -23 -91 -37 -194 -42 -51 -2 -147 -7
-213 -10 -103 -5 -128 -3 -175 14 -30 11 -88 22 -128 25 -41 3 -84 11 -96 19
-12 8 -55 16 -98 18 -51 3 -82 10 -95 20 -19 17 -80 28 -193 34 -36 2 -85 10
-109 19 -24 9 -58 16 -75 16 -18 0 -37 5 -44 12 -8 8 -87 13 -254 15 -202 4
-246 7 -260 20 -13 12 -21 13 -31 4 -10 -8 -29 -8 -72 0 -50 9 -60 8 -67 -5
-5 -9 -15 -16 -22 -16 -8 0 -38 -18 -67 -40 -30 -22 -61 -40 -70 -40 -9 0 -24
-9 -34 -20 -10 -11 -26 -20 -35 -20 -9 0 -37 -20 -61 -45 -24 -25 -49 -45 -56
-45 -6 0 -47 -35 -90 -78 -43 -44 -105 -103 -137 -132 -55 -49 -60 -52 -73
-34 -20 27 -16 87 7 117 11 14 20 34 20 44 0 10 9 26 20 36 11 9 20 28 20 41
0 13 7 29 15 36 8 7 15 19 15 27 0 8 9 31 19 51 11 20 24 48 30 62 6 14 15 32
19 40 5 8 14 24 20 35 6 11 31 55 57 98 56 95 60 116 45 205 -13 81 -4 111 50
150 34 25 41 25 163 2 57 -10 319 -129 332 -150 3 -5 14 -10 24 -10 9 0 33
-12 52 -26 22 -16 42 -24 59 -21 13 3 74 -2 135 -10 131 -17 284 -11 365 17
99 33 500 45 556 17 16 -8 58 -17 93 -21 70 -7 114 -28 174 -85 48 -45 67 -36
84 40 9 40 20 60 44 80 l33 26 -3 104 c-2 80 1 109 13 124 18 23 20 119 5 235
-5 41 -13 145 -18 231 -5 85 -17 209 -26 274 -17 116 -16 159 5 270 14 77 12
169 -5 201 -8 16 -15 37 -15 46 0 9 -17 38 -37 65 l-38 48 1 136 c2 117 5 141
23 174 12 22 21 43 21 47 0 11 42 70 70 100 14 14 50 43 80 63 63 43 109 92
110 117 0 34 55 121 91 145 21 13 42 36 48 51 18 44 51 183 51 214 0 16 9 46
20 68 11 22 20 54 20 72 1 18 7 44 15 58 10 17 14 58 15 132 0 76 5 120 16
149 15 35 15 48 4 94 -11 47 -11 60 3 97 21 55 21 73 -3 123 -15 33 -18 54
-13 120 3 44 11 87 18 95 7 8 15 45 17 82 2 41 10 74 20 85 8 10 18 41 21 68
3 28 13 64 21 80 9 18 16 55 16 92 0 34 4 73 10 87 5 14 11 50 13 81 5 63 19
85 56 85 42 0 49 14 44 88 l-5 67 45 38 c25 20 49 37 54 38 4 0 28 16 53 35
25 18 56 39 69 44 14 6 40 26 58 45 55 56 124 105 150 105 13 0 37 10 54 22
34 25 79 100 79 132 0 11 9 36 20 54 11 18 20 44 20 59 0 15 7 34 16 44 9 10
18 47 22 91 6 59 14 82 40 120 18 26 48 59 67 73 18 15 38 40 44 56 6 17 24
50 41 75 16 25 33 62 36 83 4 22 19 53 35 70 l28 31 120 0 c108 0 123 -2 153
-22z m-1505 -1370 c4 -7 6 -89 4 -182 -3 -143 -6 -176 -22 -205 -10 -20 -19
-43 -19 -52 0 -8 -11 -26 -25 -39 -14 -13 -25 -29 -25 -36 0 -25 -20 -25 -30
0 -5 15 -17 26 -28 26 -26 0 -86 -48 -116 -92 -46 -68 -48 -76 -36 -116 14
-45 53 -122 61 -122 4 0 14 12 24 26 l17 26 29 -28 c16 -16 42 -49 57 -74 25
-42 27 -52 27 -165 0 -66 -5 -147 -12 -180 -7 -33 -15 -77 -18 -97 -4 -29 -11
-38 -25 -38 -10 0 -21 9 -25 19 -3 11 -12 22 -20 25 -8 3 -15 12 -15 21 0 16
-31 64 -62 97 -10 10 -18 26 -18 37 0 10 -6 24 -14 31 -8 6 -25 41 -36 76 -12
36 -32 77 -44 92 -72 89 -196 315 -216 391 -16 64 -43 136 -57 152 -30 36 -2
84 79 135 35 21 72 45 83 52 11 7 38 21 60 32 22 11 60 33 85 49 25 16 52 30
61 30 9 1 28 10 41 21 14 11 36 24 49 30 13 5 31 14 39 19 22 13 113 49 127
50 6 1 15 -5 20 -11z m-109 -665 c3 -53 -14 -81 -43 -69 -23 8 -21 102 3 115
28 17 37 7 40 -46z m980 -2246 c21 -14 52 -39 69 -56 18 -17 36 -31 42 -31 6
0 11 -4 11 -10 0 -5 12 -13 28 -16 15 -4 41 -14 57 -22 44 -22 203 -180 233
-232 54 -94 82 -127 308 -365 215 -227 224 -237 238 -270 7 -16 29 -47 47 -68
19 -21 47 -52 63 -70 15 -18 34 -43 41 -57 25 -50 45 -153 45 -240 0 -55 6
-101 15 -123 19 -46 19 -100 1 -171 -22 -82 -23 -596 -2 -628 22 -33 26 -256
7 -323 -8 -27 -21 -58 -29 -67 -33 -39 25 -302 113 -513 22 -50 46 -178 49
-251 2 -58 9 -81 42 -144 21 -41 44 -78 49 -83 6 -4 34 -6 62 -5 51 1 54 0
110 -54 32 -30 91 -76 130 -103 70 -46 74 -47 125 -41 29 4 61 14 70 23 12 11
41 17 91 18 41 2 83 6 94 9 24 8 53 -16 53 -44 0 -28 -47 -60 -90 -60 -21 0
-55 -6 -77 -14 -22 -8 -73 -19 -114 -25 -41 -6 -95 -19 -120 -28 -43 -15 -50
-15 -103 2 -54 17 -58 17 -99 0 -23 -9 -49 -21 -57 -26 -8 -5 -25 -13 -37 -18
-12 -6 -25 -16 -30 -23 -14 -23 -105 -78 -130 -78 -19 0 -23 5 -23 30 0 36
-16 45 -55 30 -49 -19 -91 -3 -120 45 -24 42 -25 51 -29 243 -5 204 -13 263
-47 318 -11 18 -19 50 -19 75 0 25 -8 60 -19 79 -11 21 -20 65 -23 110 -3 41
-13 89 -22 105 -9 17 -16 45 -16 63 0 18 -7 46 -15 61 -8 16 -17 48 -21 72 -3
24 -12 61 -20 82 -8 20 -14 59 -14 85 -1 26 -9 65 -20 87 -13 28 -19 62 -20
113 0 52 -5 82 -20 109 -15 29 -20 57 -20 116 0 51 -5 88 -15 108 -9 16 -20
77 -25 136 -6 66 -15 114 -25 127 -51 70 -50 67 -48 164 2 51 8 102 14 114 7
13 8 45 4 88 -7 68 -7 68 24 91 19 14 31 32 31 46 0 29 -83 119 -165 178 -33
23 -71 55 -84 69 -14 14 -29 26 -35 26 -6 0 -57 45 -114 100 -63 61 -112 100
-124 100 -41 0 -104 25 -143 56 -39 31 -68 47 -131 77 -17 8 -35 20 -39 27 -4
6 -17 16 -28 21 -12 5 -35 18 -52 29 -16 11 -63 36 -102 56 -41 20 -73 42 -73
50 0 8 7 31 15 51 8 19 15 48 15 63 0 15 -7 47 -15 70 -19 53 -19 137 0 170 9
16 15 55 15 105 1 44 8 98 16 120 8 22 19 64 24 94 7 43 17 61 45 86 19 18 35
38 35 44 0 7 15 18 33 26 32 14 32 14 79 -35 26 -27 64 -60 86 -73z"></path>
</g>
</svg>