 <svg version="1.0" xmlns="http://www.w3.org/2000/svg" width="700.000000pt" height="961.000000pt" viewBox="0 0 700.000000 961.000000" preserveAspectRatio="xMidYMid meet">
<metadata>
Created by potrace 1.12, written by Peter Selinger 2001-2015
</metadata>
<g transform="translate(0.000000,961.000000) scale(0.100000,-0.100000)" fill="#000000" stroke="none">
<path d="M4404 9041 c-23 -10 -44 -23 -48 -29 -3 -6 -30 -13 -59 -17 -28 -4
-63 -16 -76 -26 -13 -11 -29 -19 -35 -19 -7 0 -37 -21 -67 -46 -49 -43 -99
-118 -99 -152 0 -7 -6 -23 -14 -35 -8 -12 -17 -44 -21 -72 -4 -27 -11 -58 -17
-68 -5 -10 -11 -53 -14 -95 -2 -42 -6 -114 -10 -158 -4 -62 -1 -97 11 -143 21
-72 17 -79 -59 -115 -29 -14 -59 -32 -66 -41 -7 -8 -21 -15 -30 -15 -20 0
-153 -85 -158 -101 -2 -5 -20 -18 -40 -28 -61 -32 -137 -119 -169 -193 -15
-36 -42 -84 -60 -105 -44 -51 -101 -133 -113 -160 -5 -12 -22 -41 -37 -65 -39
-61 -57 -151 -38 -189 8 -15 15 -38 15 -49 0 -18 -33 -84 -80 -160 -5 -8 -23
-45 -40 -82 -16 -37 -34 -69 -40 -73 -5 -3 -10 -13 -10 -21 0 -8 -27 -48 -60
-90 -33 -42 -67 -89 -75 -104 -22 -42 -19 -128 5 -173 11 -20 20 -46 20 -58 0
-11 9 -32 20 -46 11 -14 20 -40 20 -57 0 -18 5 -37 11 -43 5 -5 18 -24 27 -41
9 -17 32 -57 51 -88 43 -71 46 -128 14 -194 -13 -25 -26 -61 -29 -80 -4 -19
-13 -44 -21 -55 -7 -11 -13 -29 -13 -41 0 -12 -9 -33 -20 -47 -11 -14 -20 -34
-20 -45 0 -10 -9 -31 -20 -45 -11 -14 -20 -35 -20 -47 0 -11 -8 -38 -19 -58
-54 -107 -88 -214 -95 -307 -10 -120 -9 -228 3 -274 13 -50 59 -120 113 -173
21 -21 38 -44 38 -51 0 -8 6 -20 14 -26 8 -7 17 -24 21 -39 3 -15 20 -49 37
-77 58 -95 68 -139 56 -262 -16 -165 -14 -287 6 -317 10 -16 16 -46 16 -86 0
-41 6 -72 20 -97 12 -24 20 -57 20 -88 0 -28 6 -59 13 -70 14 -21 47 -115 47
-136 0 -7 -10 -9 -27 -6 -52 10 -118 29 -152 44 -19 8 -57 17 -85 20 -28 3
-61 11 -73 19 -11 7 -56 17 -98 23 -44 5 -84 16 -94 25 -10 9 -26 16 -37 16
-11 0 -36 9 -57 20 -20 11 -43 20 -51 20 -7 0 -25 9 -39 20 -14 11 -31 20 -38
20 -25 0 -330 160 -357 186 -7 8 -19 14 -26 14 -6 0 -31 18 -54 40 -30 30 -49
40 -73 40 -21 0 -64 19 -124 55 -124 74 -151 74 -217 4 -26 -28 -48 -56 -48
-63 0 -6 -7 -24 -16 -41 -8 -16 -19 -57 -23 -90 -5 -48 -16 -75 -56 -135 -60
-91 -62 -94 -103 -167 -18 -32 -37 -65 -42 -73 -6 -8 -15 -26 -21 -40 -6 -14
-17 -37 -25 -51 -9 -18 -13 -63 -13 -143 1 -88 -3 -122 -14 -139 -8 -13 -18
-52 -22 -88 -6 -63 -5 -65 34 -124 22 -33 41 -72 41 -86 0 -31 32 -75 61 -84
25 -8 69 19 69 43 0 9 9 31 20 47 11 17 20 38 20 47 0 9 14 25 30 35 16 9 30
20 30 23 0 18 74 115 99 131 17 10 31 23 31 28 0 5 12 14 28 20 43 17 109 57
144 86 42 35 102 65 131 65 14 0 30 7 37 15 7 9 29 15 52 15 31 0 49 -7 76
-31 39 -34 90 -59 122 -59 13 0 24 -9 30 -24 7 -20 16 -24 41 -24 26 1 39 -7
63 -35 20 -23 41 -37 61 -39 22 -2 30 -8 30 -23 0 -12 8 -21 20 -23 11 -3 39
-17 62 -32 22 -15 52 -31 65 -35 12 -4 34 -16 47 -26 13 -11 31 -19 40 -19 9
0 24 -9 34 -20 9 -11 27 -20 40 -20 13 0 32 -9 42 -20 10 -11 28 -20 39 -20
12 0 29 -9 39 -20 9 -11 24 -20 34 -20 9 0 24 -7 33 -15 23 -21 296 -155 315
-155 9 0 28 -9 42 -20 14 -11 32 -20 40 -20 8 0 27 -6 41 -13 15 -8 42 -21 60
-30 120 -60 309 -91 380 -61 38 15 152 120 152 139 0 6 9 27 20 48 13 23 20
56 20 90 0 30 6 62 15 74 23 33 27 90 15 213 -22 210 -22 220 -10 235 9 11 17
12 32 4 34 -18 142 -122 155 -149 7 -14 27 -50 45 -80 31 -53 32 -59 31 -156
-2 -95 -4 -105 -38 -170 -24 -44 -39 -89 -42 -124 -3 -30 -14 -66 -24 -79 -11
-13 -19 -35 -19 -50 0 -14 -7 -35 -15 -45 -8 -11 -15 -34 -15 -50 -1 -17 -7
-42 -15 -56 -26 -45 -19 -123 16 -185 l31 -54 5 -328 c4 -248 9 -335 19 -355
21 -41 20 -591 -1 -641 -12 -28 -15 -82 -15 -244 l0 -209 29 -32 c17 -17 38
-32 48 -32 11 0 39 -21 63 -46 l45 -46 62 5 c34 2 81 14 106 26 24 11 56 21
71 21 15 0 44 9 66 20 51 26 120 26 162 0 18 -11 43 -20 54 -20 12 0 27 -6 33
-14 7 -8 27 -18 44 -21 18 -4 39 -13 47 -20 8 -7 35 -16 60 -20 25 -4 62 -15
83 -26 55 -28 87 -24 133 15 21 18 66 47 99 64 33 16 76 46 94 66 19 20 45 36
56 36 12 0 30 9 40 20 10 11 26 20 35 20 52 0 49 77 -5 130 -19 18 -37 46 -40
62 -8 32 -19 34 -66 11 -40 -20 -133 -21 -157 -1 -31 24 -80 48 -100 48 -10 0
-47 14 -81 32 -66 34 -139 106 -181 178 -14 23 -31 49 -39 57 -22 23 -61 83
-61 94 0 6 -9 22 -20 36 -11 14 -20 35 -20 47 0 12 -7 31 -15 42 -19 25 -19
84 -1 110 12 17 15 114 18 575 3 505 5 557 21 586 9 18 17 45 17 60 0 16 9 61
20 101 11 39 20 86 20 104 1 18 9 51 20 73 11 22 19 52 20 66 0 15 7 32 15 39
26 22 85 118 85 140 0 11 -7 32 -16 45 -13 21 -15 39 -9 103 4 42 14 90 22
105 22 43 5 80 -81 177 -7 8 -16 39 -19 69 -4 29 -11 59 -18 67 -6 7 -15 28
-19 46 -10 40 -40 127 -51 150 -20 40 -49 140 -49 167 0 16 -4 33 -10 36 -5 3
-10 19 -10 34 0 16 -6 34 -14 40 -7 6 -16 26 -19 44 -3 17 -28 72 -56 120 -28
48 -51 92 -51 96 0 5 -8 19 -19 32 -10 13 -22 35 -26 49 -4 14 -17 38 -29 54
-11 16 -30 46 -41 66 -11 21 -45 76 -75 124 -30 47 -59 94 -65 104 -5 9 -20
34 -32 53 -13 20 -23 47 -23 60 0 13 -9 38 -20 54 -11 17 -20 42 -20 56 0 15
-7 29 -15 33 -8 3 -15 14 -15 24 0 11 -8 30 -18 43 -11 13 -22 37 -26 53 -4
15 -14 35 -21 43 -8 8 -15 22 -15 31 0 9 -27 46 -60 82 l-60 65 6 65 c3 36 10
69 15 74 16 17 151 -58 243 -134 23 -19 64 -46 91 -59 28 -13 57 -28 65 -33
36 -20 43 -19 68 5 15 13 42 32 60 41 30 16 54 53 51 80 -3 25 2 36 17 36 16
0 32 11 134 93 80 64 93 91 88 187 -3 72 -5 80 -43 126 -49 60 -58 68 -117 99
-64 34 -110 39 -225 27 -54 -6 -131 -12 -172 -14 l-74 -3 -40 47 c-43 51 -50
87 -23 117 11 13 16 37 16 87 0 42 5 75 12 82 11 11 18 48 42 227 2 17 24 68
48 115 48 92 52 112 67 360 8 136 -6 268 -44 405 -19 70 -26 289 -12 345 17
64 39 72 129 48 l71 -19 56 22 c31 12 66 25 77 29 28 11 70 86 77 139 3 24 12
50 20 59 15 17 38 71 61 147 7 22 18 53 24 68 7 16 12 39 12 53 0 14 7 41 16
62 12 30 15 79 14 257 -1 215 -3 239 -33 357 -32 124 -130 198 -263 198 -51 0
-117 20 -129 40 -10 16 -66 11 -111 -9z m110 -161 c41 -11 89 -19 108 -18 81
5 102 -2 125 -37 12 -18 24 -44 28 -57 4 -13 14 -31 22 -40 8 -9 19 -31 23
-50 5 -18 15 -52 24 -74 22 -60 13 -261 -14 -312 -11 -20 -20 -42 -20 -49 0
-7 -25 -58 -55 -113 -30 -55 -55 -105 -55 -109 0 -8 -14 -40 -64 -141 -14 -29
-29 -30 -140 -10 -102 18 -155 10 -205 -30 -22 -18 -41 -41 -41 -51 0 -10 -5
-21 -11 -25 -7 -4 -9 -21 -4 -48 11 -64 6 -129 -13 -156 -23 -33 -20 -219 4
-255 12 -19 17 -67 20 -237 3 -117 10 -233 15 -258 8 -36 7 -52 -5 -75 -9 -17
-16 -37 -16 -46 0 -9 -6 -22 -14 -28 -8 -7 -18 -26 -21 -42 -4 -17 -13 -42
-21 -57 -8 -15 -14 -40 -14 -56 0 -28 -30 -94 -59 -128 -10 -13 -15 -58 -19
-159 -4 -106 -8 -142 -19 -146 -16 -6 -250 233 -272 278 -13 26 -13 33 2 64 9
20 17 53 17 74 0 22 6 44 15 51 8 7 15 20 15 29 0 33 20 87 44 115 l23 30 44
-37 c55 -48 80 -54 121 -30 30 17 33 24 36 75 2 46 -2 64 -25 105 -46 81 -127
192 -141 193 -7 0 -30 -11 -52 -25 -29 -18 -40 -32 -40 -50 0 -13 -10 -46 -22
-72 -46 -102 -92 -200 -109 -234 -11 -20 -19 -51 -19 -69 0 -17 -7 -44 -15
-58 -8 -15 -21 -43 -29 -64 -8 -21 -26 -42 -43 -50 -25 -12 -28 -18 -25 -53 4
-44 64 -128 134 -185 49 -39 142 -141 225 -245 64 -81 94 -109 144 -135 21
-11 47 -35 59 -55 13 -22 48 -50 90 -75 l68 -40 117 0 c64 0 136 5 161 11 34
9 48 9 57 0 6 -6 19 -11 28 -11 26 0 49 -28 49 -61 0 -23 -7 -32 -40 -49 -21
-11 -50 -20 -64 -20 -23 0 -108 -49 -121 -71 -4 -5 -19 -9 -34 -9 -27 0 -80
41 -184 143 -21 21 -52 43 -68 49 -16 5 -29 14 -29 19 0 5 -8 9 -18 9 -10 0
-41 11 -68 25 -27 14 -59 25 -70 25 -12 0 -27 7 -34 15 -7 8 -21 15 -31 15
-11 0 -27 9 -36 20 -10 11 -27 20 -40 20 -12 0 -25 4 -28 10 -3 5 -31 22 -60
36 -30 14 -73 41 -96 60 -22 19 -45 34 -50 34 -6 0 -16 14 -23 31 -10 23 -34
44 -84 73 -203 117 -262 175 -262 259 0 53 37 152 76 204 13 18 27 47 30 65 3
18 12 53 19 78 7 25 18 63 23 85 5 22 14 54 20 70 11 32 25 83 47 175 7 30 20
72 29 92 9 21 16 48 16 61 0 13 5 28 11 34 6 6 15 30 20 54 6 24 16 51 23 59
7 8 20 44 30 79 18 67 12 91 -24 91 -23 0 -36 -16 -80 -95 -20 -35 -79 -67
-112 -60 -44 10 -66 77 -34 104 8 7 17 31 21 54 4 23 13 52 21 64 8 12 14 27
14 32 0 20 54 88 141 179 87 90 90 92 136 92 36 0 64 10 129 45 46 25 86 50
89 55 8 14 68 13 82 -1 12 -12 53 4 53 20 0 5 20 35 45 67 25 31 45 64 45 71
0 8 5 24 11 36 8 13 12 91 13 211 1 160 4 197 19 225 9 19 17 39 17 45 0 6 9
28 20 49 11 20 20 47 20 59 0 13 9 37 20 53 11 17 20 38 20 47 0 9 6 19 13 21
9 4 9 7 0 14 -9 7 -10 18 -2 46 8 28 15 37 32 37 12 0 38 9 57 19 19 11 36 20
38 20 1 1 36 -8 76 -19z m-289 -116 c-33 -33 -65 -40 -65 -15 0 20 44 51 72
51 l29 0 -36 -36z m-949 -1991 c-4 -16 -10 -60 -14 -99 -4 -39 -12 -78 -18
-85 -6 -8 -14 -35 -16 -61 -7 -62 -22 -82 -52 -66 -30 16 -36 27 -36 74 0 50
72 220 104 246 30 25 39 22 32 -9z m62 -913 c7 -11 18 -20 25 -20 14 0 93 -39
128 -63 14 -10 43 -17 71 -17 26 0 49 -4 53 -9 3 -5 18 -12 35 -16 16 -3 32
-14 35 -23 3 -9 27 -30 54 -47 26 -16 70 -43 97 -60 27 -16 63 -44 81 -61 31
-30 32 -34 26 -85 -3 -30 -14 -71 -24 -91 -11 -21 -19 -48 -19 -60 0 -13 -8
-34 -17 -48 -12 -17 -17 -45 -17 -93 -1 -63 -3 -71 -30 -93 -23 -20 -34 -24
-60 -18 -62 15 -81 11 -84 -17 -2 -18 8 -37 33 -65 20 -21 38 -49 40 -61 3
-13 8 -35 11 -50 3 -16 17 -44 30 -64 l25 -37 2 -493 c2 -458 3 -497 21 -534
14 -30 17 -52 12 -91 -4 -38 0 -69 14 -114 17 -53 20 -90 20 -244 0 -101 -5
-199 -12 -221 -6 -22 -14 -97 -17 -167 -6 -110 -10 -131 -29 -157 -12 -17 -22
-44 -22 -60 0 -67 -113 -82 -195 -27 -21 14 -48 26 -62 26 -13 0 -31 4 -41 9
-9 6 -38 13 -64 16 -25 3 -52 13 -58 20 -7 8 -20 15 -29 15 -9 0 -38 12 -66
25 -27 14 -56 25 -63 25 -8 0 -25 9 -39 20 -14 11 -33 20 -42 20 -9 0 -22 9
-29 20 -7 11 -22 20 -35 20 -12 0 -36 14 -52 33 -17 17 -51 45 -75 62 -25 16
-49 36 -53 42 -4 7 -21 13 -36 13 -15 0 -36 9 -46 20 -10 11 -28 20 -41 20
-13 0 -38 9 -56 19 -18 10 -51 22 -73 26 -66 11 -125 52 -146 101 -13 33 -25
45 -46 50 -38 8 -93 35 -120 58 -16 13 -45 21 -95 25 -45 4 -83 13 -98 24 -16
11 -44 17 -80 17 -30 1 -73 7 -95 15 -58 21 -104 18 -150 -10 -22 -14 -48 -25
-58 -25 -10 0 -20 -8 -24 -17 -3 -10 -19 -32 -36 -50 -24 -26 -35 -31 -58 -26
-50 10 -116 -18 -177 -75 -69 -63 -87 -64 -86 -3 1 39 6 48 40 75 79 62 111
111 163 246 11 31 21 65 21 76 0 11 7 29 15 40 8 10 15 37 15 59 0 22 9 55 20
73 11 18 20 41 20 51 0 59 39 67 104 22 24 -15 59 -31 78 -35 20 -4 54 -23 79
-46 24 -22 50 -40 57 -40 7 0 30 -9 52 -20 22 -11 47 -20 56 -20 9 0 27 -9 41
-20 14 -11 33 -20 43 -20 9 0 25 -9 35 -20 10 -11 30 -20 44 -20 14 0 40 -9
56 -20 17 -11 38 -20 48 -20 10 0 35 -9 57 -20 22 -11 54 -20 72 -20 19 0 51
-9 73 -20 22 -11 51 -20 66 -20 14 0 46 -8 70 -19 24 -10 78 -22 119 -26 41
-3 86 -13 102 -21 15 -8 51 -14 80 -15 106 -1 134 -11 197 -66 32 -29 70 -55
85 -59 14 -3 30 -12 34 -19 4 -7 27 -15 52 -17 l45 -3 3 123 c2 110 0 127 -18
156 -11 19 -20 44 -20 57 0 13 -9 38 -20 54 -11 17 -20 40 -20 53 0 12 -9 39
-20 59 -11 21 -20 44 -20 51 0 7 -7 23 -15 36 -8 12 -19 56 -25 97 -5 41 -14
88 -20 103 -6 16 -10 110 -10 220 0 187 -1 196 -26 250 -14 30 -29 58 -34 61
-4 3 -11 28 -15 57 -4 28 -13 65 -20 82 -7 17 -11 43 -8 58 4 20 -2 33 -21 53
-14 14 -26 31 -26 38 0 7 -7 23 -17 36 -57 82 -63 106 -63 244 0 115 3 136 20
162 11 17 20 44 20 61 0 17 6 37 14 43 8 7 18 27 21 44 4 18 13 39 20 47 7 8
18 32 25 53 6 20 15 37 20 37 11 0 50 121 50 155 0 14 9 42 20 62 11 21 20 45
20 55 0 19 36 48 60 48 8 0 21 -9 28 -20z m685 -982 c14 -18 43 -53 66 -78 22
-25 41 -49 41 -54 0 -11 47 -82 68 -104 6 -7 12 -19 12 -26 0 -7 16 -29 35
-50 19 -21 35 -45 35 -53 0 -7 18 -36 40 -64 22 -28 40 -58 40 -66 0 -9 15
-34 33 -57 36 -44 197 -362 197 -388 0 -9 6 -21 14 -27 8 -7 17 -27 20 -45 4
-19 13 -36 20 -39 7 -3 16 -26 18 -52 3 -25 13 -54 22 -64 9 -10 16 -34 16
-54 0 -20 9 -51 20 -69 11 -18 20 -50 20 -71 0 -21 6 -50 14 -65 7 -15 16 -62
20 -106 6 -73 9 -83 56 -152 52 -76 61 -114 35 -140 -8 -9 -15 -32 -15 -52 0
-21 -6 -47 -14 -58 -8 -11 -17 -38 -21 -60 -4 -21 -14 -50 -23 -64 -13 -20
-17 -62 -19 -200 -3 -109 -9 -194 -18 -225 -8 -27 -17 -84 -21 -125 -3 -41
-13 -87 -20 -102 -9 -17 -14 -59 -14 -113 0 -60 -6 -103 -20 -142 -16 -45 -20
-83 -20 -178 0 -98 -4 -128 -20 -164 -17 -37 -20 -65 -20 -210 0 -149 3 -173
24 -233 21 -62 23 -79 18 -213 l-5 -145 28 0 c28 0 107 -64 161 -132 29 -36
142 -131 167 -140 21 -8 27 -16 25 -32 -3 -18 -11 -21 -53 -24 -27 -2 -54 -7
-60 -11 -25 -20 -62 -20 -80 -1 -12 14 -31 20 -58 20 -22 0 -57 5 -79 12 -29
8 -48 9 -71 1 -18 -6 -78 -14 -134 -18 -97 -7 -102 -6 -113 14 -9 18 -7 30 11
66 12 25 33 54 45 66 21 20 22 27 18 108 -3 47 -12 106 -19 131 -10 32 -16
142 -21 375 -5 277 -9 334 -22 355 -11 17 -17 53 -19 107 -2 80 -3 84 -38 120
-32 33 -35 41 -35 95 0 39 7 70 20 95 16 30 20 57 20 133 0 55 6 116 15 144 8
27 15 68 15 90 0 23 9 58 20 79 11 20 20 43 20 51 0 8 9 33 20 57 11 24 20 60
20 79 0 19 7 44 15 54 18 23 21 196 5 273 -5 26 -12 69 -15 95 -3 25 -15 56
-25 69 -11 12 -20 30 -20 41 0 10 -9 27 -20 38 -11 11 -20 29 -20 39 0 11 -5
23 -11 27 -6 3 -18 21 -26 38 -25 54 -40 77 -71 109 -17 18 -34 44 -37 59 -4
16 -46 66 -95 116 -49 49 -91 100 -94 113 -2 13 -7 146 -10 295 -4 159 -10
284 -17 303 -9 26 -8 35 5 50 20 22 21 61 1 87 -20 27 -18 73 5 112 28 46 25
61 -14 77 -19 8 -38 25 -42 37 -4 13 -7 73 -7 135 1 144 10 160 56 101z m1074
-4454 c-9 -9 -28 6 -21 18 4 6 10 6 17 -1 6 -6 8 -13 4 -17z"></path>
<path d="M4052 4299 c1 -13 8 -23 13 -21 15 3 12 35 -3 40 -9 3 -13 -3 -10
-19z"></path>
</g>
</svg>