 <svg version="1.0" xmlns="http://www.w3.org/2000/svg" width="700.000000pt" height="961.000000pt" viewBox="0 0 700.000000 961.000000" preserveAspectRatio="xMidYMid meet">
<metadata>
Created by potrace 1.12, written by Peter Selinger 2001-2015
</metadata>
<g transform="translate(0.000000,961.000000) scale(0.100000,-0.100000)" fill="#000000" stroke="none">
<path d="M4194 9336 c-17 -7 -51 -17 -75 -21 -80 -13 -179 -89 -179 -136 0
-11 -9 -37 -20 -59 -11 -22 -20 -54 -20 -72 0 -21 -7 -40 -20 -51 -14 -11 -20
-29 -20 -56 0 -22 -6 -44 -15 -51 -8 -7 -15 -21 -15 -32 0 -10 -9 -36 -20 -58
-11 -22 -20 -50 -20 -62 0 -13 -7 -33 -15 -44 -17 -26 -43 -94 -57 -153 -13
-57 -71 -140 -158 -226 l-71 -70 -207 3 c-171 2 -217 5 -267 21 -45 14 -103
21 -230 25 -100 4 -189 12 -216 20 -47 14 -105 10 -145 -12 -24 -13 -68 -73
-87 -122 -20 -49 -22 -251 -4 -287 8 -16 18 -50 22 -78 4 -27 13 -62 21 -77 8
-15 14 -43 14 -63 0 -22 8 -47 20 -62 11 -14 20 -40 20 -58 0 -18 9 -52 20
-76 11 -24 20 -57 20 -72 0 -16 5 -38 12 -50 6 -12 17 -52 24 -89 12 -64 83
-230 104 -243 6 -3 10 -17 10 -31 0 -21 18 -63 52 -124 5 -8 15 -28 22 -45 33
-71 126 -115 241 -115 47 0 146 37 160 60 10 16 55 12 62 -5 10 -29 -12 -392
-26 -409 -10 -11 -12 -52 -9 -158 5 -167 15 -200 59 -191 24 5 29 2 35 -21 9
-36 -28 -130 -63 -161 -19 -16 -40 -24 -65 -25 -27 0 -47 -8 -70 -29 -39 -34
-94 -140 -102 -195 -3 -21 -12 -46 -21 -56 -8 -9 -15 -23 -15 -31 0 -14 -19
-36 -196 -224 -57 -60 -104 -116 -104 -124 0 -8 -8 -23 -17 -34 -15 -16 -18
-45 -21 -195 -5 -203 2 -241 54 -303 33 -40 36 -48 31 -92 -2 -27 -13 -61 -26
-77 -11 -16 -21 -38 -21 -48 0 -11 -9 -31 -20 -45 -11 -14 -20 -38 -20 -55 0
-16 -9 -39 -20 -52 -13 -15 -20 -37 -20 -64 0 -23 -6 -53 -14 -67 -7 -14 -16
-43 -20 -64 -4 -22 -14 -48 -22 -59 -8 -11 -14 -39 -14 -62 0 -23 -7 -58 -15
-77 -8 -20 -15 -62 -15 -94 0 -39 -7 -71 -20 -96 -11 -20 -20 -48 -20 -61 0
-13 -9 -34 -19 -48 -20 -26 -37 -161 -32 -265 2 -51 1 -53 -33 -69 -19 -9 -39
-28 -45 -42 -11 -23 -14 -24 -74 -18 -45 5 -74 3 -106 -9 -24 -8 -58 -15 -75
-15 -17 0 -44 -9 -61 -20 -16 -11 -38 -20 -48 -20 -9 0 -34 -11 -55 -24 -20
-13 -73 -32 -117 -41 -44 -9 -98 -26 -120 -36 -61 -30 -128 -69 -146 -85 -8
-8 -22 -14 -30 -14 -20 0 -176 -93 -213 -128 -17 -16 -53 -41 -81 -57 -55 -30
-115 -83 -115 -100 0 -17 -100 -115 -118 -115 -9 0 -30 -8 -47 -17 -25 -14
-69 -18 -255 -23 -196 -5 -229 -8 -255 -24 -36 -23 -85 -95 -85 -127 -1 -13
-7 -35 -15 -49 -10 -17 -14 -56 -14 -120 0 -64 4 -103 14 -120 8 -14 14 -35
15 -48 0 -13 19 -62 42 -110 l42 -87 -2 -133 c-1 -88 -6 -143 -16 -166 -29
-69 -39 -210 -28 -393 9 -153 12 -175 32 -204 29 -40 118 -82 154 -73 21 5 29
1 43 -25 19 -32 58 -59 70 -47 9 8 8 41 -2 228 -8 139 -7 148 13 187 12 23 22
49 22 59 0 9 9 31 20 47 11 17 20 40 20 52 0 12 5 25 11 29 6 3 18 21 26 38
29 62 77 140 100 164 7 7 13 24 13 37 0 13 5 27 11 31 6 3 18 21 26 38 47 100
54 107 173 168 124 63 233 133 265 168 11 12 36 30 56 40 19 10 42 26 49 35
15 18 122 75 141 75 6 0 22 9 36 20 14 11 37 20 50 20 14 0 37 6 51 14 50 27
141 66 154 66 7 0 24 9 38 20 14 11 31 20 39 20 8 0 35 13 60 28 25 15 73 41
106 56 33 16 67 32 75 37 8 5 43 22 77 39 l62 30 190 0 c184 0 191 1 238 26
62 33 100 70 108 105 4 15 13 33 21 40 8 6 14 18 14 26 0 8 13 27 29 42 33 31
91 148 91 184 0 24 27 56 128 151 29 27 52 55 52 62 0 7 18 32 40 56 22 24 40
53 40 64 0 12 7 27 15 34 8 7 15 20 15 29 0 9 7 27 14 41 8 14 29 54 46 90 18
36 43 78 56 93 24 28 124 226 124 245 0 5 7 15 15 22 8 7 15 22 15 34 0 12 9
38 20 59 11 20 20 45 20 56 0 10 9 38 20 62 11 24 20 55 20 69 1 47 13 55 64
40 51 -14 77 -43 98 -105 7 -21 22 -43 33 -49 11 -6 30 -19 43 -28 13 -9 44
-20 70 -23 26 -4 61 -13 77 -20 22 -10 117 -16 355 -21 179 -4 333 -11 343
-16 10 -5 91 -14 180 -19 117 -7 166 -14 177 -24 9 -8 24 -15 34 -15 17 0 103
-54 119 -75 4 -5 10 -20 13 -33 7 -26 -19 -62 -46 -62 -34 0 -50 -99 -54 -332
-4 -222 -20 -428 -37 -459 -5 -10 -12 -67 -16 -127 -5 -87 -3 -119 10 -157 9
-26 20 -84 23 -129 4 -48 15 -95 26 -116 10 -19 18 -40 18 -47 0 -6 6 -24 14
-40 43 -87 45 -110 33 -403 -4 -116 -23 -182 -65 -232 -7 -9 -18 -36 -23 -59
-6 -25 -24 -59 -44 -81 -19 -21 -35 -45 -35 -54 0 -16 -34 -85 -56 -114 -6 -8
-14 -35 -18 -60 -4 -25 -13 -63 -21 -86 -19 -58 -2 -126 42 -166 10 -9 55 -35
99 -57 74 -37 86 -40 135 -34 30 3 64 13 75 23 50 38 97 44 203 27 61 -11 157
-17 246 -17 128 0 151 -3 186 -21 53 -26 258 -42 340 -25 101 20 199 140 199
242 0 43 25 96 71 154 16 20 34 54 40 75 10 35 9 39 -18 61 -38 31 -57 30
-102 -7 l-39 -31 -39 20 c-34 18 -41 18 -63 6 -14 -7 -32 -13 -40 -14 -8 0
-33 -9 -55 -21 -53 -29 -102 -21 -158 25 -24 20 -49 36 -56 36 -6 0 -44 27
-84 60 -41 33 -78 60 -83 60 -5 0 -17 8 -26 19 -9 10 -40 37 -70 60 -30 22
-60 52 -66 65 -12 26 0 263 18 376 6 36 15 160 19 275 l8 210 44 110 c42 108
43 113 49 265 5 116 11 163 23 187 9 18 17 51 17 75 0 24 7 70 15 103 8 33 17
107 20 165 4 58 13 123 20 145 8 23 16 100 18 181 3 102 9 149 21 171 10 20
15 53 14 91 -1 33 4 73 11 91 12 28 11 36 -15 88 -31 64 -154 193 -183 193
-10 0 -26 9 -36 20 -10 11 -28 20 -39 20 -12 0 -29 9 -39 20 -9 11 -26 20 -37
20 -11 0 -23 7 -26 15 -3 8 -16 17 -27 21 -12 4 -34 15 -49 25 -14 11 -33 19
-41 19 -9 0 -22 6 -30 14 -7 8 -39 30 -70 50 -30 20 -58 40 -62 46 -3 5 -14
10 -24 10 -10 0 -25 7 -32 16 -8 9 -32 25 -54 35 -22 10 -68 36 -102 58 -35
22 -71 42 -81 46 -11 3 -27 14 -37 25 -10 11 -26 20 -35 20 -10 0 -29 9 -43
20 -14 11 -32 20 -40 20 -8 0 -26 9 -40 20 -14 11 -32 20 -40 20 -7 0 -22 9
-32 20 -10 11 -28 20 -40 20 -12 0 -30 9 -40 20 -10 11 -28 20 -40 20 -12 0
-34 9 -48 20 -14 11 -37 20 -51 20 -14 0 -34 9 -43 20 -10 11 -29 20 -43 20
-14 0 -33 9 -43 20 -9 11 -25 20 -36 20 -10 0 -24 6 -30 14 -7 8 -27 17 -45
20 -19 4 -39 13 -46 21 -7 8 -26 15 -42 15 -51 0 -68 16 -68 63 0 23 7 52 15
65 16 22 35 76 60 167 7 28 20 70 29 95 8 25 25 88 36 140 12 52 27 111 35
130 8 19 16 58 19 85 8 79 35 215 49 244 7 15 21 26 33 26 31 1 74 33 74 55 0
19 44 50 55 39 12 -13 -19 -81 -48 -105 -18 -15 -40 -47 -49 -72 -15 -40 -16
-48 -2 -73 8 -16 18 -29 23 -29 44 0 149 97 223 205 23 33 59 80 81 105 22 25
48 63 58 85 11 22 30 58 44 80 14 22 28 47 32 55 4 8 22 35 40 59 18 24 33 48
33 53 0 8 69 92 167 203 20 22 40 50 46 63 6 12 14 22 18 22 9 0 69 87 69 99
0 5 7 15 16 22 9 7 20 22 25 34 5 11 22 40 38 65 32 48 36 70 22 98 -5 9 -19
38 -30 65 -46 105 -65 140 -87 164 -13 14 -24 29 -24 33 0 14 -139 173 -168
192 -39 26 -54 23 -111 -22 -90 -72 -107 -103 -115 -220 -5 -73 -12 -110 -26
-133 -11 -18 -20 -40 -20 -50 0 -9 -15 -39 -33 -65 -18 -26 -36 -54 -39 -62
-3 -8 -26 -46 -52 -84 -25 -38 -51 -86 -57 -107 -12 -39 -28 -52 -46 -41 -18
12 -53 99 -53 132 0 17 -9 56 -20 87 -21 61 -28 229 -11 275 9 26 -8 141 -27
175 -6 12 -12 32 -12 45 0 14 -22 46 -55 81 -30 31 -55 63 -55 70 0 6 -24 33
-52 59 l-53 48 33 30 c35 33 66 37 96 15 23 -17 161 -21 171 -5 3 5 24 14 46
20 52 14 107 70 142 145 16 33 37 77 48 97 10 20 19 49 19 63 0 14 6 36 14 48
8 12 17 38 21 57 4 19 13 42 20 50 28 34 36 201 17 350 -9 73 -17 99 -32 112
-11 9 -20 21 -20 27 0 25 26 63 57 82 44 27 42 53 -7 110 -42 49 -107 98 -218
163 -71 42 -64 41 -282 51 -78 4 -113 2 -136 -9z m257 -102 c19 -8 45 -22 59
-30 14 -8 43 -23 65 -33 52 -23 69 -44 62 -77 -3 -19 3 -35 26 -61 39 -44 76
-133 66 -159 -4 -10 -4 -56 -1 -102 5 -80 -4 -134 -39 -237 -6 -16 -14 -45
-19 -63 -5 -19 -15 -41 -22 -50 -26 -30 -56 -89 -63 -123 -4 -19 -19 -49 -33
-67 -22 -29 -30 -33 -56 -27 -51 11 -147 26 -204 32 -53 5 -53 5 -103 -46 -28
-28 -56 -51 -64 -51 -8 0 -26 -11 -41 -25 -34 -31 -49 -31 -86 0 -40 34 -72
40 -116 23 -35 -13 -37 -17 -39 -58 -1 -37 5 -53 34 -92 19 -27 38 -48 41 -48
4 0 32 -30 62 -65 30 -36 60 -65 67 -65 6 0 29 -16 50 -36 21 -20 54 -44 73
-53 19 -9 36 -25 38 -36 2 -11 10 -27 17 -35 7 -8 16 -26 20 -40 4 -14 13 -32
19 -40 29 -36 66 -181 66 -258 0 -49 5 -85 14 -97 7 -11 17 -47 21 -80 4 -33
13 -78 21 -100 7 -22 14 -56 14 -76 0 -19 7 -44 15 -55 8 -10 15 -32 15 -47 0
-16 9 -40 20 -54 11 -14 20 -32 20 -40 0 -8 9 -26 20 -40 11 -14 20 -31 20
-38 0 -7 13 -17 28 -23 26 -9 30 -7 47 25 11 19 28 39 39 45 12 6 28 17 36 24
8 8 39 32 68 54 72 56 98 100 107 185 4 39 13 77 20 85 6 8 29 44 51 80 l38
65 6 165 c5 165 10 190 34 190 17 0 57 -57 89 -126 8 -17 20 -35 26 -38 6 -4
11 -17 11 -29 0 -12 7 -35 16 -52 20 -39 60 -143 68 -177 4 -17 1 -30 -7 -35
-8 -4 -18 -15 -23 -25 -5 -9 -40 -51 -79 -93 -38 -43 -83 -91 -99 -109 -15
-17 -49 -58 -74 -91 -25 -33 -61 -77 -79 -98 -19 -21 -39 -50 -46 -65 -6 -15
-26 -45 -43 -67 -17 -22 -39 -55 -49 -74 -9 -18 -43 -61 -75 -93 l-58 -60 -54
7 c-76 10 -128 41 -128 75 0 10 -7 23 -15 30 -8 7 -15 24 -15 39 0 14 -7 37
-15 51 -8 14 -17 32 -20 40 -31 76 -124 261 -142 281 -7 9 -17 40 -22 68 -5
29 -13 57 -20 64 -6 6 -11 18 -11 27 0 8 -9 32 -20 53 -11 20 -20 47 -20 60 0
13 -7 32 -15 43 -8 10 -15 26 -15 34 0 8 -12 38 -25 65 -14 28 -25 56 -25 63
0 21 -43 73 -72 88 -49 25 -96 18 -135 -21 -31 -31 -35 -40 -30 -74 5 -43 49
-135 78 -167 20 -21 42 -114 33 -138 -8 -20 28 -84 70 -128 20 -20 36 -39 36
-42 0 -3 26 -47 58 -98 69 -112 172 -317 172 -344 0 -10 -9 -34 -20 -52 -13
-20 -20 -50 -20 -80 0 -27 -7 -68 -15 -93 -17 -52 -35 -237 -28 -295 3 -23 -2
-64 -12 -95 -9 -30 -20 -74 -25 -99 -32 -160 -116 -358 -184 -431 -32 -36
-116 -172 -116 -189 0 -11 -38 -77 -62 -109 -10 -13 -18 -33 -18 -45 0 -12 -4
-26 -9 -31 -6 -6 -24 -46 -42 -90 -17 -44 -35 -84 -39 -90 -4 -5 -10 -30 -13
-55 -3 -25 -9 -65 -12 -90 -7 -49 -35 -109 -72 -153 -13 -16 -23 -36 -23 -45
0 -9 -7 -26 -15 -36 -8 -11 -15 -29 -15 -39 0 -11 -17 -56 -39 -101 -21 -44
-55 -116 -75 -158 -20 -42 -41 -80 -46 -83 -6 -3 -10 -18 -10 -32 0 -14 -16
-51 -35 -83 -19 -32 -35 -61 -35 -65 0 -10 -93 -197 -123 -247 -55 -92 -159
-237 -201 -282 -26 -26 -55 -65 -65 -85 -11 -20 -31 -47 -45 -60 -25 -23 -26
-30 -26 -125 0 -89 -3 -107 -26 -152 -14 -28 -55 -80 -89 -114 l-64 -63 -106
-5 c-97 -4 -109 -3 -135 17 -40 29 -61 27 -96 -10 -16 -17 -42 -37 -59 -44
-16 -7 -44 -27 -61 -43 -16 -16 -41 -33 -55 -37 -13 -4 -40 -16 -59 -26 -19
-11 -51 -19 -72 -19 -20 0 -49 -6 -65 -14 -108 -53 -143 -72 -143 -78 0 -4
-15 -15 -32 -23 -18 -8 -51 -26 -73 -39 -22 -14 -53 -28 -70 -32 -16 -3 -36
-11 -43 -17 -13 -10 -85 -30 -189 -51 -35 -7 -71 -20 -81 -29 -10 -10 -28 -17
-39 -17 -11 0 -28 -9 -38 -20 -10 -11 -25 -20 -34 -20 -9 0 -28 -8 -41 -17
-41 -29 -114 -60 -159 -68 -26 -4 -54 -18 -71 -35 -35 -34 -72 -48 -79 -29 -2
7 -14 23 -27 36 -33 33 -82 31 -129 -7 -21 -16 -42 -30 -47 -30 -14 0 -48 -63
-48 -91 0 -34 42 -72 79 -72 18 0 45 13 75 37 37 31 47 35 52 23 6 -16 -41
-87 -57 -87 -5 0 -9 -5 -9 -10 0 -9 -61 -139 -95 -200 -8 -14 -16 -32 -19 -40
-3 -8 -10 -22 -15 -30 -5 -8 -14 -26 -20 -40 -6 -14 -15 -32 -19 -40 -16 -27
-52 -148 -52 -174 0 -14 -7 -44 -16 -66 -9 -22 -17 -66 -18 -97 -1 -51 -4 -58
-23 -61 -36 -5 -46 49 -47 262 0 191 9 267 40 329 8 16 14 51 14 78 0 40 -6
57 -33 93 -25 32 -35 57 -40 97 -3 30 -12 68 -21 84 -21 39 -21 40 13 111 30
65 37 70 116 88 33 7 53 18 59 31 8 18 17 20 100 17 50 -2 108 -10 129 -18 80
-30 102 -22 192 69 45 45 102 96 126 112 24 17 50 36 57 43 7 6 21 12 31 12 9
0 32 11 51 25 19 14 39 25 45 25 6 0 41 27 78 60 73 64 159 123 198 135 13 4
31 13 39 20 8 7 30 15 49 19 19 3 74 31 123 62 50 32 113 62 146 71 31 8 61
19 66 24 6 5 27 9 47 9 20 0 53 7 72 15 20 8 69 18 109 21 43 4 86 14 104 25
17 11 45 19 62 19 20 0 35 7 41 18 5 10 13 81 16 158 4 80 13 155 21 177 8 20
14 47 14 60 0 20 14 54 57 139 7 14 13 58 13 100 0 56 5 80 20 103 13 20 20
47 20 80 0 28 9 69 20 94 11 24 20 55 20 70 1 31 38 98 97 174 37 46 44 63 49
115 4 34 13 67 20 73 8 6 14 25 14 41 0 16 6 43 14 61 7 18 16 63 20 99 l7 66
-35 36 c-29 28 -36 43 -36 74 0 21 -7 61 -15 88 -8 27 -15 60 -15 74 0 34 22
95 43 118 9 10 17 24 17 31 0 8 15 27 33 45 127 120 255 268 287 331 36 71
152 260 189 307 12 14 21 32 21 40 0 7 7 27 16 43 25 47 47 143 40 178 -3 18
-17 45 -30 62 l-24 29 31 38 c28 35 30 45 38 155 4 65 8 227 8 361 1 224 -1
245 -19 279 -19 35 -20 57 -20 322 0 272 -1 285 -21 318 -25 40 -50 52 -100
46 -29 -4 -41 -13 -62 -46 -25 -38 -27 -49 -27 -149 0 -119 -8 -135 -52 -102
-30 22 -78 96 -78 120 0 9 -7 25 -15 34 -9 10 -20 43 -25 74 -5 31 -16 66 -24
78 -9 12 -16 35 -16 50 0 27 2 28 49 28 28 0 53 -4 56 -10 3 -5 27 -10 52 -10
25 0 74 -5 108 -12 60 -11 65 -10 94 13 74 57 171 163 171 186 0 5 10 19 23
30 12 11 57 57 100 101 59 61 85 81 113 87 64 12 85 28 126 97 22 38 44 71 49
74 5 3 9 15 9 27 0 12 9 36 20 52 11 17 20 43 20 60 0 20 11 41 36 66 l36 37
50 -15 c28 -8 52 -13 54 -11 2 2 -3 23 -11 45 -11 30 -15 91 -14 217 0 158 1
176 19 199 24 30 25 43 5 80 -14 27 -11 57 5 57 4 0 10 -7 14 -15 3 -8 10 -15
15 -15 14 0 43 60 50 104 5 34 13 44 51 67 25 15 56 28 70 29 14 1 41 8 60 15
47 18 80 18 121 -1z m-408 -288 c6 -15 -1 -26 -15 -26 -4 0 -8 9 -8 20 0 23
15 27 23 6z m-1373 -836 c42 -6 91 -6 138 1 56 8 90 7 150 -4 133 -25 205 -35
271 -36 74 -1 101 -18 101 -62 0 -43 -14 -71 -64 -125 -26 -27 -56 -68 -67
-91 -14 -29 -30 -45 -52 -53 -30 -10 -34 -9 -67 28 -46 51 -116 68 -204 49
-56 -11 -61 -15 -84 -57 -22 -42 -23 -52 -17 -139 4 -52 13 -107 21 -122 8
-16 14 -40 14 -55 0 -15 7 -35 16 -45 9 -10 18 -36 21 -58 3 -22 12 -46 19
-52 8 -6 14 -18 14 -26 0 -8 15 -41 33 -73 33 -61 50 -72 162 -106 38 -12 59
-52 45 -88 -12 -32 -69 -85 -91 -86 -9 0 -23 -7 -30 -16 -18 -22 -110 -14
-166 16 -35 18 -43 27 -43 50 0 15 -7 33 -15 40 -8 7 -15 20 -15 29 0 9 -9 34
-20 56 -11 21 -23 55 -26 74 -4 20 -12 43 -19 51 -7 8 -16 33 -20 54 -3 22
-13 49 -21 60 -8 11 -14 30 -14 41 0 11 -7 30 -15 41 -8 12 -19 39 -24 60 -14
55 -39 124 -56 156 -8 14 -15 33 -15 42 0 9 -9 34 -20 56 -11 22 -20 49 -20
60 0 11 -9 38 -20 60 -11 22 -20 55 -20 74 0 20 -10 56 -22 80 -26 55 -16 90
29 99 15 3 44 10 63 15 46 13 72 13 150 2z m1446 -3135 c27 -8 69 -15 94 -15
25 0 61 -8 81 -19 19 -11 62 -22 95 -26 32 -4 68 -13 79 -20 11 -7 36 -16 55
-20 19 -4 40 -11 46 -16 6 -5 26 -15 45 -22 44 -16 207 -106 214 -118 4 -5 14
-9 24 -9 10 0 24 -7 32 -16 7 -8 33 -26 58 -39 25 -13 54 -33 63 -44 10 -12
26 -21 36 -21 11 0 27 -9 37 -20 10 -11 28 -20 40 -20 12 0 30 -9 40 -20 10
-11 28 -20 39 -20 12 0 29 -9 39 -20 9 -11 26 -20 37 -20 11 0 23 -7 26 -15 3
-8 16 -17 27 -21 30 -9 153 -83 168 -100 6 -8 19 -14 29 -14 9 0 25 -9 35 -20
10 -11 26 -20 36 -20 23 0 76 -45 93 -79 22 -42 29 -119 15 -153 -12 -29 -11
-32 34 -73 38 -36 47 -51 53 -91 4 -31 3 -59 -6 -79 -18 -46 -29 -104 -30
-162 0 -29 -6 -70 -14 -90 -8 -21 -17 -50 -20 -65 -4 -15 -21 -53 -40 -85 -23
-40 -35 -76 -39 -116 -3 -32 -11 -65 -17 -72 -7 -8 -13 -51 -15 -95 -2 -54 -8
-87 -18 -98 -12 -14 -16 -76 -22 -351 -5 -237 -11 -345 -20 -371 -10 -28 -14
-121 -15 -357 -1 -175 -1 -330 -1 -344 1 -16 25 -57 63 -105 75 -96 104 -121
144 -129 18 -3 37 -12 44 -20 7 -8 23 -15 35 -15 12 0 34 -9 48 -20 14 -11 33
-20 44 -20 10 0 32 -9 49 -19 17 -10 46 -22 65 -26 18 -4 44 -15 57 -23 21
-14 28 -14 70 1 162 56 172 17 33 -125 -72 -74 -105 -88 -165 -68 -19 6 -41
21 -49 33 -8 13 -34 36 -57 52 l-43 30 -241 0 c-227 -1 -244 -2 -288 -23 -26
-12 -49 -22 -52 -22 -3 0 -27 -14 -53 -30 -85 -54 -97 -40 -92 108 4 76 7 92
29 119 14 18 31 34 39 38 30 12 78 -8 130 -56 55 -51 89 -61 111 -34 22 26 2
85 -49 145 -25 30 -59 72 -74 92 l-27 37 -4 213 c-2 176 -6 220 -20 253 -12
26 -19 70 -21 137 -1 64 -7 103 -16 114 -8 9 -17 55 -22 103 -5 47 -10 102
-12 121 -2 19 -8 64 -14 100 -17 104 -14 385 4 421 9 16 20 48 25 72 4 23 16
61 24 84 12 31 15 75 14 165 -1 98 2 130 15 155 10 19 17 55 17 90 0 41 6 67
20 88 11 17 20 38 20 47 0 9 21 34 46 56 27 23 44 44 40 51 -4 6 -29 20 -55
32 -27 11 -58 31 -70 45 -11 13 -29 24 -40 24 -10 0 -24 7 -32 16 -16 20 -83
54 -106 54 -10 0 -32 8 -48 19 -27 16 -61 19 -260 24 -169 4 -241 10 -270 21
-22 8 -63 15 -90 16 -29 0 -65 8 -85 19 -19 10 -65 20 -103 23 -37 3 -74 11
-82 18 -8 6 -49 16 -91 21 -42 6 -86 15 -96 20 -11 6 -47 15 -81 20 -34 6 -71
16 -82 23 -11 8 -39 17 -63 21 -49 8 -92 52 -92 94 0 40 25 117 44 136 9 9 16
24 16 33 0 9 9 31 20 47 11 17 20 41 20 55 0 14 9 39 20 55 13 19 20 47 20 78
0 28 8 64 20 87 11 22 20 46 20 55 0 8 9 23 20 32 11 10 20 27 20 38 0 27 18
45 45 45 11 0 38 7 60 15 51 18 61 18 121 0z"></path>
</g>
</svg>