 <svg version="1.0" xmlns="http://www.w3.org/2000/svg" width="700.000000pt" height="961.000000pt" viewBox="0 0 700.000000 961.000000" preserveAspectRatio="xMidYMid meet">
<metadata>
Created by potrace 1.12, written by Peter Selinger 2001-2015
</metadata>
<g transform="translate(0.000000,961.000000) scale(0.100000,-0.100000)" fill="#000000" stroke="none">
<path d="M4382 9253 c-7 -3 -38 -20 -69 -39 -31 -19 -64 -34 -74 -34 -9 0 -46
-13 -81 -30 -49 -22 -78 -44 -114 -85 -26 -31 -69 -67 -95 -80 -25 -13 -50
-32 -54 -42 -46 -113 -55 -159 -55 -277 -1 -147 -25 -274 -70 -368 -29 -62
-35 -69 -73 -79 -23 -6 -58 -15 -77 -20 -53 -16 -305 -29 -590 -32 -254 -2
-287 -6 -400 -43 -25 -9 -62 -20 -83 -25 -21 -5 -63 -27 -92 -49 -49 -36 -54
-44 -60 -87 -4 -27 -13 -79 -22 -118 -10 -45 -17 -145 -19 -280 -4 -174 -8
-224 -26 -290 -19 -68 -22 -106 -22 -255 1 -192 18 -540 32 -665 7 -57 20
-103 46 -158 20 -43 36 -83 36 -90 0 -7 7 -25 15 -41 8 -16 22 -53 31 -83 10
-34 29 -68 52 -92 35 -36 41 -39 117 -46 44 -4 92 -13 107 -21 15 -8 47 -17
71 -20 40 -6 47 -3 93 35 86 71 104 90 114 116 6 15 10 107 10 206 0 162 -2
184 -21 220 -25 50 -86 117 -139 154 -61 42 -63 58 -64 420 -1 314 -1 321 22
370 24 51 54 90 84 106 26 14 294 -46 323 -73 12 -11 32 -122 45 -253 5 -55
14 -120 20 -145 6 -25 15 -99 20 -164 6 -66 17 -148 25 -183 8 -36 15 -86 15
-112 0 -26 6 -71 14 -101 7 -30 17 -81 21 -113 3 -32 13 -73 20 -90 17 -42 39
-378 31 -460 -6 -56 -15 -76 -62 -147 -30 -45 -65 -103 -79 -130 -13 -26 -46
-76 -73 -111 -26 -35 -54 -80 -62 -99 -8 -19 -40 -63 -71 -96 -40 -43 -61 -76
-69 -105 -31 -119 -31 -115 -10 -160 15 -33 20 -66 20 -132 0 -112 15 -170 51
-205 16 -15 29 -32 29 -37 0 -6 -20 -31 -45 -55 -26 -25 -47 -56 -50 -74 -3
-17 -14 -51 -24 -76 -44 -107 -80 -207 -85 -236 -3 -18 -30 -83 -61 -145 -30
-62 -55 -119 -55 -126 0 -8 -18 -56 -40 -108 -22 -52 -40 -100 -40 -108 0 -8
-9 -34 -20 -58 -11 -24 -20 -59 -20 -77 0 -18 -6 -45 -14 -60 -15 -29 -46
-162 -53 -229 -7 -57 -36 -82 -109 -93 -33 -4 -72 -15 -89 -23 -16 -8 -52 -25
-80 -38 -27 -13 -70 -39 -94 -58 -24 -18 -58 -38 -75 -43 -76 -26 -199 -137
-243 -220 -19 -37 -46 -74 -60 -83 -36 -24 -61 -51 -128 -140 -77 -101 -105
-147 -125 -205 -42 -123 -198 -307 -281 -331 -24 -7 -69 -27 -99 -44 -30 -16
-68 -36 -83 -44 -36 -19 -154 -138 -174 -174 -11 -22 -12 -35 -4 -59 6 -17 11
-61 11 -98 0 -56 4 -73 30 -113 16 -26 34 -47 39 -47 6 0 15 -17 20 -38 6 -21
27 -53 47 -72 48 -46 96 -122 122 -193 32 -84 61 -137 78 -144 9 -3 36 -49 61
-101 45 -95 45 -96 33 -151 -8 -40 -9 -64 -1 -83 12 -32 67 -69 130 -87 24 -7
61 -23 81 -36 21 -13 55 -28 77 -34 22 -6 57 -25 78 -41 53 -42 74 -45 125
-19 33 18 46 20 59 11 35 -25 72 -43 80 -38 14 9 33 93 26 115 -11 34 -115
140 -159 163 -62 31 -72 43 -96 121 -12 40 -28 92 -36 117 -9 25 -19 64 -24
87 -5 23 -16 58 -25 78 -8 21 -15 50 -15 66 0 15 -9 51 -20 79 -43 110 -16
278 66 405 50 79 157 174 264 237 25 14 54 35 64 47 11 12 43 28 73 37 29 8
55 19 58 24 3 5 30 26 60 46 86 56 315 272 332 311 7 19 32 54 55 79 34 37 46
44 79 44 26 0 75 18 160 60 67 33 133 60 146 60 89 0 213 168 213 289 0 59 32
134 109 259 38 62 73 122 77 134 4 13 38 57 77 98 121 130 250 307 310 426 27
53 44 155 33 197 -3 14 -17 32 -32 42 -24 16 -27 16 -46 -2 -11 -10 -31 -40
-45 -68 -33 -66 -119 -210 -155 -260 -16 -22 -49 -70 -75 -107 -25 -37 -56
-71 -68 -75 -33 -12 -187 -213 -214 -281 -13 -32 -103 -102 -130 -102 -15 0
-141 -125 -141 -139 0 -16 17 -22 83 -31 77 -11 111 -42 97 -88 -14 -50 -29
-71 -65 -89 -18 -10 -47 -37 -64 -60 -34 -47 -122 -103 -162 -103 -14 0 -43
14 -64 30 -21 17 -44 30 -52 30 -8 0 -29 -17 -46 -37 -69 -84 -208 -211 -260
-241 -34 -19 -67 -48 -86 -75 -28 -41 -149 -127 -178 -127 -7 0 -27 -15 -46
-33 -19 -18 -66 -50 -103 -72 -87 -51 -121 -79 -141 -119 -9 -17 -32 -51 -53
-76 -20 -25 -47 -63 -60 -85 -13 -22 -40 -58 -60 -80 -90 -98 -101 -119 -129
-250 -23 -110 -9 -411 23 -474 25 -49 47 -143 41 -172 -4 -16 -16 -35 -27 -43
-71 -50 -208 144 -208 296 0 27 -8 56 -22 78 -12 19 -26 53 -33 75 -9 31 -20
44 -49 58 -25 13 -44 34 -61 67 -14 27 -31 53 -39 57 -20 11 -87 98 -121 158
-24 40 -29 62 -30 112 0 55 3 65 30 93 43 46 60 52 154 61 143 13 268 88 351
209 37 54 102 119 191 191 32 27 49 49 58 80 7 24 19 51 26 59 25 30 126 183
144 219 39 76 98 128 195 175 51 24 118 64 149 89 67 56 161 107 194 107 13 0
33 -5 45 -11 44 -24 128 50 128 113 0 15 11 56 24 90 43 115 75 210 116 348
33 109 77 205 116 252 12 15 25 47 29 70 4 24 16 63 26 87 10 24 19 57 19 73
0 21 7 33 29 46 31 17 70 103 89 194 12 62 96 188 125 188 11 0 43 -15 71 -34
105 -69 151 -97 248 -148 55 -29 111 -60 126 -68 47 -26 112 -83 112 -97 0
-11 15 -14 63 -12 63 2 121 -10 192 -41 56 -24 139 -50 163 -50 11 0 39 -9 63
-20 24 -11 61 -20 82 -20 21 0 48 -6 60 -12 15 -9 94 -15 237 -19 433 -13 610
-26 670 -48 64 -24 115 -63 153 -119 l28 -39 -50 -104 c-80 -164 -82 -186 -87
-704 -3 -435 -4 -454 -29 -570 -31 -148 -58 -254 -73 -282 -7 -12 -17 -45 -23
-74 -6 -28 -33 -107 -60 -175 -38 -95 -49 -136 -49 -179 0 -93 34 -146 117
-180 18 -8 38 -25 44 -39 12 -26 25 -30 154 -42 39 -3 86 -13 105 -21 19 -8
91 -21 160 -28 69 -8 159 -22 200 -30 41 -8 90 -18 108 -21 35 -7 130 15 202
48 111 50 156 76 166 96 6 12 26 32 45 45 46 31 48 63 9 132 -39 67 -77 91
-122 76 -105 -37 -312 38 -440 159 -55 52 -70 73 -75 102 -5 32 -2 41 24 65
29 27 29 30 30 138 1 61 6 130 12 155 6 25 15 109 21 185 6 77 17 163 25 190
23 88 47 188 60 255 7 36 22 99 35 140 37 124 59 212 65 263 5 39 14 56 47 89
l40 40 7 121 c5 67 13 135 20 150 6 16 11 42 11 58 0 16 7 46 15 66 9 20 22
68 30 107 15 70 15 71 -11 121 -15 27 -35 61 -45 74 -11 13 -22 41 -25 63 -10
60 -54 120 -110 149 -33 17 -61 42 -87 80 -25 35 -61 69 -105 97 -37 24 -80
55 -96 69 -16 14 -49 32 -73 39 -24 7 -64 30 -88 50 -47 38 -152 104 -166 104
-5 0 -23 13 -42 29 -37 33 -205 124 -317 171 -145 62 -205 94 -232 122 -16 17
-36 28 -52 28 -18 0 -43 15 -74 44 -57 53 -138 99 -212 120 -33 9 -73 30 -95
50 l-40 34 17 47 c10 26 16 51 13 55 -5 8 19 231 35 330 5 30 9 126 9 213 1
127 4 159 15 163 36 14 86 -49 100 -127 8 -45 28 -63 71 -63 42 0 79 25 110
74 14 22 33 40 43 40 43 0 124 63 219 171 54 62 136 153 183 203 265 281 350
392 375 485 7 27 21 64 30 83 10 18 25 57 35 87 19 60 17 72 -35 220 -31 89
-83 151 -168 200 -91 52 -132 49 -227 -15 -41 -27 -96 -62 -122 -77 -59 -34
-74 -58 -54 -89 9 -15 16 -69 20 -160 11 -216 -17 -310 -104 -357 -41 -21 -53
-23 -113 -17 -49 6 -75 14 -94 30 -28 25 -31 38 -52 253 -9 95 -33 161 -90
253 -39 61 -43 86 -26 150 25 92 14 153 -29 166 -28 9 -30 6 -27 -39 l3 -38
-30 15 c-17 9 -33 26 -37 38 -3 13 -13 40 -22 60 -14 34 -14 39 1 62 23 36 20
52 -19 103 -43 57 -46 89 -7 104 19 7 32 7 44 0 23 -14 91 -14 123 1 25 11 92
104 133 184 26 51 62 157 62 183 0 33 11 51 42 67 47 25 69 89 81 239 17 210
14 252 -22 324 -21 41 -41 66 -59 74 -15 6 -45 30 -68 53 -60 61 -185 151
-257 184 -57 28 -112 36 -145 23z m129 -213 c61 -24 85 -41 132 -92 67 -74 92
-140 102 -278 4 -69 1 -106 -19 -195 -24 -114 -87 -287 -126 -351 -55 -89
-183 -83 -239 11 -17 29 -26 35 -54 35 -44 0 -64 -23 -77 -89 -6 -30 -21 -66
-35 -83 -30 -36 -32 -61 -5 -97 10 -16 23 -46 29 -67 12 -51 70 -189 99 -235
12 -20 22 -48 22 -62 0 -14 7 -59 15 -99 9 -40 18 -101 20 -136 2 -36 15 -90
31 -130 26 -64 27 -79 35 -302 5 -152 4 -262 -3 -310 -5 -41 -11 -176 -12
-300 -2 -163 -7 -250 -20 -315 -12 -63 -17 -138 -17 -250 0 -104 -4 -177 -13
-210 -7 -27 -19 -76 -26 -107 -8 -37 -18 -58 -27 -58 -22 0 -66 26 -102 59
-17 16 -55 36 -83 45 -86 25 -121 -3 -132 -107 -6 -56 -5 -59 26 -88 18 -17
88 -57 156 -89 l123 -59 23 -53 c34 -76 78 -104 180 -113 43 -4 97 -15 120
-26 22 -10 60 -19 84 -19 23 0 57 -6 75 -14 18 -7 59 -16 92 -21 33 -4 65 -10
70 -15 6 -4 35 -15 65 -25 71 -24 133 -56 235 -125 22 -15 65 -40 95 -56 30
-16 75 -43 100 -60 25 -17 72 -46 105 -64 33 -19 76 -46 95 -61 19 -15 50 -30
68 -34 35 -7 313 -188 350 -228 16 -17 27 -52 42 -131 11 -58 25 -126 32 -149
16 -54 14 -272 -2 -312 -7 -16 -18 -52 -25 -80 -18 -68 -57 -171 -85 -225 -13
-25 -31 -72 -41 -105 -26 -89 -58 -184 -80 -237 -10 -26 -19 -57 -19 -70 0
-13 -9 -55 -20 -93 -11 -38 -20 -87 -20 -108 0 -21 -7 -54 -16 -75 -11 -24
-17 -76 -20 -150 -2 -61 -10 -145 -18 -185 -8 -39 -18 -105 -21 -146 -6 -64
-11 -78 -35 -100 -23 -21 -29 -38 -35 -91 -4 -36 -12 -73 -17 -83 -17 -33 0
-65 45 -88 23 -12 71 -50 107 -84 79 -75 184 -134 305 -170 114 -34 135 -47
135 -84 0 -40 -34 -117 -57 -129 -29 -15 -169 -23 -200 -11 -16 6 -39 21 -53
34 -14 13 -44 31 -67 39 -23 8 -77 33 -119 55 -43 23 -81 41 -86 41 -5 0 -22
10 -38 21 -27 21 -32 21 -108 9 -73 -11 -82 -11 -121 8 -23 11 -55 24 -72 27
-17 4 -33 14 -36 22 -7 17 23 144 43 183 21 43 51 142 57 188 3 23 14 66 25
95 39 99 92 282 92 313 0 17 7 51 16 75 13 38 15 94 9 429 -3 212 -10 403 -15
425 -17 70 -12 148 14 218 47 129 123 227 177 227 24 0 42 26 34 49 -4 13 -18
23 -39 27 -19 3 -54 23 -80 44 -52 43 -139 80 -188 80 -18 0 -50 9 -73 20 -23
11 -67 25 -98 31 -31 5 -99 26 -150 45 -73 28 -111 36 -182 40 -49 2 -110 6
-135 8 -25 1 -73 -3 -107 -11 -67 -16 -189 -13 -258 5 -59 16 -136 41 -170 57
-16 8 -44 17 -62 20 -17 3 -37 13 -44 21 -6 8 -17 14 -23 14 -6 0 -33 12 -61
25 -27 14 -60 25 -71 25 -12 0 -27 6 -33 14 -6 7 -25 16 -42 20 -17 3 -62 22
-101 41 -40 19 -77 35 -83 35 -7 0 -20 9 -30 20 -10 11 -25 20 -33 20 -8 0
-27 11 -44 25 -16 14 -35 25 -42 25 -7 0 -21 9 -32 21 -10 11 -32 26 -49 33
-17 8 -76 52 -132 99 -78 67 -109 101 -137 151 -40 71 -47 135 -22 184 7 15
16 59 20 97 25 262 21 246 86 325 20 25 47 63 60 85 13 22 52 83 86 135 35 52
65 104 66 115 1 11 -1 43 -6 72 -7 48 -6 55 28 107 40 63 42 75 21 161 -8 33
-15 81 -15 106 0 26 -7 66 -15 90 -9 24 -20 80 -25 124 -5 44 -14 103 -19 130
-32 159 -51 275 -51 302 0 16 -9 56 -20 88 -13 38 -20 84 -20 132 0 46 -6 88
-16 111 -9 20 -20 69 -24 107 -5 39 -14 89 -21 113 -19 62 -7 75 77 86 74 10
116 10 237 0 67 -5 82 -3 98 12 26 24 18 54 -27 109 -50 62 -139 100 -219 95
-33 -3 -174 -5 -313 -5 l-253 0 -53 58 c-63 68 -87 72 -133 25 -36 -37 -53
-76 -53 -119 0 -16 -12 -53 -26 -81 -43 -84 -56 -167 -63 -388 -5 -146 -3
-228 6 -285 7 -44 13 -126 13 -182 0 -115 -3 -109 110 -220 85 -85 102 -174
46 -239 l-22 -27 -62 22 c-72 24 -86 25 -148 9 -45 -13 -46 -12 -70 17 -36 46
-44 108 -49 400 -2 152 -10 312 -18 365 -10 73 -12 165 -7 395 6 274 8 305 28
362 20 57 21 69 10 130 -9 56 -9 74 3 98 31 65 157 118 197 82 37 -33 153 -48
209 -26 15 6 105 13 198 16 94 2 188 9 210 15 22 6 92 14 156 18 69 4 134 14
161 25 39 14 52 15 83 5 30 -10 40 -9 61 5 24 16 107 136 124 180 5 12 22 32
39 44 44 32 91 114 91 161 0 21 -5 42 -11 46 -6 3 -20 25 -30 48 -16 38 -17
47 -4 96 8 30 19 75 25 100 6 25 18 66 26 91 8 26 14 63 14 83 0 39 35 86 64
86 9 0 30 13 48 29 70 61 97 71 189 71 73 0 98 -5 160 -30z m882 -1662 c46
-14 85 -50 144 -133 70 -98 60 -141 -58 -261 -43 -45 -79 -87 -79 -94 0 -7
-20 -39 -45 -72 -25 -33 -45 -64 -45 -69 0 -5 -40 -53 -88 -107 -49 -54 -104
-125 -122 -158 -48 -84 -190 -221 -238 -230 -20 -4 -54 -15 -74 -25 -73 -37
-112 -24 -162 56 -19 29 -44 58 -55 64 -50 27 -69 235 -35 387 31 143 38 205
26 253 -13 52 -20 216 -10 226 3 4 16 4 27 0 20 -6 24 -16 68 -160 8 -27 18
-97 22 -156 6 -87 13 -116 39 -171 42 -89 78 -118 147 -118 72 0 94 10 180 80
92 75 163 154 185 205 9 22 25 46 34 54 27 23 19 55 -21 88 -57 45 -85 110
-77 173 9 70 53 136 107 160 49 23 75 24 130 8z"></path>
</g>
</svg>