 <svg version="1.0" xmlns="http://www.w3.org/2000/svg" width="700.000000pt" height="961.000000pt" viewBox="0 0 700.000000 961.000000" preserveAspectRatio="xMidYMid meet">
<metadata>
Created by potrace 1.12, written by Peter Selinger 2001-2015
</metadata>
<g transform="translate(0.000000,961.000000) scale(0.100000,-0.100000)" fill="#000000" stroke="none">
<path d="M4305 9355 c-26 -10 -70 -14 -127 -12 -76 2 -90 -1 -117 -21 -17 -12
-34 -22 -39 -22 -10 0 -70 -62 -86 -88 -6 -11 -19 -34 -30 -53 -10 -18 -25
-39 -32 -47 -8 -7 -14 -18 -14 -24 0 -6 -7 -20 -17 -30 -10 -11 -17 -38 -18
-68 -1 -30 -8 -57 -18 -68 -9 -10 -17 -34 -17 -53 0 -19 -7 -52 -15 -74 -8
-22 -15 -62 -15 -90 0 -27 -8 -68 -16 -90 -8 -22 -19 -65 -23 -95 -6 -37 -20
-72 -42 -104 -19 -26 -52 -74 -74 -107 -36 -52 -96 -109 -117 -109 -20 0 -218
-220 -218 -243 0 -5 -10 -20 -22 -31 -13 -12 -30 -33 -38 -46 -19 -31 -69 -79
-95 -91 -11 -6 -42 -23 -70 -39 -27 -15 -99 -53 -160 -84 -212 -108 -256 -137
-333 -220 -21 -22 -66 -69 -101 -105 -65 -66 -101 -135 -101 -191 0 -14 -7
-36 -16 -49 -23 -33 -4 -116 36 -161 17 -19 30 -39 30 -46 0 -6 7 -25 15 -40
8 -16 15 -43 15 -60 0 -18 8 -38 20 -49 13 -12 20 -31 20 -55 0 -21 6 -43 14
-49 8 -7 17 -30 21 -51 4 -21 13 -44 20 -50 8 -6 17 -26 21 -43 3 -18 10 -37
15 -43 5 -6 21 -33 35 -60 14 -27 34 -58 45 -70 10 -11 19 -23 19 -27 0 -6 35
-60 60 -91 19 -24 142 -147 163 -163 9 -7 21 -13 27 -13 37 0 160 -80 160
-105 0 -6 -12 -22 -26 -36 -14 -13 -42 -49 -62 -79 -21 -30 -51 -68 -68 -85
-36 -35 -74 -96 -74 -117 0 -9 -7 -21 -15 -28 -8 -7 -17 -28 -21 -49 -4 -20
-15 -47 -25 -60 -11 -13 -19 -29 -19 -36 0 -7 -6 -18 -14 -24 -13 -11 -29 -78
-26 -111 0 -8 4 -76 9 -150 8 -136 32 -232 67 -271 8 -8 14 -22 14 -31 0 -8 9
-23 20 -33 26 -24 25 -36 -11 -130 -17 -44 -33 -91 -36 -105 -2 -14 -13 -41
-22 -60 -10 -19 -21 -55 -25 -79 -4 -24 -13 -56 -21 -72 -8 -15 -15 -43 -15
-61 0 -18 -9 -50 -20 -71 -11 -21 -20 -56 -20 -82 0 -24 -6 -59 -14 -77 -8
-18 -21 -64 -30 -103 -9 -38 -21 -87 -27 -108 -5 -22 -7 -54 -3 -72 4 -22 0
-44 -12 -66 -21 -41 -35 -209 -33 -407 0 -100 -3 -138 -14 -155 -7 -12 -17
-33 -20 -47 -3 -14 -41 -61 -84 -105 -43 -44 -117 -123 -166 -175 -48 -52
-121 -130 -162 -173 -63 -65 -84 -96 -134 -200 -78 -161 -101 -220 -101 -261
0 -18 -8 -44 -19 -57 -10 -13 -24 -41 -30 -61 -7 -21 -22 -44 -33 -52 -11 -8
-24 -33 -29 -55 -10 -44 -28 -75 -103 -176 -38 -51 -76 -108 -116 -175 -4 -8
-27 -53 -50 -100 -42 -84 -103 -170 -121 -170 -5 0 -38 -30 -72 -66 -61 -66
-107 -139 -107 -172 0 -9 -7 -30 -16 -47 -9 -16 -18 -63 -20 -103 l-4 -72 52
-50 c29 -28 58 -50 66 -50 8 0 34 -18 58 -40 24 -22 48 -40 53 -40 6 0 27 -12
48 -26 89 -60 156 -82 264 -83 21 -1 57 -14 90 -34 30 -18 83 -45 119 -61 36
-16 72 -35 81 -42 8 -8 25 -14 37 -14 12 0 27 -9 34 -20 8 -12 24 -20 40 -20
14 0 34 -8 44 -17 16 -16 39 -18 199 -17 150 1 186 4 214 18 18 10 69 21 113
26 98 10 116 23 102 77 -9 38 -9 38 -73 46 -35 4 -76 14 -92 22 -15 8 -40 15
-55 15 -53 0 -133 51 -182 115 -25 33 -82 98 -127 145 -108 112 -133 164 -136
285 -2 72 1 97 16 125 20 38 51 84 75 110 8 9 22 27 30 40 30 47 74 92 154
157 105 86 157 141 286 297 154 188 191 226 226 241 25 10 34 21 39 48 7 34
35 71 169 216 85 92 126 157 126 197 0 33 44 159 63 183 13 15 48 30 92 40
l30 7 2 126 c2 120 3 128 30 169 15 23 31 47 34 53 13 25 46 89 120 234 42 83
80 165 84 181 3 16 13 35 21 42 8 6 14 22 14 34 0 12 9 34 20 48 11 14 20 31
20 39 0 8 7 23 15 34 8 10 15 26 15 34 0 8 9 32 20 53 11 20 20 49 20 64 0 45
51 185 82 224 15 20 28 41 28 46 0 6 9 18 20 28 12 11 20 31 20 50 0 17 6 40
14 51 14 19 16 18 70 -9 31 -16 56 -33 56 -38 0 -5 8 -9 18 -9 10 0 33 -11 52
-25 19 -14 39 -25 46 -25 6 0 17 -7 24 -15 7 -8 23 -15 36 -15 13 0 32 -9 41
-20 10 -11 30 -20 46 -20 15 0 44 -8 65 -19 23 -12 67 -20 118 -23 53 -3 89
-10 105 -21 14 -10 43 -17 70 -17 29 0 51 -6 59 -15 7 -8 27 -15 44 -15 36 0
72 -22 63 -37 -4 -6 -22 -14 -40 -17 -33 -6 -97 -35 -120 -54 -7 -6 -24 -13
-40 -17 -15 -4 -27 -11 -27 -16 0 -5 -13 -15 -28 -23 -16 -8 -47 -33 -69 -55
-22 -23 -45 -41 -49 -41 -5 0 -36 -24 -69 -54 -61 -54 -112 -86 -139 -86 -8 0
-23 -12 -33 -26 -29 -41 -135 -154 -145 -154 -5 0 -39 -24 -76 -53 -114 -90
-125 -96 -186 -100 -33 -3 -64 -11 -74 -21 -10 -9 -28 -16 -39 -16 -11 0 -28
-9 -38 -20 -10 -11 -23 -20 -29 -21 -6 0 -30 -24 -53 -54 -29 -37 -54 -57 -80
-65 -107 -35 -119 -120 -32 -230 15 -19 30 -50 34 -68 4 -18 17 -45 29 -60 12
-15 33 -45 46 -67 13 -22 26 -42 29 -45 16 -14 91 -132 91 -143 0 -7 9 -25 19
-41 13 -19 19 -47 20 -86 0 -46 7 -70 31 -112 16 -29 35 -65 41 -81 6 -15 14
-27 18 -27 9 0 111 -74 137 -99 12 -12 25 -21 31 -21 5 0 29 -14 53 -32 42
-31 117 -64 170 -74 14 -3 44 -10 68 -16 62 -16 122 9 162 68 30 45 36 69 22
91 -12 19 -76 59 -105 67 -18 4 -34 20 -47 46 -11 21 -29 48 -40 58 -34 32
-52 102 -63 247 -12 166 -13 242 -2 310 9 56 20 75 44 75 9 0 35 18 59 40 24
22 51 40 61 40 10 0 24 7 31 15 7 8 26 15 42 15 16 0 31 6 34 15 4 8 15 15 25
15 11 0 49 14 84 30 61 29 177 74 220 87 11 4 31 14 44 25 13 10 32 18 41 18
10 0 23 6 29 14 6 7 25 16 42 20 17 3 37 13 45 21 9 8 26 15 39 15 14 0 29 9
35 20 7 13 21 20 39 20 16 0 31 7 34 15 4 8 21 21 39 29 37 17 53 27 114 71
87 62 141 111 168 153 16 24 45 54 66 67 21 13 41 29 45 35 3 5 13 10 21 10 9
0 44 25 77 55 34 30 68 55 75 55 7 0 35 18 63 40 28 22 57 40 65 40 17 0 16
-16 19 183 l4 167 -56 53 c-52 48 -147 161 -183 217 -29 45 -117 145 -136 155
-10 6 -34 25 -53 42 -19 18 -47 35 -63 38 -15 4 -31 12 -35 19 -5 8 -21 20
-38 29 -37 19 -94 64 -158 124 -46 43 -112 93 -123 93 -3 0 -21 16 -41 35 -20
19 -43 35 -51 35 -9 0 -28 11 -42 25 -26 25 -59 44 -218 127 -61 31 -96 58
-129 95 -24 29 -52 53 -62 53 -9 0 -25 6 -36 14 -11 7 -46 16 -79 20 -32 3
-67 11 -78 17 -26 14 -21 38 26 149 20 46 36 93 36 105 0 11 9 37 20 58 15 28
20 56 20 117 0 46 6 95 14 114 17 40 60 76 93 76 30 0 174 59 243 99 8 5 26
14 40 20 27 12 62 32 70 41 3 3 28 19 55 34 28 16 58 37 68 47 10 11 30 19 45
19 15 0 47 9 71 20 24 11 49 20 57 20 7 0 33 9 56 19 24 10 68 29 98 42 30 13
73 36 95 50 22 15 51 30 65 34 14 4 36 16 50 27 35 28 100 138 100 171 0 15 6
40 14 55 17 33 30 205 21 271 -6 45 -12 53 -62 93 -30 23 -63 51 -73 61 -25
26 -90 33 -126 14 -16 -8 -69 -17 -118 -21 -104 -8 -146 -30 -146 -74 0 -15
-10 -46 -22 -69 -31 -56 -183 -218 -233 -247 -88 -51 -433 -90 -464 -52 -14
16 -5 90 14 121 23 38 55 154 55 201 0 27 -6 54 -14 63 -11 12 -16 64 -21 225
-3 115 -8 221 -12 235 -3 14 -23 43 -44 64 -22 21 -39 47 -39 60 0 12 -9 40
-19 62 -11 22 -22 47 -25 57 -4 14 -42 48 -148 133 -57 46 -18 155 55 155 37
0 133 -58 181 -109 23 -23 32 -28 43 -20 7 6 13 17 13 25 0 7 16 25 35 40 51
38 95 106 163 245 67 141 79 171 97 251 7 31 27 76 44 101 26 39 31 55 31 107
0 33 -6 73 -14 88 -7 15 -16 43 -20 62 -9 49 -45 133 -91 213 -22 38 -46 78
-52 90 -7 12 -13 31 -13 41 0 28 -66 103 -119 137 -27 17 -60 29 -81 29 -19 0
-46 7 -60 15 -32 18 -104 18 -155 0z m158 -198 c44 -19 103 -87 132 -154 14
-30 25 -60 25 -65 0 -5 25 -51 55 -103 59 -100 62 -112 41 -153 -7 -15 -16
-54 -19 -87 -10 -90 -50 -195 -100 -262 -24 -32 -48 -69 -52 -83 -12 -39 -46
-79 -94 -111 -54 -35 -69 -32 -127 27 -40 42 -96 74 -128 74 -24 0 -109 -77
-128 -116 -16 -33 -16 -41 -4 -78 24 -69 46 -117 74 -160 15 -22 32 -50 39
-61 14 -22 80 -158 120 -245 13 -30 47 -100 74 -155 l49 -101 -12 -88 c-15
-103 -32 -124 -70 -90 -55 48 -94 -7 -78 -108 18 -109 32 -163 46 -179 15 -17
17 -35 14 -142 -2 -55 -3 -58 -35 -71 -37 -16 -68 -56 -63 -82 5 -29 51 -54
123 -69 90 -19 276 -20 313 -1 15 7 46 16 70 19 24 3 51 12 60 20 9 9 69 25
132 36 63 12 128 24 144 28 18 3 59 34 103 77 l73 70 -6 51 c-6 61 19 108 69
131 17 8 39 18 47 22 112 61 128 63 183 27 34 -23 37 -30 37 -71 0 -36 -7 -54
-35 -91 -36 -47 -42 -67 -25 -78 6 -3 10 -25 10 -49 0 -44 -23 -84 -93 -166
-36 -41 -101 -90 -121 -90 -7 0 -24 -8 -37 -18 -24 -18 -73 -42 -164 -82 -27
-12 -58 -25 -67 -31 -10 -5 -59 -23 -110 -39 -51 -17 -101 -35 -111 -40 -10
-6 -37 -15 -60 -20 -23 -5 -80 -22 -127 -39 -59 -22 -102 -31 -140 -30 -80 1
-192 -11 -216 -22 -35 -18 -94 5 -143 55 -42 43 -44 47 -38 89 6 44 -19 137
-43 161 -5 5 -10 28 -10 50 0 24 -8 54 -20 71 -11 17 -20 45 -20 63 0 18 -9
50 -20 72 -11 22 -20 51 -20 65 0 14 -9 42 -20 62 -11 21 -20 48 -20 61 0 25
-22 71 -52 113 -16 21 -21 52 -28 153 -5 72 -13 133 -20 141 -17 20 -54 19
-72 -2 -17 -20 -16 -105 1 -169 6 -22 15 -91 21 -154 23 -254 64 -418 140
-570 10 -19 23 -72 29 -118 6 -45 17 -95 26 -112 8 -16 15 -34 15 -39 0 -16
48 -84 84 -117 18 -17 63 -40 99 -53 57 -19 72 -20 108 -11 73 20 90 -8 44
-70 -14 -19 -25 -41 -25 -50 0 -8 -9 -32 -20 -53 -11 -20 -20 -56 -20 -79 0
-26 -8 -55 -20 -73 -11 -16 -20 -42 -20 -56 0 -15 -9 -38 -20 -52 -11 -14 -20
-30 -20 -37 0 -6 -9 -28 -20 -48 -10 -20 -22 -44 -25 -52 -3 -8 -25 -46 -49
-85 -73 -116 -109 -196 -112 -250 -2 -27 -3 -53 -4 -56 0 -4 -9 -9 -20 -12
-11 -3 -20 -14 -20 -24 0 -10 -5 -24 -11 -30 -14 -14 -48 -208 -49 -274 0 -25
-7 -54 -15 -65 -8 -10 -15 -37 -15 -59 -1 -22 -8 -58 -16 -80 -38 -103 -64
-182 -64 -198 0 -10 -7 -31 -15 -48 -9 -16 -19 -59 -22 -94 -3 -36 -12 -70
-19 -76 -8 -6 -14 -28 -14 -49 0 -23 -7 -43 -19 -54 -10 -9 -21 -30 -25 -47
-3 -16 -14 -32 -23 -36 -34 -13 -63 -53 -63 -88 0 -23 -6 -38 -19 -44 -10 -6
-21 -21 -24 -33 -4 -13 -32 -51 -64 -85 -78 -84 -100 -115 -109 -148 -4 -16
-20 -48 -36 -71 -15 -23 -28 -46 -28 -52 0 -5 -18 -32 -40 -60 -22 -27 -40
-55 -40 -62 0 -6 -9 -24 -21 -38 -43 -55 -109 -163 -115 -187 -4 -16 0 -35 11
-51 15 -23 21 -25 60 -20 51 8 55 2 55 -84 0 -50 -4 -63 -27 -88 -34 -36 -83
-62 -118 -62 -23 0 -65 -30 -65 -47 0 -13 -141 -157 -207 -212 -35 -28 -63
-59 -63 -68 0 -8 -9 -30 -19 -47 -10 -17 -22 -56 -26 -86 l-7 -55 -187 -189
c-223 -226 -195 -196 -276 -292 -36 -43 -96 -112 -132 -152 -37 -40 -86 -102
-110 -138 -24 -36 -52 -77 -63 -91 -11 -14 -20 -38 -20 -52 0 -31 -29 -73
-100 -147 -54 -56 -64 -92 -33 -126 21 -23 105 -25 123 -3 7 8 21 15 32 15 11
0 32 7 48 16 37 22 63 13 54 -20 -3 -13 -1 -27 5 -31 6 -3 17 -21 25 -38 7
-18 61 -86 120 -152 122 -138 130 -160 54 -159 -30 0 -54 7 -66 17 -10 9 -30
17 -45 17 -16 0 -30 8 -37 20 -7 13 -21 20 -40 20 -17 0 -30 4 -30 9 0 12 -94
75 -133 90 -16 6 -40 11 -54 11 -13 0 -36 9 -50 20 -14 11 -33 20 -43 20 -9 0
-25 9 -35 20 -10 11 -30 20 -44 20 -15 0 -43 9 -64 20 -23 12 -56 20 -87 20
-72 0 -145 38 -160 84 -22 67 38 157 141 209 55 29 64 37 61 58 -4 36 17 103
41 130 40 45 87 108 87 116 0 5 13 25 30 44 28 35 120 168 120 175 0 2 14 24
31 49 17 25 42 67 56 93 14 26 33 56 44 68 10 11 19 23 19 27 0 4 20 40 44 80
62 102 176 318 176 332 0 7 9 24 20 38 11 14 20 35 20 47 0 30 53 93 208 247
72 73 132 139 132 147 0 23 59 85 96 101 87 36 113 165 74 373 -20 105 -21
127 -10 164 7 24 16 96 19 160 5 89 11 121 24 136 9 10 17 28 17 39 0 11 9 28
20 38 11 10 20 28 20 40 0 13 6 28 14 34 7 6 17 30 20 53 4 24 13 49 20 58 7
8 16 37 20 64 3 27 13 60 21 72 8 13 15 40 15 61 1 21 9 56 20 78 11 22 19 54
20 70 0 17 7 63 15 103 9 44 15 117 14 190 -2 82 2 127 12 151 15 34 9 105
-12 156 -10 26 -17 82 -29 225 -9 111 -2 191 21 230 5 8 23 43 40 76 21 41 75
108 160 199 71 75 129 143 129 151 0 7 8 18 18 23 11 6 34 24 52 41 28 26 34
40 40 93 4 37 19 84 36 117 37 72 37 151 -1 242 -17 42 -28 89 -31 143 -3 44
-14 101 -25 127 -16 39 -19 72 -19 206 0 116 -4 171 -15 202 -21 60 -21 317 0
344 10 13 15 43 15 82 0 34 6 79 14 101 8 22 17 68 20 103 4 42 13 71 25 85
10 11 38 56 61 100 23 44 61 103 86 131 24 29 44 57 44 63 0 6 9 16 20 23 11
7 20 23 20 36 0 12 7 25 15 28 9 4 15 19 15 35 0 22 6 32 23 38 39 15 116 100
148 162 26 52 29 68 29 152 0 77 4 105 25 155 14 34 25 79 25 101 0 21 6 44
14 50 8 7 18 25 21 41 3 16 13 34 21 41 8 6 14 19 14 29 0 9 9 29 20 43 11 14
20 31 20 39 0 25 96 108 132 114 18 4 39 12 47 18 31 24 196 33 244 13z
m-1253 -1596 c0 -17 -4 -32 -8 -35 -5 -3 -12 -42 -15 -86 -6 -71 -10 -85 -38
-120 l-33 -40 23 -40 c25 -44 21 -74 -11 -91 -11 -6 -36 -25 -56 -43 -21 -18
-54 -39 -74 -45 -75 -25 -158 -138 -144 -196 4 -15 19 -38 33 -51 21 -19 27
-36 31 -79 3 -36 11 -60 23 -71 12 -11 19 -31 19 -54 0 -21 7 -43 15 -50 8 -7
15 -25 15 -40 0 -15 9 -35 20 -45 13 -12 20 -31 20 -55 0 -24 7 -43 20 -55 11
-10 20 -28 20 -39 0 -31 61 -76 103 -76 50 0 61 -19 54 -91 -8 -91 -59 -137
-100 -89 -9 11 -26 20 -38 20 -53 0 -201 156 -254 267 -8 17 -19 34 -24 37 -5
4 -12 19 -16 35 -3 16 -13 35 -21 42 -8 6 -14 19 -14 29 0 9 -9 25 -20 35 -11
10 -20 31 -20 47 0 16 -6 31 -15 34 -8 3 -17 21 -21 40 -3 18 -12 38 -20 45
-8 6 -14 17 -14 23 0 6 -16 43 -35 81 -54 107 -85 204 -85 266 1 83 24 114
190 252 27 22 81 57 89 57 4 0 18 9 31 20 13 11 31 20 40 20 9 0 25 9 35 20
10 11 28 20 39 20 12 0 29 9 39 20 9 11 24 20 32 20 8 0 38 16 65 35 27 19 56
35 64 35 8 0 18 5 21 10 13 22 35 10 35 -19z m-47 -689 c10 -10 24 -40 33 -65
15 -44 15 -49 -3 -79 -21 -36 -49 -46 -75 -26 -14 10 -18 30 -20 89 -1 41 2
81 6 87 11 18 41 14 59 -6z m1237 -1663 c28 -21 131 -78 170 -94 34 -14 83
-47 93 -62 4 -7 14 -13 21 -13 7 0 24 -8 37 -19 13 -10 47 -32 75 -47 28 -16
61 -36 75 -45 34 -23 171 -112 191 -124 26 -16 93 -65 173 -127 41 -32 77 -58
80 -58 5 0 247 -242 305 -304 8 -9 34 -33 58 -53 23 -21 42 -45 42 -54 0 -10
7 -25 16 -34 20 -20 36 -143 28 -209 -6 -41 -15 -58 -54 -98 -25 -26 -54 -48
-63 -48 -9 0 -44 -24 -78 -52 -105 -89 -168 -138 -178 -138 -5 0 -15 -7 -22
-16 -7 -9 -22 -20 -34 -26 -11 -5 -38 -20 -60 -33 -22 -13 -69 -38 -105 -56
-36 -18 -106 -61 -156 -95 -99 -69 -142 -89 -231 -109 -73 -16 -150 -45 -183
-68 -13 -9 -29 -17 -35 -17 -6 0 -25 -14 -44 -30 -18 -17 -45 -37 -59 -44 -15
-8 -38 -26 -52 -41 -14 -15 -38 -33 -55 -41 -16 -8 -42 -22 -56 -31 -65 -45
-85 -59 -104 -76 -11 -11 -30 -26 -42 -34 -13 -9 -23 -20 -23 -27 0 -6 -7 -23
-14 -38 -10 -19 -16 -72 -18 -171 -3 -126 -1 -146 16 -172 13 -19 21 -57 26
-119 4 -50 14 -109 24 -130 9 -23 13 -43 8 -48 -5 -5 -32 -1 -63 10 -54 18
-63 28 -159 154 -11 14 -20 36 -20 49 0 12 -7 30 -15 39 -9 10 -19 39 -24 66
-4 27 -12 58 -18 69 -6 11 -24 54 -40 95 -24 63 -36 80 -72 104 -59 40 -93 93
-85 135 9 44 43 65 93 57 37 -6 41 -3 76 40 20 25 60 59 89 75 65 38 142 93
181 128 17 15 41 33 55 39 23 11 34 17 78 42 9 6 28 16 42 23 14 7 38 21 53
31 45 31 224 212 232 234 6 19 84 105 116 127 8 6 30 22 49 36 49 36 117 69
141 69 11 0 22 6 25 14 3 8 19 19 34 25 18 6 32 19 36 34 8 33 44 42 91 21 35
-14 90 -28 168 -40 20 -3 41 2 63 15 26 17 32 27 32 54 0 39 -33 68 -99 88
-31 9 -51 24 -73 55 -32 45 -41 49 -128 60 -30 4 -62 12 -70 19 -8 7 -26 16
-40 20 -14 4 -32 13 -40 20 -8 7 -32 18 -52 24 -21 7 -40 17 -43 22 -4 5 -16
9 -28 9 -12 0 -34 6 -48 14 -14 7 -59 16 -100 20 -41 4 -87 14 -104 21 -38 18
-184 65 -200 65 -7 0 -18 6 -24 14 -6 7 -25 16 -41 20 -16 3 -55 26 -85 51
-31 25 -64 45 -74 45 -11 0 -22 8 -27 18 -4 9 -11 96 -14 192 -3 96 -10 183
-14 192 -6 13 -2 20 16 29 24 12 137 135 147 161 3 8 26 40 51 71 l45 57 45
-6 c25 -3 56 -14 70 -25z"></path>
</g>
</svg>