 <svg version="1.0" xmlns="http://www.w3.org/2000/svg" width="700.000000pt" height="961.000000pt" viewBox="0 0 700.000000 961.000000" preserveAspectRatio="xMidYMid meet">
<metadata>
Created by potrace 1.12, written by Peter Selinger 2001-2015
</metadata>
<g transform="translate(0.000000,961.000000) scale(0.100000,-0.100000)" fill="#000000" stroke="none">
<path d="M4130 9159 c-52 -33 -86 -49 -104 -49 -8 0 -19 -7 -26 -15 -7 -8 -18
-15 -26 -15 -18 0 -64 -51 -64 -71 0 -9 -9 -28 -20 -42 -11 -14 -20 -32 -20
-40 0 -8 -9 -26 -20 -40 -11 -14 -20 -40 -20 -61 0 -19 -7 -51 -16 -70 -16
-32 -16 -41 1 -130 16 -85 17 -103 5 -152 -8 -31 -22 -66 -32 -79 -10 -13 -18
-28 -18 -34 0 -14 -57 -98 -88 -129 -26 -26 -38 -27 -85 -7 -56 23 -276 21
-342 -4 -108 -41 -184 -50 -272 -31 -34 7 -63 7 -98 -1 -27 -6 -160 -14 -295
-18 -282 -7 -309 -14 -310 -80 0 -13 -10 -39 -21 -58 -24 -38 -24 37 0 -693
13 -380 22 -511 36 -540 8 -16 15 -100 20 -225 6 -174 9 -203 26 -224 10 -13
19 -31 19 -40 0 -22 60 -61 96 -61 16 0 43 -9 59 -20 17 -11 40 -20 53 -20 13
0 37 -7 54 -16 19 -10 67 -18 127 -21 84 -4 99 -2 120 15 21 17 24 27 22 73
-2 57 7 68 49 69 28 1 80 48 104 95 9 17 16 49 16 73 0 23 5 50 11 61 20 31 2
91 -41 133 -21 21 -47 38 -58 38 -12 0 -24 5 -28 11 -7 12 -115 62 -156 72
-22 6 -30 17 -43 60 -26 82 -31 174 -12 211 9 17 20 69 26 116 6 47 15 103 20
125 6 22 13 57 16 77 8 53 30 62 115 49 38 -6 113 -11 168 -11 142 0 137 9
135 -233 0 -106 -1 -207 -2 -224 0 -18 0 -50 1 -70 1 -21 1 -69 1 -108 -3
-127 4 -319 12 -360 4 -22 14 -54 22 -72 7 -18 13 -48 13 -68 0 -20 7 -47 16
-60 9 -14 20 -63 25 -112 5 -49 12 -104 15 -123 5 -33 3 -38 -32 -60 -20 -14
-42 -34 -48 -45 -6 -11 -18 -32 -28 -47 -10 -15 -18 -34 -18 -43 0 -8 -9 -23
-20 -32 -11 -10 -20 -26 -20 -36 0 -10 -9 -30 -20 -44 -11 -14 -20 -34 -20
-44 0 -11 -9 -36 -20 -56 -11 -21 -20 -48 -20 -60 0 -12 -6 -26 -13 -30 -8 -4
-17 -22 -20 -40 -4 -18 -22 -54 -41 -81 -52 -75 -64 -103 -72 -173 -3 -35 -15
-83 -25 -106 -11 -23 -19 -56 -19 -74 0 -18 -11 -60 -25 -94 -29 -74 -30 -92
-15 -210 12 -97 31 -169 60 -226 11 -20 22 -58 25 -85 6 -43 3 -54 -19 -83
-14 -19 -26 -40 -26 -45 0 -6 -26 -65 -59 -131 -32 -66 -73 -156 -91 -200 -18
-44 -41 -96 -51 -116 -10 -20 -19 -47 -19 -61 0 -13 -6 -32 -13 -43 -18 -26
-41 -185 -33 -223 5 -20 1 -35 -14 -54 -11 -14 -20 -32 -20 -40 0 -7 -9 -26
-20 -43 -11 -16 -20 -42 -20 -57 0 -27 -29 -88 -43 -88 -4 0 -12 -11 -17 -25
-13 -33 -36 -42 -59 -21 -24 22 -278 23 -340 1 -23 -8 -72 -18 -109 -21 -63
-7 -89 -17 -198 -78 -51 -28 -124 -55 -189 -68 -27 -6 -57 -14 -65 -19 -8 -5
-26 -14 -40 -19 -14 -6 -32 -15 -40 -20 -8 -6 -22 -13 -30 -16 -8 -3 -32 -14
-52 -24 -20 -11 -46 -20 -56 -20 -11 0 -31 -9 -45 -20 -14 -11 -32 -20 -40
-20 -9 0 -22 -7 -31 -15 -29 -29 -152 -88 -200 -96 -27 -5 -56 -15 -65 -23 -9
-7 -36 -16 -61 -19 -25 -2 -67 -12 -95 -22 -95 -33 -110 -37 -137 -42 -15 -3
-46 2 -68 11 -47 19 -161 21 -178 4 -7 -7 -12 -22 -12 -34 0 -27 -44 -64 -76
-64 -23 0 -52 -24 -81 -68 -25 -37 -7 -138 37 -212 5 -8 25 -46 44 -85 40 -82
52 -147 36 -190 -7 -16 -13 -83 -15 -148 -2 -92 -6 -122 -19 -136 -9 -9 -16
-24 -16 -33 0 -8 -8 -26 -19 -39 -21 -27 -35 -107 -22 -127 4 -8 33 -26 62
-41 38 -19 56 -34 59 -51 15 -63 80 -151 143 -193 37 -24 168 -35 184 -15 19
22 18 81 -1 123 -16 33 -17 44 -6 89 6 28 16 98 22 156 11 117 42 199 97 258
17 18 31 38 31 43 0 6 16 30 35 53 19 24 35 47 35 53 0 19 84 95 125 113 24
10 46 24 50 30 11 19 87 50 120 50 17 0 56 9 88 20 36 13 82 20 127 20 45 0
82 6 101 16 17 8 58 18 91 21 33 2 74 13 92 24 17 10 45 19 61 19 17 1 41 7
55 15 14 8 46 14 73 15 26 0 87 9 135 19 48 11 111 22 140 26 35 5 62 15 79
31 14 13 31 24 38 24 7 0 29 11 49 25 24 16 57 27 94 31 31 3 73 12 94 21 31
13 53 14 144 5 113 -11 207 1 258 32 11 8 36 17 54 21 18 4 53 22 77 41 25 19
49 34 55 34 5 0 14 9 20 20 6 11 18 20 26 20 14 0 32 17 117 111 26 29 114
156 135 195 7 13 18 24 24 24 14 0 57 36 175 148 57 53 103 102 103 109 0 6
17 33 38 60 43 54 82 117 111 179 11 23 24 45 30 48 6 4 11 16 11 27 0 10 9
27 20 36 11 10 20 27 20 39 0 12 7 27 15 34 8 7 17 27 21 46 3 18 12 38 20 45
8 6 14 20 14 30 0 23 32 41 57 33 40 -14 109 -49 157 -81 28 -18 56 -33 62
-33 6 0 17 -7 24 -15 7 -8 27 -17 46 -21 18 -3 38 -12 45 -20 6 -8 19 -14 29
-14 9 0 29 -9 43 -20 14 -11 32 -20 41 -20 9 0 24 -9 33 -20 10 -11 27 -20 39
-20 12 0 27 -7 34 -15 7 -8 27 -17 46 -21 18 -3 38 -12 44 -19 6 -8 29 -16 51
-20 21 -4 39 -11 39 -15 0 -5 18 -15 40 -21 22 -7 45 -18 51 -26 6 -7 25 -13
41 -13 16 0 42 -10 58 -21 18 -14 35 -19 46 -15 10 4 34 -1 54 -10 19 -9 41
-20 49 -24 8 -3 19 -20 25 -36 6 -16 23 -46 38 -65 15 -19 31 -55 37 -79 14
-63 -2 -361 -23 -420 -23 -65 -23 -382 0 -425 8 -16 18 -52 21 -80 3 -27 11
-57 18 -65 8 -8 16 -37 18 -65 3 -28 12 -54 21 -61 9 -6 16 -26 16 -46 0 -20
9 -46 20 -61 11 -14 20 -36 20 -49 0 -13 9 -40 20 -61 11 -20 20 -56 20 -80 0
-23 7 -53 16 -66 20 -28 39 -207 49 -452 5 -145 3 -187 -10 -237 -13 -54 -14
-66 -2 -89 8 -16 17 -45 21 -65 7 -40 45 -78 77 -78 10 0 23 -9 29 -20 6 -11
16 -20 22 -20 6 0 19 -6 27 -14 9 -7 40 -21 69 -30 l52 -17 68 29 c53 24 88
31 168 36 55 3 114 12 130 20 21 11 71 15 184 16 173 2 212 9 261 45 19 13 45
29 59 35 40 18 120 70 178 117 30 24 58 43 62 43 9 0 25 40 22 53 -2 5 7 35
18 66 25 72 25 85 -2 121 -19 27 -28 30 -73 30 -29 0 -65 -6 -81 -14 -21 -11
-76 -16 -190 -18 -140 -3 -164 -1 -180 14 -11 9 -31 20 -46 23 -16 4 -28 11
-28 15 0 4 -22 25 -49 45 -89 68 -121 137 -126 276 -2 36 -10 80 -19 96 -8 17
-16 48 -17 69 -1 22 -9 82 -19 134 -31 160 -51 355 -54 534 -2 94 -9 224 -17
289 -11 97 -11 125 0 160 20 63 25 215 12 367 -7 91 -8 148 -1 175 5 22 13 88
16 147 l7 106 -42 63 c-23 34 -54 72 -69 83 -34 27 -75 63 -170 149 -41 37
-86 76 -101 85 -29 18 -58 43 -176 152 -45 41 -99 89 -119 105 -21 17 -50 42
-64 56 -15 15 -44 33 -66 40 -42 15 -66 43 -96 113 -10 25 -23 46 -28 46 -5 0
-42 29 -83 65 -40 36 -79 65 -86 65 -6 0 -29 16 -49 36 -21 19 -65 51 -99 70
-80 46 -95 56 -124 77 -13 9 -32 17 -43 17 -10 0 -21 6 -24 14 -3 8 -30 27
-60 42 -67 34 -74 53 -39 104 l27 39 -21 34 c-12 19 -21 49 -21 68 0 18 -5 58
-12 90 -15 73 3 211 32 251 15 20 20 43 20 86 0 33 7 76 15 95 13 31 13 42 1
79 -7 24 -19 86 -25 139 -18 148 7 186 77 112 22 -24 50 -42 75 -48 51 -13 57
-29 17 -50 -26 -14 -31 -21 -28 -48 3 -31 4 -32 57 -35 44 -3 60 1 91 23 35
24 83 86 121 155 9 17 21 35 26 42 24 30 93 174 93 194 0 12 7 27 15 34 8 7
15 18 15 24 0 6 9 28 20 49 11 20 20 50 20 67 0 19 7 34 20 42 15 9 20 24 20
53 0 22 9 54 20 73 11 18 20 42 20 53 0 11 8 36 19 57 10 20 21 62 25 92 4 30
13 64 20 75 7 11 16 40 19 65 3 25 13 59 21 75 9 17 16 51 16 76 0 26 7 63 15
82 10 24 15 70 15 135 0 135 -27 223 -84 272 -22 19 -65 60 -96 90 -92 91
-177 138 -226 126 -14 -4 -56 -37 -93 -74 -37 -37 -83 -82 -103 -100 -56 -50
-88 -115 -88 -178 0 -29 -5 -65 -11 -81 -9 -23 -7 -30 10 -44 11 -9 26 -32 35
-52 8 -20 35 -59 60 -85 44 -47 56 -75 37 -86 -12 -8 -103 -141 -136 -199 -10
-17 -23 -27 -33 -25 -14 3 -18 20 -23 103 -4 55 -10 114 -13 130 -5 21 1 48
17 87 20 49 22 65 15 110 -5 29 -13 86 -18 126 -6 41 -17 83 -25 95 -8 12 -15
36 -15 54 0 22 -8 40 -26 57 -26 24 -26 24 -6 35 11 6 30 11 41 11 22 0 101
65 101 84 1 6 31 35 68 65 70 55 83 74 166 252 l36 75 0 250 c0 198 -3 255
-15 277 -8 15 -17 45 -20 65 -17 97 -93 192 -196 245 -41 20 -84 37 -97 37
-12 0 -40 9 -62 20 -33 17 -59 20 -157 20 -101 0 -122 3 -148 20 -16 11 -32
20 -35 19 -3 0 -25 -14 -50 -30z m335 -134 c22 -8 50 -15 62 -15 27 0 121 -74
133 -104 4 -12 20 -40 34 -61 23 -34 26 -47 25 -114 -2 -43 3 -86 9 -98 8 -14
12 -87 12 -215 0 -174 -2 -197 -20 -231 -11 -20 -20 -44 -20 -53 0 -9 -25 -55
-55 -103 -30 -48 -55 -94 -55 -103 0 -26 -31 -31 -55 -8 -12 11 -28 20 -37 20
-9 0 -21 6 -27 14 -7 8 -27 18 -44 21 -18 4 -39 13 -47 20 -8 7 -31 16 -50 20
-19 4 -44 13 -56 20 -35 22 -105 8 -133 -28 -24 -28 -24 -32 -14 -96 7 -36 9
-78 6 -92 -3 -20 5 -40 31 -78 20 -28 36 -54 36 -59 0 -4 18 -25 40 -47 21
-22 39 -49 40 -61 0 -11 9 -29 20 -39 11 -10 20 -22 20 -28 0 -5 9 -21 19 -36
11 -15 23 -40 27 -57 4 -16 13 -38 20 -49 17 -24 20 -330 4 -340 -5 -3 -10
-16 -10 -28 0 -12 -12 -53 -26 -92 -17 -48 -27 -107 -34 -189 -9 -112 -8 -120
13 -160 22 -40 22 -48 21 -371 -1 -292 -4 -341 -22 -425 -18 -83 -24 -98 -54
-122 -77 -64 -71 -50 -65 -172 3 -61 11 -126 16 -145 8 -25 7 -41 -2 -59 -22
-46 -39 -48 -91 -8 -26 20 -54 36 -62 36 -8 0 -25 7 -39 16 -33 22 -89 15 -93
-11 -2 -11 -10 -36 -18 -56 -14 -32 -14 -41 -1 -81 33 -96 99 -188 135 -188
13 0 46 -10 71 -21 123 -57 279 -135 306 -154 17 -11 66 -37 110 -59 44 -21
85 -41 91 -45 53 -30 107 -74 158 -126 34 -34 92 -88 131 -121 38 -32 80 -71
92 -85 22 -25 113 -90 198 -140 50 -29 109 -73 226 -165 50 -38 111 -81 137
-95 25 -13 71 -48 102 -76 30 -29 58 -53 62 -53 4 0 15 -14 24 -31 12 -25 14
-37 5 -56 -6 -13 -11 -35 -11 -48 0 -13 -9 -47 -20 -75 -18 -45 -20 -74 -20
-275 0 -206 2 -228 20 -262 11 -21 20 -43 20 -50 0 -6 9 -28 21 -47 18 -32 22
-61 31 -258 5 -123 13 -410 17 -638 8 -474 9 -475 95 -571 26 -29 59 -76 73
-106 30 -61 102 -138 147 -157 17 -7 44 -25 59 -40 15 -14 34 -26 42 -26 7 0
31 -17 54 -37 47 -45 131 -72 248 -82 74 -6 78 -7 78 -30 0 -19 -7 -27 -32
-33 -18 -5 -33 -13 -33 -18 0 -4 -15 -13 -33 -19 -29 -10 -41 -8 -88 14 -61
28 -95 31 -124 11 -12 -8 -65 -16 -130 -20 -72 -5 -115 -12 -126 -22 -10 -9
-40 -14 -91 -14 -115 0 -177 -15 -210 -50 -33 -37 -48 -32 -93 28 l-35 45 2
306 c2 263 0 310 -14 336 -9 17 -19 53 -23 80 -4 28 -15 73 -25 100 -10 28
-21 69 -25 92 -4 24 -11 45 -16 49 -5 3 -9 15 -9 27 -1 12 -9 40 -20 62 -11
22 -19 47 -20 55 0 9 -6 24 -14 35 -7 11 -17 36 -21 55 -4 19 -11 40 -16 46
-5 5 -15 37 -22 70 -8 33 -19 69 -24 80 -6 10 -13 42 -16 71 -3 29 -13 65 -21
82 -23 43 -23 267 -1 299 9 12 19 45 22 74 3 29 12 62 19 73 8 11 14 36 14 56
0 20 9 56 20 80 30 66 28 184 -4 247 -29 58 -59 90 -111 122 -22 13 -44 30
-50 37 -19 23 -170 91 -250 112 -78 21 -93 27 -185 69 -25 11 -55 23 -67 27
-11 3 -27 12 -33 20 -7 8 -19 15 -27 15 -8 0 -26 9 -40 20 -14 11 -31 20 -38
20 -7 0 -36 15 -64 33 -29 17 -78 48 -109 68 -31 20 -102 60 -157 89 -64 34
-117 70 -147 101 -26 27 -54 49 -63 49 -9 0 -28 9 -42 20 -15 11 -41 20 -62
20 -20 0 -45 7 -55 15 -11 8 -33 15 -49 15 -16 0 -42 8 -58 17 -24 14 -33 15
-49 5 -26 -16 -55 -15 -69 2 -7 8 -34 17 -61 21 -55 8 -72 22 -47 40 27 20 20
25 -35 25 -31 0 -71 9 -96 20 -23 10 -59 22 -80 26 -20 4 -56 22 -79 40 -23
19 -45 34 -50 34 -12 0 -103 103 -103 117 0 6 -6 18 -13 25 -24 24 -67 106
-67 127 0 12 -9 38 -20 58 -24 46 -26 139 -4 198 9 22 19 54 24 70 4 17 15 44
23 60 9 17 25 51 36 78 23 53 46 68 64 43 11 -15 17 -15 51 -3 37 13 40 17 57
82 21 80 13 100 -33 91 -46 -9 -36 31 29 110 18 23 33 47 33 55 0 17 60 79 76
79 7 0 33 9 58 19 37 17 46 25 51 53 7 36 -7 163 -27 246 -11 49 -10 59 10
115 18 52 22 82 21 177 -1 65 -7 132 -14 155 -8 22 -16 96 -19 165 -2 69 -11
145 -19 170 -8 25 -18 103 -21 173 -4 83 -12 139 -21 157 -11 20 -15 61 -15
134 0 58 -5 126 -12 150 -13 49 -2 76 33 76 21 0 49 -36 49 -65 0 -11 14 -38
30 -59 17 -22 30 -45 30 -51 0 -6 16 -26 35 -45 19 -19 35 -39 35 -45 0 -19
98 -116 136 -136 48 -24 78 -18 93 19 10 23 9 35 -6 68 -25 53 -105 174 -133
199 -12 11 -26 29 -31 40 -5 11 -21 36 -35 55 -21 29 -24 42 -19 76 13 87 -37
133 -153 141 -42 3 -93 12 -112 20 -26 12 -90 18 -240 23 -113 4 -223 12 -245
19 -74 20 -121 14 -159 -19 -32 -28 -34 -36 -41 -110 -4 -48 -12 -84 -21 -91
-8 -6 -14 -28 -14 -48 0 -52 -19 -113 -43 -139 l-21 -23 -14 27 c-7 14 -18 72
-24 127 -6 58 -16 109 -24 118 -8 9 -11 18 -8 22 3 3 7 53 9 112 2 94 0 109
-18 132 -26 32 -26 93 -1 131 16 25 16 26 -4 40 -12 8 -22 22 -22 32 0 33 21
39 106 29 45 -5 204 -7 355 -5 231 2 281 6 319 20 37 15 65 17 150 12 137 -7
240 -22 327 -48 24 -7 39 -5 61 6 26 13 30 22 36 73 6 51 13 64 55 111 47 50
73 63 86 42 7 -11 55 -13 80 -4 8 4 22 19 30 35 13 24 13 37 0 99 -8 39 -15
86 -15 103 0 18 -9 64 -20 102 -24 83 -25 175 -4 230 9 22 18 55 21 73 4 27
15 39 51 60 24 15 52 34 61 43 29 30 86 59 116 60 17 0 46 7 65 14 46 18 86
17 135 0z m535 -1280 c7 -8 18 -15 25 -15 7 0 15 -6 18 -14 3 -8 24 -25 46
-38 65 -36 76 -77 68 -250 -5 -105 -11 -148 -23 -166 -9 -13 -19 -51 -21 -84
-4 -42 -11 -61 -24 -68 -13 -8 -17 -21 -16 -54 1 -30 -4 -50 -16 -63 -10 -12
-17 -36 -17 -59 0 -22 -9 -56 -20 -77 -11 -20 -20 -46 -20 -57 0 -40 -51 -120
-86 -135 -38 -16 -90 -82 -99 -128 -4 -18 -13 -39 -20 -47 -7 -8 -15 -34 -18
-58 -3 -24 -12 -51 -21 -61 -9 -10 -16 -29 -16 -44 0 -38 -25 -57 -75 -57 -37
0 -47 5 -74 35 -17 20 -31 44 -31 55 0 10 -7 23 -15 27 -17 10 -55 114 -55
151 0 13 -7 48 -16 78 -8 30 -14 66 -12 81 3 24 7 28 33 26 46 -3 146 19 152
33 2 7 17 17 33 24 47 19 160 180 160 228 0 26 37 72 60 72 9 0 23 -7 31 -16
27 -32 99 11 99 61 0 12 -8 33 -19 46 -10 13 -21 33 -25 44 -3 11 -47 62 -96
113 -50 52 -90 99 -90 105 0 6 -6 18 -14 26 -12 14 -13 25 -2 77 13 61 33 96
95 169 49 56 95 71 121 40z m-2443 -757 c10 -13 26 -60 37 -110 3 -14 17 -39
30 -55 13 -15 26 -42 30 -59 4 -19 32 -58 67 -95 l59 -62 0 -84 c0 -56 5 -94
15 -114 14 -26 14 -30 0 -35 -31 -12 -84 8 -146 56 -35 27 -70 50 -77 50 -19
0 -70 60 -77 90 -7 32 9 77 38 108 17 19 19 26 10 41 -6 10 -15 36 -18 57 -4
22 -13 58 -21 82 -15 45 -11 82 12 120 16 25 27 28 41 10z m1825 -1420 c7 -18
-2 -39 -13 -32 -12 7 -12 44 0 44 5 0 11 -6 13 -12z m-1280 -1345 c11 -26 71
-53 115 -53 41 0 59 -7 117 -46 80 -54 125 -74 164 -74 15 0 37 -7 48 -15 10
-8 33 -15 50 -15 17 0 37 -7 44 -15 7 -8 27 -19 44 -23 30 -8 31 -11 29 -56
-1 -27 -8 -55 -17 -65 -9 -10 -16 -27 -16 -38 0 -11 -9 -28 -20 -38 -11 -10
-20 -25 -20 -32 0 -8 -9 -26 -20 -40 -11 -14 -20 -32 -20 -40 0 -19 -36 -70
-77 -109 -18 -17 -33 -36 -33 -42 0 -6 -17 -32 -38 -59 -21 -26 -49 -66 -62
-88 -13 -22 -44 -60 -68 -85 -25 -25 -57 -64 -71 -87 -14 -22 -79 -95 -143
-162 -65 -66 -118 -127 -118 -135 0 -8 -28 -38 -62 -67 -35 -29 -70 -60 -79
-69 -8 -8 -31 -22 -50 -31 -109 -52 -107 -52 -329 -59 -215 -7 -264 -15 -358
-56 -18 -8 -38 -14 -44 -14 -6 0 -29 -8 -52 -19 -57 -26 -176 -61 -206 -61
-14 0 -51 -9 -83 -20 -31 -11 -65 -20 -76 -20 -10 0 -34 -6 -52 -14 -19 -7
-56 -17 -84 -21 -27 -4 -59 -12 -70 -18 -11 -5 -59 -14 -107 -18 -49 -5 -98
-14 -111 -21 -12 -7 -54 -15 -93 -18 -65 -6 -75 -10 -139 -58 -37 -29 -75 -52
-84 -52 -26 0 -68 -42 -96 -94 -14 -27 -64 -92 -113 -144 -48 -52 -91 -101
-95 -108 -4 -8 -16 -14 -26 -14 -12 0 -17 -7 -17 -22 1 -14 -6 -24 -16 -26
-22 -4 -24 21 -3 38 22 18 15 182 -8 208 -10 10 -17 24 -17 30 0 7 -9 29 -20
49 -11 21 -20 52 -20 69 0 17 -7 37 -15 44 -8 7 -15 18 -15 24 0 6 -9 22 -20
36 -11 14 -20 37 -20 52 0 15 -5 48 -12 73 -11 39 -10 48 2 55 18 11 74 3 112
-16 42 -21 207 -18 297 6 41 11 85 20 98 20 13 0 31 4 41 9 16 10 108 52 184
85 20 9 40 16 46 16 5 0 15 7 22 15 7 8 25 15 40 15 15 0 37 9 50 20 13 11 30
20 37 20 8 0 26 9 40 20 14 11 31 20 38 20 6 0 20 9 30 20 10 11 22 20 27 20
11 0 72 42 76 53 2 4 27 19 55 33 29 15 60 33 69 42 14 11 52 16 165 19 87 2
165 10 188 18 22 7 78 16 125 20 85 7 106 8 223 3 51 -2 71 3 113 25 57 29 79
67 68 122 -7 41 24 80 71 89 19 4 47 18 63 31 32 27 82 116 82 148 0 11 7 28
16 38 9 10 18 37 21 61 3 24 11 50 18 58 7 8 15 39 18 69 4 30 13 61 22 71 8
9 15 32 15 52 0 20 9 46 20 61 12 15 20 40 20 64 0 26 6 44 20 56 11 9 20 28
20 41 0 13 7 29 15 36 8 7 15 20 15 29 0 9 8 32 19 51 10 19 22 46 26 60 13
45 65 88 77 63z m-2615 -2560 c-6 -75 -15 -90 -46 -74 -24 14 -27 47 -6 75 8
11 15 27 15 36 0 20 20 41 32 34 5 -4 7 -35 5 -71z"></path>
</g>
</svg>