 <svg version="1.0" xmlns="http://www.w3.org/2000/svg" width="700.000000pt" height="961.000000pt" viewBox="0 0 700.000000 961.000000" preserveAspectRatio="xMidYMid meet">
<metadata>
Created by potrace 1.12, written by Peter Selinger 2001-2015
</metadata>
<g transform="translate(0.000000,961.000000) scale(0.100000,-0.100000)" fill="#000000" stroke="none">
<path d="M4497 9084 c-3 -4 -58 -6 -122 -6 -103 1 -118 -1 -133 -18 -9 -11
-21 -20 -28 -20 -6 0 -31 -15 -55 -34 -24 -18 -56 -36 -71 -40 -44 -10 -87
-53 -98 -99 -6 -23 -17 -57 -26 -76 -23 -52 -38 -229 -40 -486 -2 -226 -14
-333 -40 -366 -7 -8 -15 -29 -19 -46 -3 -18 -10 -33 -13 -33 -123 -4 -154 -10
-183 -35 -18 -14 -48 -34 -69 -45 -20 -10 -42 -26 -49 -34 -8 -9 -21 -16 -31
-16 -9 0 -25 -9 -35 -20 -10 -11 -27 -20 -38 -20 -38 0 -187 -174 -187 -218 0
-9 -18 -53 -40 -97 -23 -44 -45 -102 -50 -130 -20 -110 -29 -133 -85 -215 -32
-47 -75 -110 -95 -140 -39 -58 -94 -161 -130 -245 -34 -78 -52 -118 -63 -139
-11 -22 -42 -118 -51 -160 -12 -49 -65 -154 -83 -165 -14 -7 -17 -25 -18 -93
-1 -45 -5 -95 -9 -110 -6 -19 -3 -39 8 -62 9 -19 16 -44 16 -56 0 -12 7 -34
15 -48 8 -15 21 -56 29 -92 23 -101 40 -163 53 -186 7 -12 15 -41 19 -65 4
-24 13 -53 20 -64 6 -11 15 -40 19 -65 4 -24 14 -55 23 -68 23 -35 11 -213
-18 -249 -11 -14 -20 -40 -20 -58 0 -18 -7 -38 -15 -45 -9 -7 -15 -29 -15 -54
0 -22 -9 -61 -20 -85 -27 -59 -27 -158 0 -211 11 -22 20 -45 20 -52 1 -7 9
-31 20 -53 11 -22 19 -48 20 -57 0 -33 113 -179 215 -278 82 -80 148 -161 159
-197 4 -12 13 -24 21 -27 8 -3 15 -11 15 -19 0 -7 11 -28 25 -47 32 -43 33
-85 3 -101 l-23 -12 25 -11 c14 -6 30 -16 35 -24 6 -7 24 -16 40 -20 25 -7 30
-14 30 -38 l0 -29 -250 1 c-237 0 -252 2 -292 22 -25 13 -61 22 -86 22 -34 0
-70 13 -153 56 -178 91 -264 107 -300 55 -8 -11 -27 -22 -43 -26 -32 -7 -61
-35 -85 -82 -19 -39 -22 -224 -4 -285 9 -32 9 -44 -5 -74 -9 -19 -17 -43 -17
-53 0 -11 -13 -45 -29 -77 -16 -33 -34 -78 -40 -101 -6 -23 -15 -44 -20 -47
-5 -3 -11 -24 -15 -47 -4 -23 -13 -54 -21 -70 -20 -38 -20 -178 0 -226 8 -19
15 -58 15 -85 0 -72 45 -183 88 -216 52 -41 95 -85 122 -125 27 -40 80 -77
109 -77 10 0 36 19 58 43 33 36 41 52 47 100 4 43 2 65 -9 87 -8 16 -15 40
-15 53 0 13 -7 32 -15 43 -25 34 -18 78 20 124 19 23 35 51 35 61 0 29 48 117
98 179 46 58 92 90 128 90 12 0 40 6 62 14 22 8 42 13 44 10 3 -2 38 -8 79
-13 71 -9 180 -49 193 -70 4 -5 28 -13 54 -17 26 -3 54 -12 62 -19 8 -7 40
-16 70 -20 75 -10 240 -105 240 -138 0 -19 -73 -152 -89 -161 -5 -3 -12 -18
-15 -32 -4 -15 -19 -42 -33 -60 -14 -19 -29 -53 -34 -76 -10 -46 -32 -105 -55
-150 -8 -15 -17 -64 -20 -110 -3 -46 -13 -105 -21 -131 -10 -33 -16 -104 -19
-223 -3 -169 -14 -246 -34 -259 -6 -3 -10 -23 -10 -43 0 -20 -9 -57 -20 -81
-11 -24 -20 -52 -20 -62 0 -11 -9 -37 -20 -59 -11 -22 -20 -48 -20 -58 0 -11
-7 -25 -15 -32 -8 -7 -15 -17 -15 -22 0 -16 -51 -118 -86 -171 -19 -28 -34
-57 -34 -63 0 -6 -9 -23 -20 -37 -11 -14 -20 -32 -20 -40 0 -7 -9 -24 -20 -37
-11 -13 -20 -34 -20 -47 0 -13 -6 -26 -14 -29 -8 -3 -17 -20 -20 -39 -4 -18
-13 -36 -21 -39 -8 -3 -15 -15 -15 -27 0 -12 -17 -42 -38 -68 -21 -25 -41 -53
-44 -62 -10 -26 16 -112 45 -150 30 -40 34 -66 12 -95 -24 -32 -17 -52 35 -93
39 -31 62 -41 106 -47 83 -10 173 0 219 25 27 14 58 21 96 21 31 0 78 7 105
15 31 10 114 18 225 22 169 6 178 5 212 -15 33 -21 45 -22 310 -22 152 0 286
4 299 9 13 5 45 31 72 57 64 62 76 107 45 171 -13 26 -32 49 -48 56 -14 6 -33
17 -41 24 -9 7 -54 17 -100 22 -99 11 -238 47 -261 67 -8 8 -27 14 -41 14 -14
0 -33 9 -43 20 -10 11 -29 20 -41 20 -13 0 -29 9 -36 20 -7 11 -22 20 -33 20
-11 0 -40 18 -64 40 -25 22 -48 40 -51 40 -4 0 -14 14 -23 31 -16 34 -13 51
34 171 11 26 19 68 19 95 0 31 7 59 20 78 11 17 20 46 20 66 0 23 7 42 20 54
11 10 20 26 20 35 0 9 12 31 28 48 33 37 72 99 72 115 0 7 9 26 20 42 11 17
20 38 20 47 0 10 9 37 19 60 11 24 29 70 41 103 12 33 30 77 41 97 10 20 19
45 19 55 0 10 9 32 20 48 11 17 20 41 20 53 0 13 9 35 20 49 11 14 20 41 20
59 0 18 6 39 13 46 8 7 16 46 20 85 3 40 11 82 18 95 7 13 15 58 19 101 9 95
28 126 93 147 25 8 54 23 64 32 17 15 41 18 164 18 161 1 190 9 217 57 27 50
85 147 91 153 3 3 26 27 50 54 l44 49 -7 144 c-7 145 -17 183 -53 206 -7 4
-13 16 -13 25 0 9 -9 31 -20 47 -11 17 -20 39 -20 50 0 11 -9 35 -20 53 -11
18 -20 40 -20 50 0 9 -26 71 -59 137 -33 66 -71 145 -86 175 -39 81 -85 163
-103 183 -18 21 -36 50 -58 97 -9 19 -29 51 -45 71 -16 20 -29 42 -29 47 0 6
-11 28 -25 48 -14 21 -39 67 -56 103 -17 36 -35 73 -40 81 -77 135 -98 165
-232 328 -49 59 -93 118 -98 132 -6 13 -13 27 -17 30 -24 18 -52 73 -47 90 8
27 56 26 80 0 10 -11 24 -20 32 -20 7 0 23 -11 34 -24 12 -14 42 -34 68 -46
25 -11 68 -37 95 -56 l48 -36 102 4 c90 3 108 7 167 36 37 17 72 32 78 32 35
0 151 140 151 182 0 13 12 41 27 63 26 39 70 147 80 196 10 54 -69 144 -154
174 -26 9 -63 23 -81 31 -46 20 -137 18 -175 -3 -18 -10 -51 -35 -74 -55 -24
-21 -47 -38 -52 -38 -26 0 -92 38 -134 77 -26 24 -72 55 -102 69 -30 13 -55
28 -55 34 0 21 59 135 82 160 26 28 68 88 68 97 0 4 9 25 19 47 10 23 22 57
25 77 4 21 13 42 21 49 8 7 15 22 15 34 0 11 9 35 20 51 11 17 20 47 20 68 0
21 7 48 15 60 9 14 16 60 19 133 4 87 9 120 25 150 12 21 21 49 21 61 0 12 4
24 9 28 5 3 17 31 26 63 9 31 25 66 36 78 17 18 18 25 8 50 -6 16 -15 90 -19
164 -5 74 -16 164 -24 200 -9 36 -16 88 -16 115 0 28 -7 77 -15 110 -8 33 -14
76 -15 95 0 20 -7 46 -16 58 -9 13 -16 46 -17 80 -3 77 18 106 90 129 53 17
55 16 96 -4 23 -11 64 -26 91 -32 44 -11 51 -10 71 9 12 11 32 42 44 68 12 26
31 64 41 84 11 20 20 48 20 63 0 14 9 42 20 62 11 21 20 48 20 61 0 12 6 33
14 45 8 12 18 45 22 72 4 28 14 61 22 74 12 18 16 55 16 165 l1 141 -48 97
c-26 54 -52 100 -57 103 -6 3 -10 17 -10 30 0 14 -9 29 -20 35 -11 6 -20 21
-20 33 0 12 -15 38 -33 57 -50 54 -113 133 -120 153 -10 27 -91 50 -110 31z
m-42 -209 c63 -1 106 -18 140 -54 11 -12 30 -31 42 -42 12 -12 24 -31 27 -43
3 -13 17 -28 31 -34 17 -8 25 -20 25 -37 0 -14 6 -25 12 -25 7 0 27 -17 45
-37 30 -33 33 -43 33 -98 0 -39 -5 -68 -15 -81 -14 -18 -16 -18 -29 -1 -12 15
-14 6 -21 -80 -7 -92 -16 -133 -48 -206 -8 -17 -20 -59 -27 -92 -13 -62 -49
-126 -84 -151 -27 -18 -60 -18 -98 2 -42 22 -149 21 -163 -2 -5 -9 -18 -25
-27 -36 -10 -12 -18 -30 -18 -40 0 -11 -9 -31 -20 -45 -11 -14 -20 -35 -20
-47 0 -12 -7 -31 -15 -42 -19 -25 -19 -63 -1 -100 11 -20 16 -76 19 -184 3
-119 8 -162 20 -187 10 -18 17 -41 17 -53 0 -11 9 -38 20 -60 17 -34 20 -58
20 -182 l-1 -143 -32 -36 c-18 -20 -46 -46 -64 -58 -27 -18 -32 -29 -36 -74
-3 -28 -9 -67 -12 -84 -5 -22 -2 -47 9 -73 20 -49 21 -138 2 -165 -7 -11 -16
-40 -20 -64 -4 -24 -13 -53 -21 -64 -8 -12 -15 -31 -15 -42 0 -11 -9 -37 -20
-58 -11 -20 -20 -45 -20 -54 0 -10 -18 -55 -42 -99 -38 -75 -46 -83 -90 -102
-34 -14 -48 -26 -48 -40 0 -11 -9 -31 -20 -45 -12 -15 -20 -40 -20 -64 0 -21
-7 -48 -15 -60 -8 -11 -19 -56 -24 -99 -5 -44 -16 -92 -25 -109 -9 -16 -16
-35 -16 -42 0 -6 -15 -29 -34 -51 -25 -31 -35 -53 -40 -97 -3 -31 -4 -61 -1
-66 3 -5 1 -45 -6 -89 l-13 -81 74 -143 c40 -79 87 -159 104 -178 61 -67 131
-150 140 -167 5 -9 44 -60 85 -113 100 -127 144 -189 153 -210 4 -9 23 -40 42
-69 20 -28 36 -56 36 -62 0 -5 16 -29 35 -53 19 -23 35 -51 35 -62 0 -11 7
-25 15 -32 8 -7 15 -20 15 -30 0 -9 9 -29 20 -43 11 -14 20 -36 20 -50 0 -13
6 -30 14 -36 8 -7 17 -27 20 -45 4 -19 13 -37 21 -40 8 -3 15 -13 15 -23 0
-10 9 -31 20 -48 11 -16 20 -37 20 -46 0 -9 6 -22 14 -28 8 -7 26 -38 41 -69
15 -31 36 -73 46 -93 11 -20 19 -45 19 -56 0 -10 7 -28 15 -41 9 -12 20 -56
24 -97 5 -41 16 -86 25 -100 9 -13 16 -31 16 -39 0 -18 -44 -103 -65 -126 -8
-9 -15 -23 -15 -32 0 -8 -23 -30 -51 -48 -43 -28 -65 -34 -133 -40 -44 -4 -84
-6 -88 -4 -4 3 -38 6 -75 9 -38 2 -84 11 -103 19 -21 8 -85 16 -155 19 -92 4
-131 10 -165 26 -25 11 -60 21 -78 21 -17 0 -49 9 -69 20 -21 11 -49 20 -62
20 -13 0 -32 7 -41 15 -10 9 -37 18 -61 21 -24 3 -51 11 -59 18 -8 8 -34 16
-58 19 -24 3 -51 12 -61 21 -10 9 -31 16 -47 16 -16 0 -42 9 -59 20 -16 11
-39 20 -50 20 -11 0 -37 9 -58 20 -20 11 -48 20 -62 20 -14 0 -52 11 -85 25
-33 14 -74 25 -92 25 -18 1 -44 7 -58 15 -29 16 -235 21 -245 6 -3 -5 -18 -12
-34 -16 -16 -3 -37 -15 -47 -26 -9 -10 -29 -19 -43 -19 -14 0 -39 -8 -56 -18
-16 -10 -41 -21 -56 -25 -19 -5 -31 -20 -49 -64 -14 -35 -44 -80 -77 -115 -30
-32 -53 -66 -53 -78 0 -31 -47 -107 -71 -113 -15 -4 -25 3 -40 26 -33 54 -40
95 -24 135 8 19 15 51 15 72 0 22 8 48 20 63 20 26 34 74 50 177 4 30 15 77
24 104 14 45 14 56 -1 122 -15 69 -15 76 1 119 22 58 60 79 119 69 23 -3 53
-15 66 -25 13 -10 27 -16 32 -13 4 2 26 -4 48 -16 22 -11 50 -20 61 -20 11 0
38 -9 60 -20 45 -23 119 -26 440 -20 130 2 207 -1 230 -8 19 -7 118 -16 220
-21 114 -6 204 -16 235 -25 28 -9 74 -16 103 -16 101 0 257 -97 402 -251 76
-80 107 -93 144 -56 30 30 26 56 -19 112 -17 22 -34 48 -38 58 -8 22 -128 177
-137 177 -4 0 -29 17 -56 37 -27 21 -62 45 -79 54 -16 8 -48 26 -70 39 -22 13
-57 32 -77 42 -20 10 -40 22 -43 28 -3 5 -13 10 -22 10 -44 0 -150 66 -208
129 -122 133 -201 217 -246 261 -72 70 -198 183 -214 192 -26 15 -144 167
-184 238 -69 123 -87 188 -72 260 6 28 11 68 11 89 0 20 7 46 15 57 8 10 15
28 15 40 0 11 7 29 15 40 22 28 31 7 38 -87 4 -43 11 -88 17 -100 12 -22 24
-80 49 -244 10 -68 23 -121 35 -138 39 -58 165 -93 224 -63 17 9 51 16 76 16
62 0 106 37 106 89 0 29 10 50 46 96 l45 59 -6 115 c-8 142 -40 306 -65 338
-10 13 -39 40 -64 61 -25 21 -59 58 -74 83 -16 24 -36 50 -45 58 -9 7 -17 19
-17 25 0 6 -9 28 -20 49 -12 21 -20 57 -20 84 -1 27 -7 66 -16 88 -8 22 -16
78 -19 125 -3 47 -10 128 -16 181 -9 83 -9 101 5 127 9 17 20 34 26 37 5 3 22
32 36 63 14 31 30 64 35 72 5 8 15 26 21 40 7 14 41 55 75 93 35 37 75 86 89
110 14 23 34 53 43 67 11 15 21 55 26 95 8 81 18 96 138 222 85 89 130 114
166 92 51 -33 104 50 67 106 -9 13 -25 29 -37 35 -29 16 -101 17 -130 3 -74
-36 -101 -45 -124 -39 -19 5 -32 0 -50 -18 -14 -14 -25 -31 -25 -39 0 -8 -7
-20 -15 -27 -8 -7 -15 -24 -15 -39 0 -14 -9 -43 -20 -64 -11 -20 -20 -43 -20
-50 0 -21 -43 -74 -96 -117 -27 -22 -71 -69 -99 -105 -27 -36 -52 -65 -56 -65
-4 0 -10 -11 -13 -25 -17 -69 -123 -191 -178 -206 -51 -13 -56 -40 -29 -132
11 -40 21 -96 21 -125 0 -29 6 -63 14 -75 14 -23 28 -133 31 -252 1 -38 7
-101 13 -140 26 -161 32 -203 32 -236 0 -19 7 -43 15 -53 8 -11 15 -28 15 -38
0 -10 8 -22 18 -25 22 -8 98 -69 136 -108 48 -50 66 -94 66 -162 0 -53 -3 -64
-22 -78 -20 -14 -23 -24 -23 -88 l0 -72 -45 -3 c-57 -3 -69 5 -77 54 -3 21
-11 46 -19 54 -7 8 -16 28 -20 45 -4 16 -11 34 -16 40 -53 66 -88 117 -88 127
0 7 -9 27 -20 43 -11 17 -20 41 -20 55 0 14 -9 39 -20 55 -11 17 -20 40 -20
53 0 12 -9 39 -20 59 -11 21 -20 55 -20 76 0 21 -6 50 -14 65 -7 15 -16 44
-20 64 -4 20 -13 50 -21 65 -8 15 -15 41 -15 56 0 15 -7 43 -15 63 -8 19 -17
69 -21 112 -4 46 -14 87 -24 102 -9 14 -22 40 -28 58 -6 19 -23 47 -37 64 -14
16 -27 42 -30 56 -3 15 -10 46 -15 70 -15 64 -13 70 30 120 22 25 42 55 44 66
20 111 28 141 41 156 8 9 15 21 15 27 0 5 9 18 20 28 11 10 20 28 20 39 0 12
9 27 20 34 11 7 20 19 20 28 0 9 16 39 35 68 19 29 35 60 35 69 0 9 6 20 14
24 7 4 19 19 26 33 28 54 100 157 125 181 15 13 36 32 46 42 12 10 19 30 19
52 0 19 9 57 20 85 11 28 20 66 20 84 0 19 7 39 15 46 8 7 15 23 15 36 0 15
16 42 40 68 22 24 40 49 40 56 0 6 8 25 17 40 14 24 15 33 4 56 -10 24 -9 30
11 51 13 14 38 32 55 41 107 55 141 72 163 82 14 6 43 21 65 34 22 14 62 36
89 50 27 15 62 38 78 51 16 14 34 25 40 25 18 0 78 50 78 64 0 7 9 21 20 31
16 14 20 31 20 81 0 40 7 82 20 114 12 31 20 74 20 111 0 33 7 76 15 96 21 49
20 194 -1 235 -12 24 -15 48 -10 107 15 201 22 217 135 280 34 19 91 31 116
23 11 -3 47 -6 80 -7z m-330 -3545 c102 -93 105 -95 167 -103 55 -7 82 1 119
35 46 43 112 76 134 67 11 -4 36 -8 56 -8 42 -1 99 -46 99 -78 0 -10 -31 -50
-69 -89 -56 -58 -76 -72 -109 -78 -22 -3 -48 -13 -57 -23 -9 -9 -39 -18 -65
-21 -40 -4 -59 1 -100 22 -28 15 -55 24 -59 21 -10 -5 -108 42 -129 62 -7 7
-22 13 -31 13 -10 0 -24 6 -30 14 -7 8 -30 18 -53 21 -33 6 -42 13 -54 42 -15
34 -11 73 7 73 5 0 9 16 9 35 0 39 28 75 58 75 11 0 58 -36 107 -80z m-304
-2706 c24 -8 90 -18 146 -21 120 -7 163 -25 163 -70 0 -14 -6 -34 -14 -42 -19
-21 -45 -91 -60 -161 -6 -30 -22 -74 -34 -97 -12 -23 -24 -59 -27 -79 -2 -20
-11 -47 -19 -59 -8 -12 -18 -39 -22 -59 -3 -21 -12 -40 -19 -42 -7 -3 -15 -19
-19 -35 -3 -17 -15 -42 -26 -56 -11 -14 -20 -33 -20 -43 0 -9 -9 -25 -20 -35
-11 -10 -20 -30 -20 -45 0 -15 -7 -33 -15 -40 -8 -7 -17 -28 -21 -49 -3 -20
-12 -45 -19 -56 -6 -11 -15 -41 -19 -67 -4 -26 -13 -54 -20 -61 -7 -7 -17 -24
-20 -37 -4 -14 -14 -38 -21 -55 -39 -84 -65 -144 -65 -149 0 -3 -11 -22 -25
-42 -14 -20 -32 -59 -40 -87 -8 -27 -19 -55 -24 -61 -5 -6 -14 -38 -19 -71
-15 -86 -35 -133 -72 -168 -45 -42 -36 -71 50 -171 85 -100 113 -126 134 -126
8 0 24 -9 34 -20 23 -25 90 -60 114 -60 10 0 26 -8 37 -19 17 -17 42 -23 164
-38 36 -4 57 -14 83 -38 45 -42 46 -84 5 -126 -28 -28 -33 -29 -123 -29 -76 0
-98 4 -123 20 -16 11 -41 20 -55 20 -14 1 -36 7 -49 14 -19 11 -58 13 -165 9
-132 -5 -474 9 -558 23 -31 5 -43 15 -69 55 -24 37 -29 55 -24 77 9 44 53 81
93 80 26 -1 40 6 58 28 13 16 26 38 28 49 3 11 7 32 10 47 3 14 18 41 32 58
24 28 27 39 25 101 -1 59 2 78 25 119 20 37 33 50 49 50 12 0 28 8 36 18 19
22 59 105 59 123 0 8 7 23 15 33 8 11 15 41 15 67 0 26 5 51 10 54 6 3 10 12
10 20 0 8 20 56 44 107 24 51 47 110 50 130 4 20 15 57 26 81 12 26 17 53 13
68 -6 22 -44 74 -93 125 -25 26 -25 49 -1 122 10 31 21 92 25 135 3 43 13 91
21 107 8 16 15 44 15 63 0 19 9 46 20 60 11 14 20 32 20 40 0 8 9 26 20 40 11
14 20 32 20 40 0 7 11 27 25 43 14 16 33 45 43 64 24 47 52 90 76 118 23 26
65 29 127 6z"></path>
<path d="M4741 8514 c0 -11 3 -14 6 -6 3 7 2 16 -1 19 -3 4 -6 -2 -5 -13z"></path>
</g>
</svg>