 <svg version="1.0" xmlns="http://www.w3.org/2000/svg" width="700.000000pt" height="961.000000pt" viewBox="0 0 700.000000 961.000000" preserveAspectRatio="xMidYMid meet">
<metadata>
Created by potrace 1.12, written by Peter Selinger 2001-2015
</metadata>
<g transform="translate(0.000000,961.000000) scale(0.100000,-0.100000)" fill="#000000" stroke="none">
<path d="M4219 9341 c-21 -4 -44 -15 -54 -24 -9 -9 -23 -17 -32 -17 -8 0 -26
-9 -40 -20 -18 -14 -41 -20 -77 -20 -38 0 -61 -6 -89 -25 -20 -14 -37 -30 -37
-35 0 -5 -14 -24 -31 -42 -82 -88 -103 -121 -117 -181 -26 -109 -26 -160 -2
-213 31 -72 29 -122 -9 -177 -17 -25 -36 -49 -41 -52 -6 -4 -10 -66 -10 -149
l0 -142 -38 -51 c-44 -59 -93 -103 -116 -103 -9 0 -33 -9 -53 -20 -27 -14 -57
-20 -103 -20 -39 0 -73 -6 -85 -14 -11 -7 -35 -17 -52 -20 -18 -4 -35 -11 -38
-16 -3 -4 -29 -22 -58 -38 -28 -16 -68 -46 -86 -66 l-35 -36 -106 0 c-74 0
-111 -4 -126 -14 -11 -8 -46 -17 -79 -21 -33 -4 -69 -13 -80 -20 -11 -6 -38
-15 -59 -19 -22 -4 -49 -14 -60 -22 -11 -8 -31 -14 -43 -14 -13 0 -40 -9 -60
-20 -21 -11 -52 -20 -69 -20 -17 0 -37 -7 -44 -15 -7 -8 -28 -17 -49 -21 -60
-10 -65 -13 -88 -46 -20 -31 -22 -43 -19 -188 2 -86 8 -167 15 -183 6 -16 11
-65 11 -110 0 -61 5 -91 18 -117 13 -24 21 -67 25 -137 4 -61 12 -114 22 -132
8 -17 15 -47 15 -68 1 -21 9 -56 20 -78 11 -22 20 -53 20 -70 0 -16 9 -43 20
-60 11 -16 20 -45 20 -64 0 -19 7 -42 16 -52 9 -10 18 -37 21 -61 3 -24 12
-51 20 -60 8 -9 17 -35 20 -57 3 -22 12 -46 19 -52 8 -6 14 -17 14 -23 0 -6 8
-27 19 -46 10 -20 20 -65 23 -105 7 -86 36 -171 76 -222 37 -45 49 -87 32
-108 -16 -20 -4 -50 25 -63 14 -6 25 -16 25 -21 0 -5 15 -13 33 -16 17 -4 48
-17 67 -29 28 -16 51 -21 110 -21 63 0 75 -3 78 -18 2 -9 -3 -20 -11 -23 -9
-3 -18 -25 -22 -54 -4 -27 -13 -54 -20 -60 -10 -8 -13 -68 -14 -253 -2 -202 1
-245 13 -262 9 -11 16 -33 16 -50 0 -16 9 -50 20 -74 11 -24 20 -51 20 -60 0
-9 6 -25 14 -36 21 -30 43 -127 35 -155 -4 -14 -8 -50 -8 -80 -1 -30 -8 -74
-16 -98 -9 -24 -18 -78 -22 -120 -4 -52 -12 -85 -25 -101 -10 -13 -18 -40 -18
-60 0 -24 -7 -42 -20 -54 -11 -9 -20 -28 -20 -41 0 -13 -7 -29 -15 -36 -8 -7
-15 -20 -15 -30 0 -9 -9 -29 -20 -43 -11 -14 -20 -38 -20 -55 0 -16 -9 -41
-20 -55 -16 -20 -20 -40 -20 -100 0 -54 -4 -78 -15 -87 -11 -9 -15 -32 -15
-80 0 -124 -13 -127 -120 -31 -80 73 -191 141 -229 141 -12 0 -39 9 -61 20
-48 24 -161 27 -200 5 -33 -19 -81 -19 -106 0 -10 8 -32 15 -49 15 -16 0 -45
9 -63 20 -18 11 -44 20 -59 20 -15 0 -34 6 -42 14 -23 20 -107 44 -179 52 -46
5 -85 19 -150 52 -48 25 -122 63 -164 84 -42 21 -79 42 -83 47 -3 5 -18 12
-33 16 -15 3 -48 27 -74 53 -26 26 -68 55 -93 66 l-47 19 -50 -24 c-40 -19
-55 -33 -74 -71 -21 -41 -24 -61 -24 -157 0 -60 -5 -122 -11 -137 -5 -16 -14
-58 -18 -95 -8 -59 -38 -125 -62 -137 -18 -9 -78 -71 -93 -97 -9 -16 -28 -50
-41 -74 -14 -24 -25 -53 -25 -64 0 -11 -7 -29 -16 -38 -13 -14 -18 -48 -22
-153 -3 -84 -1 -140 5 -148 6 -7 13 -29 17 -49 4 -23 22 -54 49 -83 36 -38 49
-46 80 -46 44 0 50 10 51 74 1 49 35 138 57 152 6 3 14 17 19 30 5 13 22 30
37 37 50 21 97 57 170 128 40 38 79 69 86 69 8 0 26 9 41 21 24 19 37 20 129
17 109 -5 150 -18 232 -78 22 -17 85 -52 140 -80 55 -28 107 -55 115 -59 8 -5
26 -14 40 -20 14 -6 32 -15 40 -20 8 -5 22 -12 30 -15 8 -3 42 -24 75 -46 33
-21 71 -45 85 -52 14 -7 59 -35 100 -63 123 -84 199 -125 231 -125 17 0 47
-11 67 -25 20 -14 40 -25 44 -25 13 0 80 -49 135 -100 30 -27 63 -50 74 -50
11 0 22 -7 25 -15 3 -8 31 -26 62 -40 32 -14 69 -32 84 -40 14 -8 35 -15 46
-15 10 0 31 -9 45 -20 21 -17 40 -20 122 -20 86 0 101 3 140 26 39 22 47 33
61 82 10 31 28 66 40 77 40 36 91 116 166 265 18 36 36 67 40 70 12 9 56 77
62 98 4 11 13 26 21 32 8 7 15 20 15 30 0 10 7 24 16 31 9 7 20 22 25 34 5 11
20 38 34 60 13 22 27 47 30 55 4 8 30 62 58 120 29 58 53 119 55 135 1 17 10
41 21 55 10 14 21 48 24 75 22 177 45 208 104 143 16 -18 60 -60 98 -93 38
-33 82 -73 99 -88 17 -16 49 -41 71 -55 22 -15 58 -41 81 -59 23 -18 46 -33
52 -33 6 0 21 -9 34 -20 56 -48 72 -60 78 -60 9 0 146 -103 208 -156 55 -48
132 -158 132 -190 0 -14 -7 -39 -16 -56 -25 -48 -27 -500 -2 -543 9 -16 19
-42 22 -56 3 -15 27 -55 53 -90 44 -58 93 -157 93 -187 0 -6 9 -29 20 -49 11
-21 20 -51 20 -68 0 -17 9 -47 20 -68 11 -20 20 -43 20 -49 0 -18 44 -124 58
-141 7 -8 15 -28 18 -45 4 -17 13 -37 20 -43 8 -6 14 -21 14 -33 0 -11 9 -34
20 -51 11 -16 20 -40 20 -51 0 -12 9 -33 20 -47 11 -14 20 -33 20 -42 0 -9 9
-28 20 -42 11 -14 20 -34 20 -45 0 -11 7 -26 15 -34 8 -9 15 -32 15 -53 0 -25
7 -44 20 -56 11 -10 20 -30 20 -45 0 -15 6 -33 14 -39 8 -7 18 -27 21 -44 4
-18 14 -43 23 -57 10 -16 17 -57 19 -125 2 -55 9 -116 15 -135 6 -19 15 -80
22 -135 l11 -99 45 -34 c42 -33 47 -34 100 -27 64 8 82 8 131 -1 24 -4 46 -1
67 10 17 9 40 16 52 16 12 0 35 7 51 16 21 10 79 18 177 24 81 5 190 16 242
24 52 9 140 15 196 16 100 0 100 0 132 33 18 18 32 38 32 43 0 6 8 18 18 27
10 9 29 38 42 64 13 27 48 74 77 106 l55 57 -6 58 c-4 31 -7 72 -7 91 0 53
-31 89 -84 97 -33 5 -51 2 -70 -10 -13 -9 -39 -16 -56 -16 -18 0 -53 -13 -82
-31 -43 -26 -53 -29 -80 -20 -16 6 -50 11 -75 11 -27 0 -52 6 -62 15 -10 9
-39 20 -66 24 -27 5 -62 16 -79 25 -16 9 -40 16 -51 16 -35 0 -139 57 -168 90
-17 21 -26 43 -26 66 0 19 -6 50 -14 69 -8 19 -18 56 -22 82 -3 26 -12 55 -19
63 -7 8 -16 40 -20 70 -4 30 -14 64 -21 75 -8 11 -14 33 -14 50 0 17 -8 46
-18 65 -11 19 -22 62 -26 94 -4 33 -11 65 -16 70 -4 6 -13 40 -18 76 -6 36
-17 83 -26 105 -8 22 -15 53 -16 68 0 15 -6 38 -14 50 -7 12 -16 47 -19 77 -3
30 -13 70 -23 89 -9 19 -19 57 -22 85 -3 28 -11 60 -18 71 -8 11 -14 42 -14
70 0 28 -9 69 -20 94 -11 24 -20 57 -20 73 0 17 -7 57 -16 90 -13 52 -13 63
-1 77 8 9 24 44 37 79 20 54 22 75 17 143 -4 43 -11 88 -17 99 -5 10 -12 51
-15 90 -5 61 -9 75 -31 94 -62 53 -77 69 -140 153 -37 48 -73 92 -81 96 -13 8
-106 123 -135 167 -9 14 -26 36 -39 49 -36 39 -149 198 -149 211 0 5 -6 13
-14 17 -7 4 -24 28 -36 53 -23 45 -59 101 -72 110 -10 8 -53 73 -60 92 -4 9
-19 36 -35 59 -15 23 -36 54 -45 68 -10 14 -24 40 -32 56 -17 32 -24 44 -72
115 -17 25 -35 57 -39 71 -4 13 -13 31 -20 39 -6 8 -22 35 -34 60 -35 69 -111
178 -163 234 -27 28 -62 69 -79 91 -17 22 -86 98 -155 168 -68 70 -124 131
-124 135 0 4 9 21 20 37 13 20 20 47 20 79 0 29 6 56 15 66 8 9 17 43 21 75 3
33 13 71 21 84 9 13 18 54 20 90 3 36 11 75 18 87 7 11 15 54 17 95 4 70 29
183 49 222 8 13 23 17 72 17 67 0 269 24 302 36 11 4 27 13 35 19 8 7 28 15
45 19 16 4 54 19 85 33 114 51 166 75 190 88 14 7 40 16 59 20 20 4 48 22 68
44 30 32 33 42 33 96 0 33 -7 82 -15 109 -8 27 -15 86 -15 130 0 54 -5 88 -14
102 -8 11 -19 38 -25 61 -12 42 -59 93 -87 93 -30 0 -74 -31 -80 -56 -8 -33 2
-165 20 -252 8 -37 13 -95 12 -130 -2 -71 -19 -95 -103 -144 -100 -58 -165
-84 -229 -93 -63 -9 -154 -45 -154 -61 0 -18 -18 -27 -70 -35 -25 -4 -61 -10
-82 -14 -30 -6 -37 -4 -40 11 -2 11 1 33 8 49 7 17 15 69 19 117 5 56 12 92
21 99 8 7 38 14 66 17 52 5 144 47 188 87 14 12 32 25 41 28 9 3 27 27 40 54
14 27 56 78 97 118 72 69 74 71 67 110 -8 51 -17 59 -92 84 -72 24 -148 28
-156 7 -3 -7 -18 -16 -34 -19 -16 -4 -40 -22 -56 -44 -25 -34 -28 -44 -22 -86
3 -26 11 -59 17 -73 18 -39 -11 -91 -55 -99 -56 -11 -90 -2 -106 26 -13 23
-13 30 2 62 9 19 17 45 17 57 0 11 8 35 17 53 15 28 18 61 17 242 -1 170 -4
216 -16 240 -10 19 -19 74 -23 150 -4 66 -14 140 -21 165 -8 25 -14 60 -14 78
0 36 -27 80 -77 125 -59 52 -36 121 27 83 16 -9 41 -16 57 -16 15 0 44 -10 63
-21 67 -41 145 -12 191 71 28 50 34 61 131 209 10 14 18 36 18 47 0 12 9 28
20 35 17 12 20 28 23 111 2 54 9 103 15 110 17 21 52 135 52 170 0 96 -50 266
-93 317 -15 17 -32 60 -41 101 -7 34 -92 117 -127 125 -15 4 -33 13 -40 21 -6
8 -22 14 -35 14 -13 0 -27 7 -32 16 -15 28 -122 41 -203 25z m229 -238 c47
-62 58 -82 75 -128 10 -27 22 -69 26 -92 4 -23 14 -50 22 -59 19 -23 30 -205
15 -249 -7 -18 -16 -39 -22 -46 -15 -20 -23 -43 -45 -128 -10 -41 -25 -79 -34
-83 -8 -5 -15 -21 -15 -37 0 -15 -10 -41 -22 -58 -67 -90 -142 -113 -174 -52
-15 29 -19 31 -56 26 -23 -3 -50 -2 -62 2 -64 24 -91 22 -134 -11 -32 -25 -42
-39 -42 -61 0 -15 -10 -45 -21 -65 -19 -32 -21 -46 -15 -95 5 -38 15 -67 31
-86 33 -39 45 -73 45 -130 0 -31 5 -53 15 -61 8 -7 15 -23 15 -36 0 -13 9 -32
20 -41 14 -12 20 -30 20 -58 0 -22 8 -62 17 -90 9 -27 19 -88 23 -135 4 -47
13 -139 20 -205 11 -99 11 -147 1 -265 -7 -80 -16 -201 -21 -270 -5 -69 -14
-141 -19 -160 -5 -19 -12 -60 -16 -90 -4 -30 -13 -62 -21 -70 -7 -9 -16 -43
-20 -75 -4 -33 -12 -67 -20 -75 -22 -26 -46 -103 -54 -176 -5 -39 -15 -85 -24
-102 -9 -17 -16 -45 -16 -62 0 -17 -7 -47 -16 -68 -9 -20 -20 -59 -24 -87 -9
-56 -35 -137 -55 -175 -7 -14 -15 -48 -17 -75 -3 -49 -2 -50 24 -47 31 3 52
-23 62 -76 10 -54 53 -105 218 -256 54 -49 116 -113 137 -141 22 -29 56 -70
76 -91 20 -22 43 -53 51 -70 7 -18 27 -45 44 -62 16 -17 30 -37 30 -45 0 -8
16 -35 35 -60 19 -25 35 -52 35 -60 0 -8 9 -22 20 -32 11 -10 20 -24 20 -30 0
-7 9 -24 20 -38 11 -14 20 -31 20 -39 0 -8 7 -23 15 -33 21 -28 105 -156 105
-160 0 -10 61 -93 84 -114 14 -14 26 -30 26 -38 0 -7 15 -33 33 -57 43 -59
118 -182 138 -227 22 -49 82 -133 141 -197 26 -30 64 -77 83 -105 19 -29 50
-69 70 -91 71 -76 69 -67 66 -289 -2 -167 -5 -204 -18 -219 -13 -14 -13 -22
-3 -50 6 -18 15 -78 20 -133 7 -90 11 -101 34 -120 25 -20 58 -99 76 -180 5
-22 15 -56 23 -75 8 -19 18 -57 22 -85 4 -27 14 -60 21 -73 8 -12 17 -45 20
-71 2 -27 11 -62 19 -78 8 -15 15 -38 15 -51 0 -12 6 -37 13 -55 8 -18 17 -49
21 -69 4 -20 13 -50 21 -65 8 -15 15 -41 15 -58 0 -16 9 -43 20 -60 12 -17 20
-47 20 -70 0 -23 9 -58 20 -80 11 -22 20 -53 20 -70 0 -16 9 -43 20 -60 11
-16 20 -38 20 -49 0 -10 18 -54 40 -98 30 -61 40 -92 40 -130 0 -52 18 -89 60
-123 13 -11 31 -28 39 -37 9 -10 25 -18 36 -18 11 0 34 -9 50 -20 17 -11 44
-20 60 -20 17 0 44 -9 60 -20 19 -13 47 -20 77 -20 26 0 53 -6 60 -13 7 -7 21
-16 30 -20 19 -7 117 16 162 39 36 17 70 18 84 1 6 -7 14 -43 18 -80 6 -62 5
-70 -16 -92 -13 -14 -33 -25 -45 -25 -11 0 -39 -9 -60 -21 -22 -12 -67 -27
-100 -35 -83 -19 -281 -18 -335 1 -65 23 -120 19 -160 -10 -19 -14 -36 -28
-39 -33 -16 -22 -66 -52 -87 -52 -32 0 -93 30 -98 49 -12 46 -27 126 -36 206
-10 79 -15 94 -41 121 -24 25 -32 45 -39 96 -5 35 -16 78 -25 94 -8 16 -15 42
-15 57 0 16 -9 49 -19 75 -11 26 -29 74 -42 107 -12 33 -28 74 -35 92 -8 17
-14 37 -14 45 0 7 -9 30 -20 51 -11 20 -20 49 -20 64 0 16 -9 39 -20 53 -11
14 -20 31 -20 39 0 17 -40 84 -56 94 -7 4 -15 20 -19 36 -3 16 -13 32 -21 35
-8 3 -14 14 -14 23 0 10 -8 29 -17 43 -9 13 -37 62 -61 109 -24 47 -50 89 -58
94 -8 4 -14 18 -14 31 0 13 -9 35 -20 49 -11 14 -20 31 -20 39 0 7 -8 24 -17
38 -9 13 -20 42 -24 64 -4 23 -14 59 -23 81 -23 61 -21 181 5 230 18 33 20 49
15 99 -4 34 -12 78 -17 100 -6 21 -14 69 -19 105 -9 70 -30 143 -58 200 -22
45 -115 132 -202 191 -12 8 -54 40 -94 70 -39 30 -90 68 -112 83 -23 15 -72
54 -110 85 -38 32 -100 82 -139 111 -74 57 -185 166 -185 181 0 16 -50 84 -88
119 -115 106 -143 134 -205 201 -38 41 -78 93 -89 115 -28 56 -47 75 -75 75
-13 0 -41 9 -63 20 -22 11 -48 20 -58 20 -11 0 -25 7 -32 15 -6 8 -22 17 -33
21 -12 4 -29 13 -37 21 -8 8 -44 35 -80 61 -36 26 -73 57 -83 70 -85 104 -147
224 -147 281 0 20 -8 48 -17 61 -15 21 -18 48 -18 180 0 191 -2 186 163 350
77 77 134 144 161 189 40 68 41 72 41 159 0 88 -1 92 -42 164 -34 57 -43 84
-44 124 -1 29 -8 69 -15 90 -10 29 -12 93 -10 239 2 170 0 206 -15 240 -14 33
-17 81 -20 278 -2 202 -5 242 -19 257 -20 22 -9 50 20 50 12 0 28 7 35 15 7 8
26 15 42 15 16 0 46 9 68 20 31 16 59 20 135 20 76 0 104 4 135 20 22 11 50
20 63 20 23 0 124 69 164 112 24 27 38 86 29 122 -3 14 -17 28 -34 34 -23 8
-32 6 -55 -14 -15 -13 -27 -30 -27 -39 0 -9 -13 -28 -28 -43 -41 -40 -178 -69
-252 -53 -43 9 -55 9 -73 -4 -14 -10 -45 -15 -87 -15 -43 0 -73 -5 -88 -15
-12 -9 -45 -19 -74 -22 -29 -3 -79 -14 -110 -24 -32 -11 -74 -19 -95 -19 -21
0 -47 -7 -57 -15 -13 -10 -44 -15 -93 -15 -67 0 -75 -2 -108 -31 -27 -24 -44
-31 -75 -31 -63 1 -67 -8 -65 -165 2 -143 16 -247 41 -297 8 -15 17 -69 21
-120 3 -50 12 -103 19 -118 8 -15 14 -38 14 -52 0 -14 11 -63 25 -108 61 -206
87 -270 116 -285 82 -42 149 -65 198 -70 32 -4 66 -14 80 -24 13 -11 29 -19
36 -19 20 0 66 -68 67 -98 0 -15 -2 -42 -6 -60 -6 -24 -2 -44 14 -77 25 -51
22 -60 -27 -80 -29 -12 -39 -13 -61 -1 -15 7 -61 16 -102 20 -124 12 -143 14
-200 21 -70 10 -80 18 -80 67 0 22 -8 50 -19 66 -10 15 -22 46 -25 69 -3 22
-21 64 -40 92 -34 52 -43 77 -91 252 -25 93 -81 234 -102 261 -6 7 -14 29 -18
48 -4 19 -14 43 -22 52 -9 9 -18 39 -21 65 -3 26 -11 58 -19 70 -9 14 -15 56
-17 120 -1 61 -9 115 -19 143 -13 35 -17 81 -17 205 0 88 -5 193 -10 233 -14
105 -6 118 69 124 37 3 67 11 79 21 10 9 34 17 54 17 20 0 46 9 61 20 17 13
40 20 71 20 32 0 48 5 55 18 7 13 28 18 88 23 73 6 125 20 200 54 17 8 41 15
53 15 12 0 64 11 116 25 52 14 102 25 112 25 9 0 31 15 48 33 42 45 76 67 176
116 47 24 95 52 105 63 10 11 43 37 73 57 87 57 120 97 120 145 0 16 10 64 21
105 20 69 21 92 15 236 -4 102 -2 174 5 200 14 54 27 119 35 180 4 28 15 59
24 70 55 62 145 144 164 148 11 3 97 4 189 3 161 -1 170 -2 185 -23z m-1423
-1992 c3 -5 9 -85 14 -178 4 -93 13 -179 20 -190 7 -14 11 -89 11 -213 0 -117
4 -199 11 -211 13 -25 -4 -49 -35 -49 -12 0 -37 -11 -56 -25 -42 -31 -67 -32
-75 -2 -4 12 -15 31 -25 42 -10 11 -21 45 -25 75 -4 30 -12 64 -18 75 -6 11
-14 58 -18 105 -5 47 -13 119 -18 160 -6 41 -13 106 -17 144 -5 49 -15 81 -31
105 -34 49 -28 83 17 96 19 6 45 16 57 23 12 6 30 12 41 12 11 0 39 9 63 20
48 21 75 25 84 11z m213 -2813 c5 -7 13 -34 17 -60 l7 -48 43 0 c51 0 98 -22
124 -58 11 -15 28 -38 38 -51 30 -39 86 -92 109 -101 27 -11 174 -162 174
-180 0 -9 -7 -23 -15 -30 -8 -7 -15 -17 -15 -23 0 -6 -20 -51 -44 -101 -24
-50 -52 -111 -63 -136 -11 -25 -28 -61 -37 -82 -9 -20 -16 -48 -16 -63 0 -14
-7 -39 -15 -54 -8 -16 -19 -46 -24 -67 -14 -55 -41 -136 -51 -154 -5 -8 -21
-38 -35 -66 -14 -27 -41 -66 -59 -85 -32 -36 -60 -77 -126 -185 -52 -85 -158
-206 -203 -231 -55 -32 -114 -30 -174 5 -59 34 -129 68 -163 77 -14 4 -45 16
-70 27 -25 11 -61 27 -80 35 -172 76 -205 93 -237 123 -15 15 -49 39 -75 54
-25 15 -52 33 -58 41 -7 8 -20 15 -30 15 -9 0 -29 9 -43 20 -14 11 -32 20 -40
20 -9 0 -23 7 -31 16 -9 9 -38 27 -64 41 -26 13 -77 56 -115 94 -37 38 -80 72
-95 75 -15 4 -35 15 -45 25 -10 11 -28 19 -41 19 -13 0 -29 6 -35 14 -6 7 -30
16 -52 19 -22 3 -48 12 -58 21 -10 9 -33 16 -53 16 -19 0 -46 8 -59 19 -39 30
-94 43 -151 36 -38 -5 -64 -2 -91 10 -44 18 -68 13 -114 -24 -61 -50 -91 -71
-100 -71 -15 0 -82 -39 -103 -60 -11 -11 -28 -20 -38 -20 -9 0 -42 -22 -72
-50 -56 -52 -80 -62 -80 -34 0 23 48 100 99 160 25 28 54 69 64 90 10 22 26
53 35 69 11 20 18 66 22 143 5 113 5 114 38 143 22 19 43 29 65 29 41 0 107
-18 107 -29 0 -5 12 -12 26 -15 15 -4 41 -18 59 -32 42 -32 150 -84 174 -84
10 0 24 -6 30 -14 7 -8 27 -18 44 -22 18 -4 48 -15 67 -25 19 -11 41 -19 49
-19 7 0 32 -9 55 -19 23 -10 61 -26 86 -36 25 -9 62 -25 82 -36 30 -15 59 -19
145 -20 59 0 128 -4 153 -9 25 -5 77 -14 115 -20 39 -6 84 -16 100 -22 17 -5
48 -15 70 -22 35 -10 67 -26 147 -72 34 -20 79 -67 115 -122 20 -29 54 -68 77
-88 94 -79 219 -174 231 -174 6 0 17 12 24 26 10 23 8 29 -19 54 -30 28 -30
29 -30 132 0 86 3 108 20 133 21 32 26 71 10 95 -7 11 -11 9 -19 -13 -6 -16
-11 -33 -11 -38 0 -6 -8 -9 -17 -7 -25 4 -29 75 -7 125 9 21 20 65 24 98 10
80 40 196 55 215 7 8 16 26 20 39 4 13 21 47 37 75 17 27 32 66 35 86 3 19 11
42 18 50 7 8 23 49 36 90 13 41 28 82 35 90 6 8 16 57 22 108 6 51 14 97 17
102 9 14 41 12 53 -2z"></path>
</g>
</svg>