<?xml version="1.0" standalone="no"?>
<!DOCTYPE svg PUBLIC "-//W3C//DTD SVG 20010904//EN"
 "http://www.w3.org/TR/2001/REC-SVG-20010904/DTD/svg10.dtd">
<svg version="1.0" xmlns="http://www.w3.org/2000/svg"
 width="886.000000pt" height="573.000000pt" viewBox="0 0 886.000000 573.000000"
 preserveAspectRatio="xMidYMid meet">
<metadata>
Created by potrace 1.16, written by Peter Selinger 2001-2019
</metadata>
<g transform="translate(0.000000,573.000000) scale(0.100000,-0.100000)"
fill="#000000" stroke="none">
<path d="M2965 5063 c-16 -2 -39 -8 -50 -12 -11 -5 -45 -19 -75 -31 -29 -12
-70 -33 -90 -46 -132 -89 -198 -139 -225 -169 -24 -25 -37 -33 -53 -28 -12 3
-37 -2 -56 -11 -23 -11 -76 -18 -172 -22 -77 -3 -146 -5 -154 -5 -39 4 -358
11 -550 13 l-215 2 -90 -36 c-49 -20 -121 -44 -160 -53 -38 -10 -79 -24 -90
-30 -11 -7 -35 -16 -52 -20 -18 -4 -35 -11 -38 -16 -3 -4 -36 -25 -73 -46
-102 -56 -285 -221 -369 -331 -24 -32 -93 -182 -93 -204 0 -7 -8 -40 -18 -73
-27 -87 -16 -239 21 -313 8 -15 22 -43 31 -62 23 -47 94 -126 110 -122 7 1 19
-5 26 -13 7 -8 18 -15 25 -15 7 0 41 -9 76 -21 38 -12 78 -18 99 -15 90 12
179 26 215 34 49 11 117 50 112 65 -2 6 -22 18 -45 26 -34 12 -47 13 -62 4
-15 -10 -32 -8 -89 10 -38 12 -80 31 -94 42 -32 27 -59 45 -79 51 -9 3 -21 19
-27 35 -5 16 -15 29 -20 29 -12 0 -43 55 -35 62 2 3 -5 25 -16 50 -23 54 -32
128 -20 183 5 22 12 61 15 86 4 33 16 58 40 87 19 22 35 49 35 60 0 12 5 24
11 27 6 4 22 32 37 63 15 30 36 60 47 66 10 6 24 16 31 22 19 17 175 92 229
109 28 9 81 23 118 31 38 8 72 16 77 19 26 16 400 34 715 34 151 0 238 7 355
27 23 3 42 0 54 -9 18 -13 17 -17 -30 -78 -59 -76 -103 -147 -144 -231 -36
-75 -52 -102 -72 -125 -8 -10 -20 -36 -26 -58 -13 -51 -31 -103 -47 -135 -7
-14 -16 -41 -20 -60 -9 -47 -23 -94 -50 -165 -13 -33 -35 -112 -50 -175 -14
-63 -33 -131 -40 -150 -8 -19 -21 -69 -31 -110 -23 -104 -53 -221 -64 -245
-13 -30 -31 -123 -36 -185 -2 -30 -10 -77 -18 -105 -8 -27 -21 -81 -29 -120
-9 -38 -22 -95 -29 -125 -6 -30 -20 -66 -30 -79 -10 -13 -18 -40 -18 -59 0
-34 -6 -58 -52 -217 -26 -89 -68 -195 -85 -216 -7 -9 -20 -42 -28 -73 -14 -54
-46 -132 -80 -199 -8 -16 -15 -34 -15 -41 0 -33 -125 -237 -181 -296 -19 -19
-50 -56 -69 -82 -19 -25 -46 -53 -60 -61 -14 -9 -38 -29 -55 -46 -16 -17 -64
-48 -105 -68 -74 -38 -76 -38 -195 -38 -127 1 -117 -2 -242 63 -18 9 -39 29
-45 44 -7 16 -18 28 -24 28 -17 0 -62 53 -69 82 -4 15 -2 42 4 61 7 21 8 43 3
58 -5 13 -6 63 -2 111 6 73 13 96 46 158 54 99 88 123 173 123 78 -1 149 -12
157 -24 3 -5 13 -9 22 -9 19 0 91 -79 116 -129 12 -22 16 -44 12 -66 -8 -39 8
-85 28 -85 8 0 24 14 36 30 12 17 27 30 33 31 7 0 27 19 46 40 32 38 35 46 38
120 3 82 -12 133 -43 152 -8 4 -14 12 -14 17 0 18 -85 94 -125 111 -52 23
-163 41 -206 33 -59 -11 -219 -97 -283 -152 -146 -128 -211 -210 -254 -322
-42 -108 -59 -275 -37 -352 20 -69 91 -195 131 -234 31 -30 145 -84 177 -84
14 0 28 -4 31 -9 9 -14 263 -36 278 -24 7 6 25 13 39 17 15 3 55 22 89 41 34
19 66 35 72 35 5 0 23 14 41 30 18 17 57 44 87 61 30 16 66 45 79 64 13 19 27
35 32 35 13 0 148 141 175 184 15 23 42 52 60 64 19 12 34 27 34 34 0 6 11 26
25 44 14 18 25 38 25 44 0 7 11 21 25 32 14 11 25 28 25 38 0 10 11 31 24 47
13 15 26 42 30 59 4 17 16 41 26 52 11 12 20 25 20 29 0 4 16 40 35 78 19 39
38 86 41 105 4 19 15 53 25 75 10 22 28 70 39 107 12 38 25 68 29 68 12 0 28
48 35 103 7 56 31 94 66 101 36 8 489 29 593 28 49 0 101 -3 116 -7 l27 -6 2
-162 c2 -214 20 -573 33 -667 5 -41 12 -100 15 -130 2 -30 14 -102 25 -160 11
-58 23 -118 25 -135 11 -62 65 -222 94 -277 17 -31 30 -68 30 -81 0 -24 97
-224 156 -320 75 -124 153 -219 215 -262 35 -25 72 -45 81 -45 9 0 19 -4 22
-9 4 -5 36 -19 74 -32 51 -17 96 -23 187 -25 66 -2 125 -4 130 -4 30 -2 114
14 142 26 17 8 39 14 49 14 32 0 88 23 126 52 20 15 44 28 53 28 8 0 18 6 21
14 3 8 19 20 35 26 16 7 29 19 29 26 0 8 7 14 16 14 41 0 60 73 22 83 -27 7
-47 -8 -64 -50 -11 -25 -24 -35 -66 -49 -29 -9 -63 -23 -75 -31 -58 -38 -340
-9 -392 40 -29 28 -82 62 -123 78 -15 6 -45 34 -65 62 -21 29 -45 59 -54 67
-30 28 -86 105 -107 146 -12 23 -28 44 -37 47 -8 4 -15 17 -15 30 0 13 -11 34
-25 47 -14 13 -25 29 -25 36 0 6 -8 29 -17 50 -9 22 -16 42 -15 46 1 3 -5 12
-13 18 -8 7 -15 19 -15 27 0 7 -11 36 -25 63 -14 27 -25 61 -25 75 0 14 -11
47 -24 73 -13 26 -28 70 -34 97 -17 76 -34 168 -34 185 0 8 -4 33 -9 55 -12
51 -31 232 -33 310 -1 33 -8 98 -15 144 -24 161 -20 586 7 613 6 6 5 23 -3 46
-9 27 -9 65 -3 142 5 58 9 127 8 155 -1 27 4 77 10 110 11 62 31 297 29 350
-2 48 -2 57 6 125 4 36 11 70 16 76 4 5 15 60 23 122 8 61 18 117 21 123 4 6
7 31 7 56 -1 25 2 53 7 62 5 9 11 52 14 96 7 92 40 315 62 425 9 41 20 116 26
165 5 50 14 99 19 110 5 11 16 38 25 60 9 22 25 49 35 60 38 40 35 75 -10 133
-22 29 -40 61 -40 72 0 14 -11 22 -37 29 -38 11 -52 11 -108 4z m-101 -341 c4
-10 -3 -54 -15 -98 -11 -43 -27 -115 -34 -159 -8 -44 -21 -113 -29 -154 -9
-40 -15 -89 -15 -110 0 -20 -4 -67 -10 -106 -6 -38 -15 -116 -21 -172 -6 -57
-15 -114 -20 -128 -6 -15 -10 -54 -10 -88 0 -34 -5 -80 -11 -102 -6 -22 -14
-69 -19 -105 -5 -36 -13 -99 -18 -140 -6 -41 -15 -147 -22 -235 -14 -207 -17
-237 -24 -255 -3 -8 -7 -46 -10 -85 -2 -38 -8 -95 -11 -126 l-7 -56 -172 -2
c-512 -8 -485 -9 -534 24 -1 1 5 29 13 63 19 72 27 116 29 157 0 17 5 36 9 43
5 7 6 21 2 32 -3 11 2 35 14 57 27 52 55 157 48 182 -3 12 -1 24 4 27 5 3 9
22 9 42 1 49 22 125 40 147 14 17 18 35 23 100 1 17 8 36 14 43 7 7 13 21 14
30 0 9 2 35 5 57 2 22 6 56 8 77 2 20 15 57 30 83 14 26 26 56 26 67 0 10 6
29 14 41 8 12 17 42 21 67 4 24 11 51 16 60 4 8 19 40 32 70 14 30 34 76 46
101 12 25 21 52 21 61 0 8 9 23 20 33 11 10 23 34 26 54 4 20 13 45 20 56 8
11 14 27 14 36 0 9 9 24 20 34 11 10 20 23 20 30 0 6 18 26 40 44 22 17 40 38
40 46 0 29 83 99 132 112 25 7 66 21 90 32 82 37 114 40 122 13z"/>
<path d="M4293 1425 l-23 -16 0 -500 c0 -552 0 -551 62 -589 40 -24 114 -27
146 -4 22 15 22 20 22 219 0 112 5 238 11 280 18 135 103 344 170 420 81 92
189 87 250 -11 21 -34 24 -52 24 -129 0 -85 1 -90 25 -102 56 -29 138 14 161
85 24 71 -10 190 -72 251 -50 50 -111 74 -205 79 -71 4 -87 1 -136 -22 -68
-32 -149 -116 -195 -201 l-32 -60 -1 103 c0 158 -28 203 -128 210 -41 2 -63
-1 -79 -13z"/>
<path d="M5310 1427 c-14 -6 -35 -32 -47 -57 -23 -43 -23 -51 -23 -409 0 -340
1 -368 21 -434 40 -134 149 -216 301 -225 160 -10 270 42 352 166 l35 53 17
-33 c59 -116 160 -179 300 -186 108 -6 167 14 238 79 l54 49 6 -33 c10 -53 56
-90 118 -94 32 -2 63 1 78 9 l25 14 6 329 c7 348 12 393 61 508 30 72 64 114
115 144 87 51 173 49 211 -5 40 -57 45 -91 52 -382 6 -210 12 -300 24 -343 49
-178 154 -267 325 -275 70 -3 96 0 142 17 82 31 142 89 183 174 41 85 56 160
56 273 0 115 -23 159 -71 134 -15 -8 -19 -22 -19 -58 0 -80 -20 -211 -40 -266
-25 -65 -74 -132 -111 -151 -15 -8 -48 -15 -72 -15 -59 0 -106 32 -137 95 -24
49 -25 56 -31 345 -7 348 -15 388 -100 483 -65 73 -126 99 -244 105 -144 7
-240 -32 -312 -127 -23 -29 -33 -37 -33 -24 0 40 -22 94 -51 123 -26 25 -38
30 -79 30 -27 0 -60 -4 -73 -9 l-24 -9 -6 -334 c-3 -183 -11 -361 -17 -396
-16 -92 -48 -169 -88 -214 -46 -50 -80 -68 -135 -68 -35 0 -50 6 -79 33 -71
64 -72 72 -78 547 l-5 424 -25 14 c-41 21 -134 11 -166 -19 -51 -46 -54 -68
-54 -343 0 -285 -10 -368 -59 -473 -61 -130 -135 -193 -227 -193 -44 0 -57 4
-81 29 -60 60 -72 166 -73 642 l0 346 -25 11 c-34 16 -103 15 -135 -1z"/>
<path d="M7984 541 c-39 -17 -74 -70 -74 -112 0 -101 92 -159 180 -114 43 22
60 53 60 107 0 40 -5 54 -33 84 -34 38 -91 53 -133 35z"/>
<path d="M8284 541 c-39 -17 -74 -70 -74 -112 0 -101 92 -159 180 -114 43 22
60 53 60 107 0 40 -5 54 -33 84 -34 38 -91 53 -133 35z"/>
<path d="M8584 541 c-39 -17 -74 -70 -74 -112 0 -101 92 -159 180 -114 43 22
60 53 60 107 0 40 -5 54 -33 84 -34 38 -91 53 -133 35z"/>
</g>
</svg>
